<svg xmlns="http://www.w3.org/2000/svg" width="459" height="689" fill="none">
  <path fill="#1ABCFE" d="M229.284 344.63c0-63.242 51.27-114.772 114.772-114.772 63.242 0 114.772 51.27 114.772 114.772 0 63.242-51.27 114.772-114.772 114.772-63.242 0-114.772-51.53-114.772-114.772Z"/>
  <path fill="#0ACF83" d="M0 573.914c0-63.242 51.27-114.772 114.772-114.772h114.772v114.772c0 63.242-51.27 114.772-114.772 114.772S0 637.416 0 573.914Z"/>
  <path fill="#FF7262" d="M229.284.574v229.284h114.772c63.242 0 114.772-51.27 114.772-114.772 0-63.242-51.27-114.772-114.772-114.772H229.284v.26Z"/>
  <path fill="#F24E1E" d="M0 115.346c0 63.242 51.27 114.772 114.772 114.772h114.772V.574H114.772C51.27.574 0 51.844 0 115.346Z"/>
  <path fill="#A259FF" d="M0 344.63c0 63.242 51.27 114.772 114.772 114.772h114.772V229.858H114.772C51.27 229.858 0 281.388 0 344.63Z"/>
</svg>
