<svg width="8" height="17" viewBox="0 0 8 17" fill="none" xmlns="http://www.w3.org/2000/svg">
<g clip-path="url(#clip0_2_125)">
<path d="M8 4.5H6.4V6.5H8V4.5ZM6.4 2.5H4.8V4.5H6.4V2.5ZM3.2 2.5H1.6V4.5H3.2V2.5ZM1.6 4.5H0V6.5H1.6V4.5Z" fill="#A6A5A2"/>
<path d="M4.80001 16.5H3.20001V0.5H4.80001V16.5Z" fill="#A6A5A2"/>
<path d="M4.8 14.5H6.4V12.5H4.8V14.5ZM1.6 14.5H3.2V12.5H1.6V14.5ZM6.4 12.5H8V10.5H6.4V12.5ZM0 12.5H1.6V10.5H0V12.5Z" fill="#A6A5A2"/>
</g>
<defs>
<clipPath id="clip0_2_125">
<rect width="8" height="16" fill="white" transform="translate(0 0.5)"/>
</clipPath>
</defs>
</svg>
