<svg width="85" height="46" viewBox="0 0 85 46" fill="none" xmlns="http://www.w3.org/2000/svg">
<path d="M31.8394 26.1104C43.5456 43.1799 69.5105 53.1653 84.0048 33.9282M30.2182 32.0873C30.9204 28.6275 28.7709 25.8923 28.7803 22.5156C31.1275 23.5809 35.9828 25.5274 38.6605 25.0915" stroke="white" stroke-width="1.5" stroke-miterlimit="10" stroke-linecap="round" stroke-linejoin="round"/>
<path d="M8.04688 7.44531C8.17188 7.44531 8.23438 7.54688 8.23438 7.75C8.23438 7.94792 8.1901 8.29167 8.10156 8.78125C8.03385 9.10938 7.65885 9.57812 6.97656 10.1875C6.15365 10.9167 5.25 11.4375 4.26562 11.75C3.67188 11.9375 3.09115 12.0312 2.52344 12.0312C1.96094 12.0312 1.44531 11.7943 0.976562 11.3203C0.513021 10.8411 0.28125 10.276 0.28125 9.625C0.28125 8.96875 0.411458 8.29167 0.671875 7.59375C0.9375 6.89062 1.29167 6.22135 1.73438 5.58594C2.18229 4.94531 2.70833 4.33073 3.3125 3.74219C3.92188 3.15365 4.55469 2.64323 5.21094 2.21094C5.86719 1.77865 6.55469 1.4349 7.27344 1.17969C7.99219 0.924479 8.67448 0.796875 9.32031 0.796875C9.83073 0.796875 10.2656 0.981771 10.625 1.35156C10.8125 1.54948 10.9062 1.79948 10.9062 2.10156C10.9062 2.39844 10.7604 2.77604 10.4688 3.23438C10.1771 3.6875 9.83073 4.10156 9.42969 4.47656C9.03385 4.85156 8.6224 5.16927 8.19531 5.42969C7.77344 5.6901 7.4349 5.82031 7.17969 5.82031C6.92448 5.82031 6.70573 5.74219 6.52344 5.58594C6.34115 5.42448 6.25 5.28125 6.25 5.15625C6.25 5.03125 6.27604 4.89323 6.32812 4.74219C6.38542 4.59115 6.45573 4.51562 6.53906 4.51562C6.51823 4.54167 6.50781 4.56771 6.50781 4.59375C6.50781 4.65625 6.59635 4.6875 6.77344 4.6875C6.95573 4.6875 7.25781 4.52865 7.67969 4.21094C8.10156 3.89323 8.48177 3.53646 8.82031 3.14062C9.16406 2.74479 9.33594 2.44792 9.33594 2.25C9.33594 2.11458 9.24479 2.04688 9.0625 2.04688C8.57292 2.04688 7.89583 2.27604 7.03125 2.73438C6.17188 3.1875 5.34896 3.77344 4.5625 4.49219C3.77604 5.21094 3.09115 6.0651 2.50781 7.05469C1.92969 8.03906 1.64062 8.92448 1.64062 9.71094C1.64062 10.0391 1.72656 10.3021 1.89844 10.5C2.07552 10.6979 2.34375 10.7969 2.70312 10.7969C3.06771 10.7969 3.4974 10.6927 3.99219 10.4844C4.48698 10.276 4.95573 10.0208 5.39844 9.71875C5.84635 9.41667 6.26823 9.10677 6.66406 8.78906C7.0599 8.47135 7.375 8.19271 7.60938 7.95312C7.84896 7.71354 7.97135 7.57031 7.97656 7.52344C7.98177 7.47135 8.00521 7.44531 8.04688 7.44531Z" fill="white"/>
<path d="M15.0547 0.273438C15.3047 0.273438 15.5234 0.348958 15.7109 0.5C15.9036 0.645833 16 0.864583 16 1.15625C16 1.44792 15.8385 1.90625 15.5156 2.53125C15.1927 3.15104 14.8047 3.78646 14.3516 4.4375C13.8984 5.08333 13.3854 5.77083 12.8125 6.5C11.9062 7.65625 11.0365 8.69531 10.2031 9.61719C10.1979 9.67969 10.1745 9.79688 10.1328 9.96875C10.0964 10.1354 10.0781 10.3047 10.0781 10.4766C10.0781 10.6484 10.1562 10.8047 10.3125 10.9453C10.474 11.0807 10.6719 11.1484 10.9062 11.1484C11.1406 11.1484 11.3906 11.0651 11.6562 10.8984C11.9271 10.7318 12.1615 10.5469 12.3594 10.3438C12.8802 9.80729 13.2031 9.53906 13.3281 9.53906C13.4531 9.53906 13.5156 9.72917 13.5156 10.1094V10.2656C13.5156 10.4688 13.4792 10.6172 13.4062 10.7109C12.9688 11.2474 12.4766 11.6484 11.9297 11.9141C11.3828 12.1745 10.8646 12.3047 10.375 12.3047C9.88542 12.3047 9.51302 12.1562 9.25781 11.8594C9.0026 11.5573 8.875 11.1458 8.875 10.625C8.875 9.60938 9.14583 8.41667 9.6875 7.04688C10.2344 5.67188 10.849 4.5026 11.5312 3.53906C13.0677 1.36198 14.2422 0.273438 15.0547 0.273438ZM14.7031 1.57031C14.7031 1.49219 14.6771 1.45312 14.625 1.45312C14.4427 1.45312 13.9635 1.97396 13.1875 3.01562C12.4115 4.05729 11.849 4.88802 11.5 5.50781C11.1562 6.1276 10.8307 6.90625 10.5234 7.84375C11.138 7.11458 11.987 5.97917 13.0703 4.4375C14.1589 2.89062 14.7031 1.9349 14.7031 1.57031Z" fill="white"/>
<path d="M17.7891 3.42188C17.7891 3.71875 17.651 4.01823 17.375 4.32031C17.099 4.61719 16.8099 4.76562 16.5078 4.76562C16.2109 4.76562 16.0625 4.60938 16.0625 4.29688C16.0625 3.98438 16.1927 3.6875 16.4531 3.40625C16.7188 3.11979 17.0104 2.97656 17.3281 2.97656C17.4688 2.97656 17.5807 3.01562 17.6641 3.09375C17.7474 3.17188 17.7891 3.28125 17.7891 3.42188ZM16.5234 10.2422C16.5234 10.3984 16.5078 10.5104 16.4766 10.5781C16.2214 11.099 15.8151 11.5208 15.2578 11.8438C14.7005 12.1615 14.2161 12.3203 13.8047 12.3203C13.3932 12.3203 13.0391 12.1823 12.7422 11.9062C12.4453 11.6302 12.2969 11.349 12.2969 11.0625C12.2969 10.776 12.4401 10.3594 12.7266 9.8125C13.013 9.26562 13.2995 8.76042 13.5859 8.29688C13.8724 7.83333 14.0156 7.58333 14.0156 7.54688C14.0156 7.50521 13.9609 7.42708 13.8516 7.3125C13.7474 7.19792 13.6953 7.11458 13.6953 7.0625C13.6953 7.00521 13.8021 6.86198 14.0156 6.63281C14.2344 6.39844 14.4974 6.16927 14.8047 5.94531C15.1172 5.71615 15.3542 5.60156 15.5156 5.60156C15.6823 5.60156 15.8307 5.67448 15.9609 5.82031C16.0911 5.96615 16.1562 6.09896 16.1562 6.21875C16.1562 6.33854 15.5365 7.46615 14.2969 9.60156C14.2812 9.63281 14.237 9.70312 14.1641 9.8125C14.0964 9.91667 14.0417 10.0052 14 10.0781C13.9635 10.1458 13.9193 10.2292 13.8672 10.3281C13.763 10.5365 13.7109 10.7109 13.7109 10.8516C13.7109 11.0286 13.8307 11.1172 14.0703 11.1172C14.3099 11.1172 14.5573 11.0365 14.8125 10.875C15.0729 10.7083 15.2969 10.526 15.4844 10.3281C15.974 9.80208 16.2526 9.53906 16.3203 9.53906C16.4557 9.53906 16.5234 9.77344 16.5234 10.2422Z" fill="white"/>
<path d="M21.0312 10.2656C21.3021 10.0938 21.4766 9.97656 21.5547 9.91406C21.6328 9.84635 21.724 9.76823 21.8281 9.67969C21.9323 9.59115 22.0182 9.54688 22.0859 9.54688C22.1901 9.54688 22.2422 9.66667 22.2422 9.90625C22.2422 10.1406 22.125 10.3958 21.8906 10.6719C21.6615 10.9427 21.375 11.1745 21.0312 11.3672C20.6875 11.5547 20.3203 11.7188 19.9297 11.8594C19.1536 12.1458 18.4922 12.2891 17.9453 12.2891C17.4036 12.2891 16.9141 12.112 16.4766 11.7578C16.0391 11.3984 15.8203 10.9323 15.8203 10.3594C15.8203 9.78125 15.9635 9.20573 16.25 8.63281C16.5365 8.05469 16.9036 7.54948 17.3516 7.11719C17.8047 6.67969 18.3281 6.32552 18.9219 6.05469C19.5208 5.78385 20.112 5.64844 20.6953 5.64844C20.9766 5.64844 21.2292 5.72917 21.4531 5.89062C21.6771 6.05208 21.7891 6.27344 21.7891 6.55469C21.7891 6.83594 21.6484 7.17448 21.3672 7.57031C21.0911 7.96094 20.8099 8.15625 20.5234 8.15625C20.1901 8.15625 20.0234 7.9974 20.0234 7.67969C20.0234 7.59635 20.1016 7.44792 20.2578 7.23438C20.4141 7.02083 20.4922 6.8776 20.4922 6.80469C20.4922 6.72656 20.4635 6.6875 20.4062 6.6875C20.1198 6.6875 19.8125 6.78646 19.4844 6.98438C19.1562 7.18229 18.8568 7.39062 18.5859 7.60938C18.3203 7.82812 18.0677 8.07292 17.8281 8.34375C17.3073 8.93229 17.0469 9.54427 17.0469 10.1797C17.0469 10.4349 17.1276 10.6562 17.2891 10.8438C17.4557 11.026 17.7318 11.1172 18.1172 11.1172C18.5078 11.1172 18.8984 11.0729 19.2891 10.9844C19.6797 10.8906 20 10.7917 20.25 10.6875C20.5052 10.5781 20.7656 10.4375 21.0312 10.2656Z" fill="white"/>
<path d="M21.9219 12.1875L21.4219 12.0781C21.2708 12.0625 21.1458 11.9661 21.0469 11.7891C21.0208 11.7422 21.0052 11.7135 21 11.7031C20.9896 11.6927 20.9844 11.6797 20.9844 11.6641C20.9844 11.6484 20.9896 11.6276 21 11.6016C21.0104 11.5703 21.026 11.5312 21.0469 11.4844C21.0677 11.4323 21.0859 11.3802 21.1016 11.3281C21.2109 10.9583 22.125 9.21875 23.8438 6.10938C25.5625 3 26.4609 1.39844 26.5391 1.30469C26.6224 1.20573 26.6823 1.13542 26.7188 1.09375C26.7604 1.04688 26.8047 1.00781 26.8516 0.976562C26.9036 0.945312 26.9401 0.924479 26.9609 0.914062C26.987 0.903646 27.0339 0.888021 27.1016 0.867188C27.1745 0.841146 27.2474 0.815104 27.3203 0.789062C27.3984 0.763021 27.4792 0.729167 27.5625 0.6875C27.6458 0.640625 27.7031 0.609375 27.7344 0.59375C27.7656 0.572917 27.8047 0.5625 27.8516 0.5625C27.9036 0.5625 27.9505 0.585938 27.9922 0.632812C28.0391 0.679688 28.0625 0.739583 28.0625 0.8125V0.867188C28.0365 0.966146 27.3568 2.20052 26.0234 4.57031C24.6953 6.9401 23.9714 8.23698 23.8516 8.46094C24.2578 8.29948 24.8568 7.90104 25.6484 7.26562C26.4401 6.63021 26.8385 6.20833 26.8438 6C26.8542 5.79167 26.9271 5.64062 27.0625 5.54688C27.1979 5.45312 27.3438 5.40625 27.5 5.40625C27.6615 5.40625 27.7969 5.46094 27.9062 5.57031C28.0208 5.67448 28.0755 5.84896 28.0703 6.09375C28.0651 6.33333 27.9297 6.64062 27.6641 7.01562C27.3984 7.38542 27.0807 7.72917 26.7109 8.04688C25.9141 8.72396 25.25 9.17188 24.7188 9.39062C25.1406 10.5312 25.625 11.1016 26.1719 11.1016C26.4688 11.0599 26.8333 10.8177 27.2656 10.375C27.4271 10.2135 27.5833 10.0521 27.7344 9.89062C27.8854 9.72396 27.9766 9.625 28.0078 9.59375C28.0443 9.5625 28.0938 9.54688 28.1562 9.54688C28.2552 9.54688 28.3151 9.6224 28.3359 9.77344C28.3568 9.92448 28.3672 10.0807 28.3672 10.2422C28.3672 10.4036 28.3516 10.5156 28.3203 10.5781C28.1693 10.8698 27.8385 11.2266 27.3281 11.6484C26.8177 12.0651 26.3333 12.2734 25.875 12.2734C25.5469 12.2734 25.2865 12.2109 25.0938 12.0859C24.901 11.9609 24.75 11.8568 24.6406 11.7734C24.5312 11.6901 24.4193 11.5781 24.3047 11.4375C24.1901 11.2917 24.0938 11.1719 24.0156 11.0781C23.9427 10.9844 23.8568 10.8542 23.7578 10.6875C23.6641 10.5208 23.5964 10.4036 23.5547 10.3359C23.513 10.263 23.4505 10.1484 23.3672 9.99219C23.2891 9.83073 23.2448 9.74219 23.2344 9.72656C23.1406 9.91927 23.0365 10.1276 22.9219 10.3516C22.8073 10.5755 22.7031 10.7839 22.6094 10.9766C22.5156 11.1693 22.4297 11.3464 22.3516 11.5078C22.2734 11.6641 22.2083 11.7943 22.1562 11.8984C22.1094 12.0026 22.0833 12.0573 22.0781 12.0625C22.0417 12.1458 21.9896 12.1875 21.9219 12.1875Z" fill="white"/>
<path d="M31.0156 12.0469L30.6328 12.0312H30.4922C30.4401 12.0156 30.3854 11.9844 30.3281 11.9375C30.2656 11.8906 30.2188 11.8568 30.1875 11.8359C30.1562 11.8151 30.1406 11.7786 30.1406 11.7266C30.1406 11.6693 30.1615 11.5729 30.2031 11.4375C31.2188 9.20312 32.2005 7.41667 33.1484 6.07812C33.2526 5.93229 33.4193 5.82292 33.6484 5.75C33.8828 5.67188 34.1094 5.63281 34.3281 5.63281C34.4583 5.63281 34.5234 5.73438 34.5234 5.9375C34.5234 5.99479 34.5026 6.07292 34.4609 6.17188C34.4193 6.26562 34.3151 6.42188 34.1484 6.64062C33.9818 6.85938 33.7839 7.10938 33.5547 7.39062C33.3255 7.67188 33.1953 7.83333 33.1641 7.875C33.8776 7.13542 34.5208 6.58594 35.0938 6.22656C35.6719 5.86198 36.0885 5.67969 36.3438 5.67969C36.6042 5.67969 36.8021 5.75521 36.9375 5.90625C37.0781 6.05208 37.1484 6.21094 37.1484 6.38281C37.1484 6.54948 37.1354 6.6901 37.1094 6.80469C37.0885 6.91406 37.0469 7.03125 36.9844 7.15625C36.9219 7.27604 36.8672 7.38021 36.8203 7.46875C36.7786 7.55208 36.7057 7.66406 36.6016 7.80469C36.4974 7.9401 36.4245 8.03385 36.3828 8.08594C36.3464 8.13802 36.2656 8.23698 36.1406 8.38281C36.0208 8.52865 35.9557 8.60938 35.9453 8.625C36.0911 8.47917 36.2943 8.26302 36.5547 7.97656C36.8151 7.6901 37.0339 7.45052 37.2109 7.25781C37.3932 7.0651 37.6198 6.84896 37.8906 6.60938C38.1615 6.36458 38.4141 6.16667 38.6484 6.01562C39.2109 5.66146 39.7812 5.48438 40.3594 5.48438C40.5573 5.48438 40.724 5.54688 40.8594 5.67188C40.9948 5.79688 41.0625 5.94792 41.0625 6.125C41.0625 6.29688 40.8516 6.71354 40.4297 7.375C40.0078 8.03125 39.5859 8.69271 39.1641 9.35938C38.7474 10.0208 38.5391 10.4375 38.5391 10.6094C38.5391 10.849 38.5833 10.9922 38.6719 11.0391C38.7604 11.0807 38.8672 11.0964 38.9922 11.0859C39.1172 11.0755 39.2917 10.9948 39.5156 10.8438C39.7448 10.6927 39.9479 10.5365 40.125 10.375C40.4115 10.1146 40.6771 9.86198 40.9219 9.61719C40.974 9.57031 41.0312 9.54688 41.0938 9.54688C41.1927 9.54688 41.2526 9.6224 41.2734 9.77344C41.2943 9.92448 41.3047 10.0807 41.3047 10.2422C41.3047 10.4036 41.2891 10.5156 41.2578 10.5781C41.1068 10.8698 40.7734 11.2266 40.2578 11.6484C39.7422 12.0703 39.2474 12.2812 38.7734 12.2812C38.7161 12.2812 38.6745 12.2786 38.6484 12.2734C38.112 12.2214 37.7396 12.0755 37.5312 11.8359C37.3281 11.5911 37.2266 11.3021 37.2266 10.9688C37.2266 10.6354 37.3385 10.2318 37.5625 9.75781C37.7917 9.28385 38.0417 8.85417 38.3125 8.46875C38.5833 8.08333 38.8307 7.73698 39.0547 7.42969C39.2839 7.11719 39.3984 6.94792 39.3984 6.92188C39.3984 6.89583 39.3776 6.88281 39.3359 6.88281C39.1745 6.88281 38.8151 7.14323 38.2578 7.66406C37.3047 8.55469 36.4818 9.41406 35.7891 10.2422C35.6068 10.4609 35.1745 11.0156 34.4922 11.9062C34.4141 12.0104 34.2891 12.0625 34.1172 12.0625C33.9505 12.0625 33.776 12.0312 33.5938 11.9688C33.4115 11.901 33.3203 11.8151 33.3203 11.7109C33.3203 11.6589 33.7344 10.9297 34.5625 9.52344C35.3906 8.11198 35.8047 7.34375 35.8047 7.21875C35.8047 7.08854 35.7266 7.02344 35.5703 7.02344C35.4193 7.02344 35.1042 7.2526 34.625 7.71094C33.3073 8.97135 32.2865 10.224 31.5625 11.4688C31.5156 11.5417 31.4245 11.6562 31.2891 11.8125C31.1536 11.9688 31.0625 12.0469 31.0156 12.0469Z" fill="white"/>
<path d="M46.125 6.15625C46.125 6.5 45.9844 6.80208 45.7031 7.0625C45.4271 7.32292 45.112 7.45312 44.7578 7.45312C44.6432 7.45312 44.5677 7.42708 44.5312 7.375C44.4948 7.31771 44.4766 7.24479 44.4766 7.15625C44.4766 7.06771 44.487 6.98177 44.5078 6.89844C44.3203 6.96094 44.112 7.05729 43.8828 7.1875C43.6536 7.31771 43.3724 7.51042 43.0391 7.76562C42.7057 8.02083 42.5391 8.21094 42.5391 8.33594C42.5391 8.3776 42.599 8.39844 42.7188 8.39844C42.8438 8.39844 43.0339 8.35677 43.2891 8.27344C43.5443 8.1849 43.7214 8.14062 43.8203 8.14062C43.9245 8.14062 43.9922 8.14583 44.0234 8.15625C44.0911 8.19271 44.1641 8.27344 44.2422 8.39844C44.3203 8.51823 44.3594 8.61458 44.3594 8.6875C44.3594 8.75521 44.2917 8.84635 44.1562 8.96094C44.0208 9.07552 43.8672 9.16406 43.6953 9.22656C43.5234 9.28385 43.4089 9.32812 43.3516 9.35938C42.2526 9.97396 41.7031 10.3958 41.7031 10.625C41.7031 11.0312 42.0495 11.2344 42.7422 11.2344C43.1849 11.2344 43.6302 11.0938 44.0781 10.8125C44.4583 10.5729 44.7995 10.3307 45.1016 10.0859C45.4089 9.83594 45.6016 9.68229 45.6797 9.625C45.763 9.56771 45.8255 9.53906 45.8672 9.53906C46.0026 9.53906 46.0703 9.6901 46.0703 9.99219C46.0703 10.2943 46.0521 10.4948 46.0156 10.5938C45.9792 10.6875 45.875 10.8047 45.7031 10.9453C44.5885 11.8516 43.5339 12.3047 42.5391 12.3047C42.0078 12.3047 41.5833 12.2318 41.2656 12.0859C40.6823 11.8203 40.3906 11.4141 40.3906 10.8672C40.3906 10.1484 40.888 9.60417 41.8828 9.23438C41.6849 9.14583 41.5573 9.03385 41.5 8.89844C41.4427 8.75781 41.4141 8.53646 41.4141 8.23438C41.4141 7.92708 41.5547 7.60417 41.8359 7.26562C42.1224 6.92188 42.4714 6.64062 42.8828 6.42188C43.7995 5.92708 44.6172 5.67969 45.3359 5.67969C45.5078 5.67969 45.6823 5.72135 45.8594 5.80469C46.0365 5.88802 46.125 6.00521 46.125 6.15625Z" fill="white"/>
<path d="M50.4141 3.80469C50.4922 3.80469 50.5312 3.85417 50.5312 3.95312C50.5312 4.19271 50.4245 4.375 50.2109 4.5C49.9974 4.625 49.7422 4.6875 49.4453 4.6875C49.1484 4.6875 48.875 4.58594 48.625 4.38281C48.3802 4.17969 48.2578 3.96094 48.2578 3.72656C48.2578 3.29948 48.4167 2.88542 48.7344 2.48438C49.0573 2.08333 49.4635 1.7474 49.9531 1.47656C51.0365 0.877604 52.1172 0.578125 53.1953 0.578125C54.4505 0.578125 55.375 0.934896 55.9688 1.64844C56.2708 2.01302 56.4219 2.42448 56.4219 2.88281C56.4219 3.34115 56.3438 3.75 56.1875 4.10938C56.0312 4.46875 55.8177 4.78385 55.5469 5.05469C55.276 5.32552 54.974 5.57552 54.6406 5.80469C54.3073 6.03385 53.9453 6.2526 53.5547 6.46094C53.1693 6.66406 52.7969 6.85938 52.4375 7.04688C51.5677 7.50521 50.9219 7.94531 50.5 8.36719C50.3281 8.54948 50.2682 8.77604 50.3203 9.04688C50.3359 9.13021 50.3073 9.20312 50.2344 9.26562C50.1615 9.32812 50.0573 9.35938 49.9219 9.35938C49.7917 9.35938 49.6875 9.35417 49.6094 9.34375C49.5365 9.32812 49.4427 9.30208 49.3281 9.26562C49.0729 9.19271 48.9453 9.02344 48.9453 8.75781C48.9453 8.26302 49.1589 7.82031 49.5859 7.42969C49.9297 7.10677 50.5599 6.67448 51.4766 6.13281C52.3984 5.59115 53.0859 5.16667 53.5391 4.85938C54.5443 4.17708 55.0469 3.52083 55.0469 2.89062C55.0469 2.20833 54.4661 1.86719 53.3047 1.86719C52.8307 1.86719 52.3177 1.96615 51.7656 2.16406C51.2135 2.36198 50.7448 2.61979 50.3594 2.9375C49.9792 3.25521 49.7891 3.5651 49.7891 3.86719C49.7891 3.88802 49.8151 3.91406 49.8672 3.94531C49.9245 3.97135 49.9792 3.98438 50.0312 3.98438C50.0833 3.98438 50.1562 3.95573 50.25 3.89844C50.3438 3.83594 50.3984 3.80469 50.4141 3.80469ZM49.1797 11.0938C49.1797 11.3854 49.0417 11.6823 48.7656 11.9844C48.4948 12.2865 48.2083 12.4375 47.9062 12.4375C47.6042 12.4375 47.4531 12.2812 47.4531 11.9688C47.4531 11.651 47.5859 11.3516 47.8516 11.0703C48.1224 10.7839 48.4167 10.6406 48.7344 10.6406C48.8698 10.6406 48.9766 10.6797 49.0547 10.7578C49.138 10.8359 49.1797 10.9479 49.1797 11.0938Z" fill="white"/>
</svg>
