<svg xmlns="http://www.w3.org/2000/svg" width="338" height="122" fill="none">
  <g fill="#000" clip-path="url(#a)">
    <path d="M221.15 78.23c-.58.58-1 1.09-1.51 1.49-1.25.96-2.51 1.94-3.84 2.79-2.14 1.36-4.29 2.74-6.54 3.9-1.85.95-3.86 1.58-5.78 2.39-1.87.78-3.59.42-5.4-.34-1.19-.5-2.18-1.19-2.46-2.35-.39-1.59-1.35-3.09-1.03-4.84.02-.12.03-.25 0-.37-.72-3.18.83-5.75 2.26-8.34.62-1.12 1.32-2.18 1.87-3.41-.7.52-1.42 1.01-2.09 1.58-1.87 1.58-3.76 3.15-5.58 4.8-3.92 3.55-8.2 6.62-12.52 9.64-2.44 1.71-4.99 3.27-7.43 4.99-1.61 1.14-3.24 2.24-4.49 3.88-.64.84-1.93 1.2-2.95 1.71-1.55.78-3.58-.13-4.24-1.66-.25-.58-.59-1.13-.92-1.76.83-.22 1.18-.39.67-1.31-.26-.47.35-1.47.67-2.18.65-1.45 1.34-2.89 2.09-4.29.62-1.15 1.37-2.23 2.06-3.35 1.13-1.81 2.29-3.59 3.37-5.42 1.28-2.15 2.46-4.37 3.76-6.51.82-1.35 1.84-2.59 2.69-3.92.95-1.48 1.78-3.03 2.73-4.52 1.45-2.28 3.06-4.48 4.41-6.82 1.17-2.04 2.41-4.1 2.53-6.56.01-.23-.05-.54-.21-.68-.73-.67-1.49-1.32-2.27-1.92-.48-.37-.82-.1-1.15.35-1.59 2.16-3.17 4.33-4.82 6.44-1.49 1.91-3.09 3.75-4.62 5.64-1.83 2.27-3.63 4.57-5.46 6.83-1.01 1.24-2.06 2.44-3.14 3.7.13.03.26.07.45.12-.33.39-.63.79-.97 1.14-1.81 1.85-3.68 3.65-5.45 5.54-1.11 1.19-2.01 2.59-3.17 3.73-2.08 2.05-4.27 4-6.44 5.96-1.57 1.42-3.16 2.83-4.82 4.15-1.15.91-2.38.59-2.86-.79-.56-1.63-.91-3.34-1.28-5.03-.32-1.46.48-2.69 1.08-3.89 1.6-3.18 3.97-5.84 6.2-8.57 1.6-1.96 3.26-3.88 4.92-5.8 2.45-2.85 4.93-5.68 7.38-8.54.31-.36.55-.8.7-1.33-.35.22-.73.42-1.06.68-2.9 2.23-5.8 4.46-8.69 6.7-.1.08-.26.14-.28.23-.59 2.13-2.84 2.8-3.94 4.44-1.03 1.52-2.53 2.65-3.34 4.37-.41.86-1.29 1.49-1.81 2.31-1.5 2.37-3.82 3.9-5.82 5.74-2.36 2.17-4.97 4.06-7.41 6.15-1.53 1.31-2.97 2.72-4.38 4.16-.71.73-2.59 1.59-3.25 1.06-.71-.57-1.34-1.42-1.63-2.27-.51-1.54-.87-3.16-1.02-4.78-.07-.71.43-1.55.85-2.22.67-1.08 1.47-2.08 2.23-3.09 1.59-2.11 3.16-4.25 4.81-6.31 1.57-1.96 3.23-3.84 4.85-5.76 1.12-1.33 2.2-2.69 3.37-3.97 1.78-1.94 3.55-3.89 5.46-5.7 1.95-1.84 3.98-3.63 6.13-5.23 2.42-1.8 5.01-3.39 7.54-5.04 1.11-.72 2.22-.84 3.42-.06.91.59 1.94 1.02 2.94 1.46 1.36.61 1.74 1.87 2.15 3.11.08.23.13.47.26.9 1.24-.99 2.41-1.88 3.53-2.83.91-.77 2.14-.75 3.15-.1 1.47.93 1.52 2.2 1.16 3.66-.43 1.74-1.59 3.08-2.54 4.53-1.52 2.31-3.08 4.58-4.71 6.81-.87 1.19-1.92 2.26-2.87 3.39-.34.4-.61.85-.81 1.37 7.89-7.91 15.72-15.87 21.58-25.73-1.29-.52-2.47-1.01-3.67-1.49-.69-.27-1.41-.47-2.06-.8-.28-.15-.44-.56-.63-.86-.81-1.32-1.05-2.75-.95-4.22.17-.08.24-.14.27-.13 2.28.9 4.08-.18 5.76-1.48 1.08-.84 2-1.87 3.06-2.74.3-.25.84-.42 1.21-.33 1.26.29 2.5.57 3.58 1.45 1.61 1.31 2.16 2.48 1.51 4.49-.36 1.12-.65 2.27-1.7 3.13-1.12.91-.91 1.73.2 2.64 2.01 1.64 3.86 3.43 4.82 5.93.8 2.07.96 4.29.34 6.35-.72 2.4-1.78 4.73-2.92 6.97-1.38 2.7-3 5.27-4.52 7.9-1.14 1.98-2.25 3.98-3.42 5.95-.76 1.27-1.61 2.48-2.39 3.74-.17.28-.16.68-.32.97-.79 1.46-1.61 2.91-2.41 4.36-.2.37-.38.75-.69 1.36.44-.18.64-.23.79-.34 1.78-1.24 3.57-2.47 5.33-3.74 1.43-1.04 2.86-2.09 4.24-3.19 2.26-1.81 4.49-3.66 6.72-5.51 4.19-3.47 8.3-7.03 12.56-10.39 3.63-2.87 6.95-6.06 10.3-9.24 1.78-1.7 3.77-3.18 5.64-4.79.81-.7 1.7-.26 2.4-.03 1.06.35 2.04 1.03 2.97 1.69.8.57.67 1.18-.03 1.8-1.84 1.62-3.77 3.14-5.2 5.18-1.28 1.83-2.81 3.48-4.05 5.33-2.09 3.12-4.03 6.35-6.06 9.51-1.22 1.91-2.5 3.79-3.72 5.7-.67 1.05-1.27 2.15-1.91 3.23.07.07.14.15.21.22 1.48-.69 2.96-1.37 4.43-2.06 1.06-.49 2.14-.94 3.16-1.51 1.17-.67 2.25-1.5 3.43-2.17 2.77-1.59 5.62-3.04 8.36-4.69 2.73-1.65 5.49-3.31 7.99-5.28 1.48-1.17 2.59-2.86 3.69-4.45.61-.88 1.21-.88 2.02-.59.23.08.46.18.73.29.43-.97.83-1.93 1.29-2.87 1.52-3.11 3.69-5.77 6.09-8.22 2.49-2.55 5.05-5.08 7.8-7.34 2.38-1.95 5.05-3.57 7.66-5.23 1.35-.86 2.91-1.41 4.28-2.25 2-1.23 3.75-.92 5.43.56 1.16 1.03 2.35 2.03 3.47 3.11 1.7 1.63 2.13 3.75 1.64 5.92-.65 2.9-2.31 5.35-4.13 7.67-1.54 1.96-3.07 3.92-4.68 5.82-1.65 1.95-3.33 3.87-5.08 5.73-1.27 1.35-2.7 2.57-4 3.9-.2.2-.22.7-.13 1.01.11.37.42.68.7 1.1.32-.48.6-.93.92-1.36.51-.69.97-1.32 1.99-1.49 2.8-.46 5.57-1.08 8.36-1.64 2.57-.52 5.13-1.04 7.7-1.55.81-.16 1.64-.25 2.65-.41-.78-2.18-1.56-4.17-2.19-6.2-.31-1-.44-2.07-.5-3.12-.27-4.93 1.38-9.2 4.61-12.89 1.46-1.66 3.44-2.28 5.52-2.37 2.42-.11 4.85-.02 7.26.19 1.24.11 2.43.67 3.65.98.59.15 1.23.15 1.81.31.45.12.95.31 1.28.63 1.43 1.41 2.08 3.05 1.82 5.16-.19 1.6-.77 2.89-1.76 4.08-.32.38-.58.82-.92 1.18-.25.26-.59.43-.89.64-.07.05-.21.04-.25.1-1.09 1.74-3 1.66-4.66 2.13-.46.13-.9.33-1.38.39-.39.08-.77.15-1.16.25-.85.2-1.7.42-2.6.51 2.57-2.49 5-5.03 7.23-8.12-1.96-.13-3.69-.34-5.42-.34-1.84 0-3.71.07-5.53.35-2.65.41-4.87 3.26-5.38 6.15-.49 2.8.77 5.09 1.43 7.56.16.6.4 1.17.65 1.9 2.5-.38 4.95-.77 7.41-1.13 2.54-.37 5.07-.8 7.62-1.04 3.31-.32 6.63-.45 9.94-.71 2.76-.21 5.51-.55 8.28-.68 1.86-.09 3.74 0 5.61.14 3.32.25 6.65.5 9.94.97 1.51.22 2.97.89 4.4 1.49.45.19.98.77 1.04 1.22.31 2.56 1.58 4.89 1.69 7.52.07 1.68-1.38 3.68-2.94 3.59-1.09-.06-2.44-.14-3.27-1.22-.1-.13-.07-.34-.16-.48-.43-.63-.63-1.4-1.71-1.42-.96-.02-1.91-.49-2.88-.65-1.75-.3-3.5-.55-5.26-.75-2.81-.32-5.63-.55-8.44-.89-4.16-.5-8.31-.16-12.47-.02-2.04.07-4.08.05-6.12.17-1.43.09-2.84.37-4.27.51-1.79.17-3.58.3-5.38.42-.81.05-.99.42-.8 1.18 1.25 5.11 1.95 10.3 1.98 15.57.02 3.62-1.18 6.78-3.87 9.23-.66.6-1.72.94-2.63 1.02-2.38.21-4.69-.24-6.86-1.32-1.19-.58-2.48-.95-3.63-1.6-3.48-1.95-6.56-4.35-8.58-7.9-.51-.89-1.21-1.69-1.65-2.61-.94-1.99-1.95-3.98-2.6-6.07-.73-2.36-1.22-4.82-.98-7.34.01-.13-.05-.27-.13-.61-.96.8-1.78 1.53-2.64 2.21-2.26 1.8-4.76 3.36-6.73 5.42-2.42 2.52-5.31 4.31-8.05 6.36-2.63 1.96-5.4 3.72-8.49 4.82-2.3.82-5.36-.12-6.59-2.98-.88-2.06-.61-4.22-.76-6.67l.06-.09Zm47.43-35.41-.35-.32c-1.53.91-3.1 1.75-4.56 2.76-1.34.92-2.55 2.04-3.83 3.05-2.69 2.14-5.4 4.27-8.09 6.41-.41.33-.73.76-1.13 1.11-1.79 1.56-3.63 3.07-5.37 4.68-1.39 1.28-2.66 2.68-3.98 4.03-1.1 1.12-1.02 2.59.2 3.59.09.07.16.15.26.25-1.06.54-2.24.54-2.69-.12-.65-.94-1.26-1.93-1.72-2.97-.44-1-.66-2.1-1.01-3.29-.41.65-.8 1.24-1.17 1.84-1.53 2.49-3.08 4.97-4.58 7.48-.65 1.08-1.27 2.2-1.77 3.36-.62 1.44-1.08 2.95-1.66 4.4-.31.78-.72 1.52-1.17 2.43.39-.05.52-.03.62-.08 1.77-.86 3.54-1.69 5.28-2.6.63-.33 1.15-.85 1.74-1.26 2.39-1.67 4.81-3.29 7.19-4.99 1.51-1.08 2.94-2.27 4.42-3.39.98-.75 2.05-1.4 2.98-2.2 1.5-1.29 2.9-2.7 4.37-4.03 1.33-1.2 2.81-2.26 4.03-3.55 2.22-2.35 4.35-4.8 6.42-7.29 1.78-2.13 3.43-4.37 4.6-6.91.36-.77.64-1.58.96-2.37l.01-.02Zm-8.65 31.98c.09.2.13.36.22.48 2.04 2.84 4.45 5.27 7.4 7.2 3.21 2.1 6.82 2.93 10.52 3.48.83.12 1.69.15 2.52.08 1.04-.09 1.65-.78 1.61-1.81-.06-1.74-.12-3.49-.32-5.22-.35-3.02-.82-6.04-1.27-9.29-1.18.28-2.14.57-3.13.74-2.61.45-5.25.73-7.84 1.3-3.28.72-6.68 1.12-9.71 3.05v-.01ZM150.89 57.2c.09-.69.03-1.17.22-1.51.32-.56.83-1.01 1.2-1.54.74-1.07 1.36-2.21 1.5-3.62-2.78 1.07-5.11 2.68-7.12 4.67-1.44 1.43-2.66 3.09-3.89 4.73-.95 1.26-1.64 2.72-2.91 3.74-.33.27-.61.62-.87.97-1.4 1.83-2.78 3.68-4.17 5.52-.21.27-.44.53-.67.79.09.09.18.19.27.28 5.54-4.72 11.08-9.45 16.43-14.02l.01-.01Zm31-23.67c0-1.06-.44-1.65-1.11-1.42-.52.18-1.04.43-1.47.77-1.18.95-2.31 1.98-3.47 2.96-.42.35-.44.63.05.93.75.45 1.49.9 2.22 1.39 1.43.96 1.44.98 2.26-.58.68-1.29 1.47-2.53 1.52-4.05Z"/>
    <path d="M25.14 115.13c-.88.49-1.03 1.67-2.31 1.89-1.49.25-2.89 1-4.46.74-.61-.1-1.2-.29-1.81-.4-.98-.18-1.96-.34-2.94-.48-.13-.02-.33.04-.41.14-.5.61-1.11.4-1.61.14-.94-.5-1.87-1.05-2.73-1.69-2.29-1.69-4.28-3.69-5.44-6.32-.93-2.1-1.63-4.3-2.51-6.42-.8-1.93-.84-3.97-.88-5.97-.06-2.73-.03-5.48.29-8.18.45-3.78 1.47-7.44 3.01-10.95 1.39-3.16 2.63-6.39 4.19-9.46 1.56-3.07 3.31-6.06 5.19-8.95 1.92-2.97 3.96-5.89 6.19-8.64 3.28-4.04 6.67-8.01 10.22-11.82 2.77-2.97 5.84-5.67 8.81-8.46 1.3-1.22 2.64-2.4 4.03-3.5 1.55-1.23 3.18-2.35 4.77-3.52 1.95-1.43 3.86-2.91 5.85-4.28 1.43-.98 2.94-1.83 4.43-2.72 1.37-.83 2.72-1.7 4.14-2.45 2.4-1.27 4.83-2.5 7.28-3.67 3.53-1.68 7.04-3.41 10.65-4.88C84.88 2.93 90.79.98 97.05.25c3.37-.39 6.77-.43 10.03.5 1.47.42 2.85 1.42 4.05 2.42 1.99 1.65 3.7 3.64 4.99 5.89 1.23 2.13 2.32 4.35 2.1 6.96-.08 1.01.17 2.07 0 3.06-.23 1.4-.67 2.77-1.09 4.13-.77 2.53-1.65 5.02-2.95 7.35-.8 1.43-1.37 2.98-2.2 4.39-1.55 2.63-3.2 5.2-4.85 7.78-1.41 2.2-2.87 4.37-4.34 6.54-1.25 1.85-2.51 3.69-3.8 5.52-1.51 2.13-3.03 4.25-4.58 6.34-1.37 1.85-2.78 3.67-4.2 5.48-2.18 2.8-4.39 5.58-6.57 8.38a6.11 6.11 0 0 0-.99 1.84l1.78-1.3c3.95-2.84 7.88-5.7 11.85-8.51 3.67-2.59 7.38-5.12 11.06-7.7 3.42-2.4 6.85-4.77 10.21-7.25 2.33-1.72 4.54-3.59 6.83-5.36.27-.21.76-.35 1.08-.26 1 .29 1.97.71 2.96 1.06 2.09.75 2.78 3.27 1.26 4.86-2.91 3.05-5.9 6.04-8.8 9.1-1.26 1.32-2.4 2.76-3.6 4.14-1.68 1.95-3.43 3.85-5.03 5.87-.82 1.04-1.36 2.29-2.03 3.44-1.34 2.28-2.77 4.51-4.01 6.84-.86 1.61-1.45 3.36-2.18 5.03-.26.59-.55 1.17-.86 1.73-.1.19-.28.38-.46.47-1.1.5-2.1.23-2.91-.63-1.53-1.63-1.81-3.8-2.46-5.78-.24-.73.19-1.78.55-2.58.89-1.98 1.78-3.99 2.93-5.84 1.84-2.96 3.88-5.78 5.83-8.67.23-.34.43-.7.64-1.05l-.24-.21c-.95.75-1.9 1.52-2.87 2.25-.72.54-1.51 1-2.2 1.57-1.34 1.12-2.59 2.33-3.94 3.43-1.11.9-2.33 1.67-3.49 2.51-3.76 2.74-7.51 5.5-11.29 8.21-1.92 1.37-3.84 2.73-6.04 3.67-1.12.48-2.04 1.42-3.08 2.1-1.73 1.13-3.51 2.19-5.24 3.32-.48.32-.99.72-1.27 1.2-.59 1-1.52 1.47-2.49 1.91-1 .46-2.01.9-3.03 1.34-.64.27-2.18-.42-2.44-1.18-.24-.71-.79-.87-1.37-1.1-.45-.18-1.05-.47-1.18-.85-.1-.28.45-.78.7-1.19.45-.72.89-1.45 1.33-2.17 1.26-2.1 2.42-4.27 3.8-6.29 1.88-2.75 3.89-5.4 5.9-8.05 1.9-2.5 3.9-4.92 5.82-7.41 2.73-3.52 5.43-7.07 8.13-10.61 3.02-3.97 6.05-7.93 9-11.95 4.28-5.83 8.48-11.72 12.72-17.57 2.55-3.52 4.73-7.26 6.52-11.22.49-1.08.87-2.21 1.25-3.33.35-1.02.14-1.53-.95-1.81-1.55-.4-3.14-.83-4.72-.88-1.75-.05-3.54.2-5.28.51-4.19.75-8.36 1.61-12.54 2.45-.36.07-.69.27-1.04.4-2.94 1.17-5.94 2.22-8.81 3.54-2.67 1.23-5.22 2.74-7.81 4.13-1.45.78-2.88 1.6-4.34 2.36-1.34.7-2.71 1.33-4.06 2-.08.04-.19.07-.25.13-.98 1.28-2.62 1.53-3.85 2.44-2.08 1.53-4.28 2.88-6.37 4.38-1.93 1.39-3.8 2.87-5.69 4.32-1.69 1.3-3.37 2.62-5.06 3.91-.21.16-.49.22-.62.46-.27.24-.54.48-.81.73s-.53.5-.8.74c-1.15 1.02-2.32 2.02-3.45 3.07-1.63 1.52-3.28 3.03-4.81 4.65-1.32 1.4-2.49 2.95-3.7 4.45-1.58 1.97-3.19 3.92-4.68 5.96-1.57 2.15-3.09 4.35-4.47 6.62-1.65 2.74-3.18 5.55-4.65 8.39-1.31 2.53-2.53 5.11-3.66 7.72-.91 2.1-1.63 4.29-2.45 6.43-.45 1.18-1.11 2.31-1.37 3.53-.51 2.4-1.05 4.83-1.12 7.27-.08 2.87-.05 5.84 1.64 8.4.42.63 1.03 1.16 1.62 1.64 1.3 1.05 2.55 2.23 4 3 2.42 1.29 4.9 2.64 7.84 2.06 1.04-.21 2.05-.54 3.08-.78.63-.15 1.27-.23 1.91-.34.05.14.11.28.16.41l-.04.02Z"/>
    <path d="M221.4 103.48c10.88 1.46 23.91.12 35.51 1 5.39.03 11.76-.56 9.92 6.83.48 3.2-1.54 9.47-5.63 6.65-52.18-9.14-106.69-7.53-159.27-2.43-13.92 2.26-28.82 1.28-42.16 5.62-4.66.52-1.86-13.15.81-13.11 53.93-2.68 115.53-6.03 160.83-4.56h-.01Z"/>
    <path d="M223.02 40.75c.96-1.11 1.89-2.25 2.88-3.33 1.65-1.82 3.48-3.5 4.21-5.99L228.15 34c-.05-.03-.11-.07-.16-.1.33-.59.65-1.19 1.01-1.76 2.88-4.69 5.69-9.43 8.66-14.06 2.85-4.43 5.87-8.74 9.28-12.77.75-.88 1.58-.94 2.57-.88.49.03 1 .06 1.48-.05 2.05-.48 4.23.65 4.73 2.7.16.64-.18 1.56-.58 2.15-1.68 2.47-3.43 4.9-5.24 7.29-1.28 1.69-2.71 3.26-4.05 4.91-.71.87-1.31 1.83-2.03 2.69-.65.78-1.4 1.48-2.09 2.23-.83.91-1.6 1.86-2.44 2.74-1.01 1.07-2.07 2.09-3.11 3.13-.08.08-.24.12-.29.22-.62 1.19-1.66 1.64-2.94 1.71-.24.01-.48.23-.71.37-.15.09-.34.34-.4.31-.61-.33-.95.07-1.26.45-1.2 1.41-3.04 2.08-4.17 3.64-.47.64-1.46.89-2.2 1.35-.33.2-.61.48-.91.72-.09-.08-.18-.15-.26-.23l-.02-.01Z"/>
  </g>
  <defs>
    <clipPath id="a">
      <path fill="#fff" d="M0 0h337.05v121.16H0z"/>
    </clipPath>
  </defs>
</svg>
