<svg width="178" height="47" viewBox="0 0 178 47" fill="none" xmlns="http://www.w3.org/2000/svg">
<rect width="178" height="47" rx="23.5" fill="#252525"/>
<path d="M36.208 26.868H30.808L29.89 30H28.27L32.086 17.4H34.93L38.746 30H37.126L36.208 26.868ZM33.4 18.048L31.222 25.464H35.794L33.616 18.048H33.4ZM47.4995 28.632H47.2835C47.1395 28.908 46.9535 29.148 46.7255 29.352C46.5095 29.556 46.2695 29.724 46.0055 29.856C45.7535 29.988 45.4835 30.084 45.1955 30.144C44.9075 30.216 44.6315 30.252 44.3675 30.252C43.7675 30.252 43.2095 30.15 42.6935 29.946C42.1775 29.742 41.7215 29.448 41.3255 29.064C40.9415 28.68 40.6355 28.206 40.4075 27.642C40.1915 27.066 40.0835 26.412 40.0835 25.68V25.392C40.0835 24.672 40.1975 24.03 40.4255 23.466C40.6535 22.89 40.9595 22.41 41.3435 22.026C41.7275 21.63 42.1775 21.33 42.6935 21.126C43.2095 20.922 43.7555 20.82 44.3315 20.82C44.9435 20.82 45.5135 20.958 46.0415 21.234C46.5815 21.498 46.9955 21.912 47.2835 22.476H47.4995V17.4H48.9035V30H47.4995V28.632ZM44.5115 28.92C44.9315 28.92 45.3215 28.842 45.6815 28.686C46.0415 28.53 46.3535 28.308 46.6175 28.02C46.8935 27.732 47.1095 27.39 47.2655 26.994C47.4215 26.586 47.4995 26.136 47.4995 25.644V25.428C47.4995 24.948 47.4215 24.51 47.2655 24.114C47.1095 23.706 46.8935 23.358 46.6175 23.07C46.3535 22.782 46.0355 22.56 45.6635 22.404C45.3035 22.236 44.9195 22.152 44.5115 22.152C44.0915 22.152 43.6955 22.23 43.3235 22.386C42.9635 22.542 42.6455 22.764 42.3695 23.052C42.1055 23.34 41.8955 23.682 41.7395 24.078C41.5955 24.474 41.5235 24.912 41.5235 25.392V25.68C41.5235 26.184 41.5955 26.634 41.7395 27.03C41.8955 27.426 42.1055 27.768 42.3695 28.056C42.6455 28.332 42.9635 28.548 43.3235 28.704C43.6835 28.848 44.0795 28.92 44.5115 28.92ZM60.033 25.644C60.033 26.388 59.907 27.048 59.655 27.624C59.415 28.188 59.091 28.668 58.683 29.064C58.275 29.448 57.795 29.742 57.243 29.946C56.703 30.15 56.139 30.252 55.551 30.252C54.951 30.252 54.381 30.15 53.841 29.946C53.301 29.742 52.827 29.448 52.419 29.064C52.011 28.668 51.681 28.188 51.429 27.624C51.189 27.048 51.069 26.388 51.069 25.644V25.428C51.069 24.696 51.189 24.048 51.429 23.484C51.681 22.908 52.011 22.422 52.419 22.026C52.839 21.63 53.319 21.33 53.859 21.126C54.399 20.922 54.963 20.82 55.551 20.82C56.139 20.82 56.703 20.922 57.243 21.126C57.783 21.33 58.257 21.63 58.665 22.026C59.085 22.422 59.415 22.908 59.655 23.484C59.907 24.048 60.033 24.696 60.033 25.428V25.644ZM55.551 28.92C55.983 28.92 56.379 28.848 56.739 28.704C57.111 28.548 57.435 28.326 57.711 28.038C57.987 27.75 58.203 27.408 58.359 27.012C58.515 26.604 58.593 26.148 58.593 25.644V25.428C58.593 24.948 58.515 24.51 58.359 24.114C58.203 23.706 57.987 23.358 57.711 23.07C57.435 22.782 57.111 22.56 56.739 22.404C56.367 22.236 55.971 22.152 55.551 22.152C55.131 22.152 54.735 22.236 54.363 22.404C53.991 22.56 53.667 22.782 53.391 23.07C53.115 23.358 52.899 23.706 52.743 24.114C52.587 24.51 52.509 24.948 52.509 25.428V25.644C52.509 26.148 52.587 26.604 52.743 27.012C52.899 27.408 53.115 27.75 53.391 28.038C53.667 28.326 53.985 28.548 54.345 28.704C54.717 28.848 55.119 28.92 55.551 28.92ZM63.7105 30H62.3065V17.4H63.7105V22.476H63.9265C64.2385 21.936 64.6705 21.528 65.2225 21.252C65.7745 20.964 66.3745 20.82 67.0225 20.82C67.5745 20.82 68.0965 20.922 68.5885 21.126C69.0805 21.33 69.5125 21.624 69.8845 22.008C70.2685 22.392 70.5685 22.866 70.7845 23.43C71.0125 23.994 71.1265 24.636 71.1265 25.356V25.716C71.1265 26.448 71.0185 27.096 70.8025 27.66C70.5865 28.224 70.2865 28.698 69.9025 29.082C69.5305 29.466 69.0925 29.76 68.5885 29.964C68.0845 30.156 67.5505 30.252 66.9865 30.252C66.6985 30.252 66.4045 30.216 66.1045 30.144C65.8045 30.084 65.5165 29.988 65.2405 29.856C64.9765 29.712 64.7305 29.544 64.5025 29.352C64.2745 29.148 64.0825 28.908 63.9265 28.632H63.7105V30ZM66.6985 28.92C67.1305 28.92 67.5265 28.848 67.8865 28.704C68.2465 28.548 68.5585 28.332 68.8225 28.056C69.0985 27.78 69.3085 27.444 69.4525 27.048C69.6085 26.652 69.6865 26.208 69.6865 25.716V25.356C69.6865 24.876 69.6085 24.444 69.4525 24.06C69.3085 23.664 69.0985 23.328 68.8225 23.052C68.5585 22.764 68.2405 22.542 67.8685 22.386C67.5085 22.23 67.1185 22.152 66.6985 22.152C66.2785 22.152 65.8885 22.236 65.5285 22.404C65.1685 22.56 64.8505 22.782 64.5745 23.07C64.3105 23.358 64.1005 23.706 63.9445 24.114C63.7885 24.51 63.7105 24.948 63.7105 25.428V25.644C63.7105 26.136 63.7885 26.586 63.9445 26.994C64.1005 27.39 64.3105 27.732 64.5745 28.02C64.8505 28.308 65.1685 28.53 65.5285 28.686C65.8885 28.842 66.2785 28.92 66.6985 28.92ZM74.6779 25.968C74.7139 26.856 74.9899 27.57 75.5059 28.11C76.0219 28.65 76.7419 28.92 77.6659 28.92C78.0859 28.92 78.4519 28.872 78.7639 28.776C79.0759 28.68 79.3399 28.548 79.5559 28.38C79.7839 28.212 79.9639 28.02 80.0959 27.804C80.2399 27.576 80.3539 27.336 80.4379 27.084L81.7699 27.444C81.5179 28.272 81.0499 28.95 80.3659 29.478C79.6939 29.994 78.7819 30.252 77.6299 30.252C76.9939 30.252 76.4059 30.144 75.8659 29.928C75.3379 29.7 74.8819 29.382 74.4979 28.974C74.1139 28.566 73.8139 28.08 73.5979 27.516C73.3819 26.952 73.2739 26.328 73.2739 25.644V25.212C73.2739 24.588 73.3819 24.006 73.5979 23.466C73.8259 22.926 74.1379 22.464 74.5339 22.08C74.9299 21.684 75.3919 21.378 75.9199 21.162C76.4599 20.934 77.0419 20.82 77.6659 20.82C78.3979 20.82 79.0279 20.958 79.5559 21.234C80.0959 21.498 80.5339 21.828 80.8699 22.224C81.2179 22.62 81.4699 23.052 81.6259 23.52C81.7939 23.988 81.8779 24.42 81.8779 24.816V25.968H74.6779ZM77.6659 22.152C77.2699 22.152 76.8979 22.218 76.5499 22.35C76.2139 22.47 75.9139 22.644 75.6499 22.872C75.3979 23.1 75.1879 23.37 75.0199 23.682C74.8639 23.982 74.7619 24.312 74.7139 24.672H80.4739C80.4499 24.288 80.3539 23.94 80.1859 23.628C80.0299 23.316 79.8199 23.052 79.5559 22.836C79.3039 22.62 79.0099 22.452 78.6739 22.332C78.3499 22.212 78.0139 22.152 77.6659 22.152ZM102.607 21.036C102.607 20.628 102.523 20.268 102.355 19.956C102.199 19.644 101.983 19.386 101.707 19.182C101.431 18.978 101.113 18.822 100.753 18.714C100.393 18.606 100.015 18.552 99.6189 18.552C99.2709 18.552 98.9409 18.6 98.6289 18.696C98.3169 18.78 98.0349 18.906 97.7829 19.074C97.5429 19.242 97.3509 19.452 97.2069 19.704C97.0629 19.944 96.9909 20.226 96.9909 20.55V20.658C96.9909 21.006 97.0629 21.306 97.2069 21.558C97.3509 21.798 97.5609 22.008 97.8369 22.188C98.1249 22.356 98.4789 22.5 98.8989 22.62C99.3189 22.728 99.8109 22.824 100.375 22.908C101.695 23.112 102.667 23.502 103.291 24.078C103.915 24.642 104.227 25.404 104.227 26.364V26.58C104.227 27.12 104.131 27.618 103.939 28.074C103.759 28.518 103.483 28.902 103.111 29.226C102.751 29.55 102.301 29.802 101.761 29.982C101.221 30.162 100.597 30.252 99.8889 30.252C99.0849 30.252 98.3709 30.138 97.7469 29.91C97.1349 29.67 96.6189 29.346 96.1989 28.938C95.7909 28.518 95.4789 28.032 95.2629 27.48C95.0469 26.916 94.9389 26.304 94.9389 25.644V25.104H96.4509V25.536C96.4509 26.64 96.7509 27.468 97.3509 28.02C97.9629 28.572 98.8089 28.848 99.8889 28.848C100.825 28.848 101.527 28.644 101.995 28.236C102.475 27.816 102.715 27.264 102.715 26.58V26.472C102.715 25.812 102.469 25.308 101.977 24.96C101.497 24.612 100.711 24.36 99.6189 24.204C98.9829 24.12 98.4069 23.994 97.8909 23.826C97.3869 23.646 96.9549 23.418 96.5949 23.142C96.2349 22.854 95.9589 22.512 95.7669 22.116C95.5749 21.72 95.4789 21.252 95.4789 20.712V20.496C95.4789 20.004 95.5809 19.554 95.7849 19.146C95.9889 18.738 96.2709 18.384 96.6309 18.084C97.0029 17.784 97.4409 17.556 97.9449 17.4C98.4609 17.232 99.0249 17.148 99.6369 17.148C100.345 17.148 100.975 17.25 101.527 17.454C102.091 17.658 102.565 17.934 102.949 18.282C103.333 18.618 103.621 19.02 103.813 19.488C104.017 19.944 104.119 20.424 104.119 20.928V21.684H102.607V21.036ZM113.088 21.072H114.492V30H113.088V28.38H112.872C112.584 28.956 112.206 29.412 111.738 29.748C111.27 30.084 110.676 30.252 109.956 30.252C109.464 30.252 109.008 30.168 108.588 30C108.18 29.844 107.826 29.604 107.526 29.28C107.238 28.956 107.01 28.554 106.842 28.074C106.686 27.594 106.608 27.036 106.608 26.4V21.072H108.012V26.22C108.012 27.156 108.204 27.84 108.588 28.272C108.972 28.704 109.56 28.92 110.352 28.92C111.204 28.92 111.87 28.632 112.35 28.056C112.842 27.468 113.088 26.688 113.088 25.716V21.072ZM120.51 18.408C120.51 18.06 120.63 17.766 120.87 17.526C121.122 17.274 121.422 17.148 121.77 17.148C122.118 17.148 122.412 17.274 122.652 17.526C122.904 17.766 123.03 18.06 123.03 18.408C123.03 18.756 122.904 19.056 122.652 19.308C122.412 19.548 122.118 19.668 121.77 19.668C121.422 19.668 121.122 19.548 120.87 19.308C120.63 19.056 120.51 18.756 120.51 18.408ZM117.954 28.704H121.086V22.368H118.278V21.072H122.49V28.704H125.406V30H117.954V28.704ZM128.453 21.072H131.261V17.4H132.665V21.072H136.121V22.368H132.665V28.164C132.665 28.524 132.827 28.704 133.151 28.704H135.689V30H132.647C132.239 30 131.903 29.868 131.639 29.604C131.387 29.34 131.261 29.004 131.261 28.596V22.368H128.453V21.072ZM140.807 25.968C140.843 26.856 141.119 27.57 141.635 28.11C142.151 28.65 142.871 28.92 143.795 28.92C144.215 28.92 144.581 28.872 144.893 28.776C145.205 28.68 145.469 28.548 145.685 28.38C145.913 28.212 146.093 28.02 146.225 27.804C146.369 27.576 146.483 27.336 146.567 27.084L147.899 27.444C147.647 28.272 147.179 28.95 146.495 29.478C145.823 29.994 144.911 30.252 143.759 30.252C143.123 30.252 142.535 30.144 141.995 29.928C141.467 29.7 141.011 29.382 140.627 28.974C140.243 28.566 139.943 28.08 139.727 27.516C139.511 26.952 139.403 26.328 139.403 25.644V25.212C139.403 24.588 139.511 24.006 139.727 23.466C139.955 22.926 140.267 22.464 140.663 22.08C141.059 21.684 141.521 21.378 142.049 21.162C142.589 20.934 143.171 20.82 143.795 20.82C144.527 20.82 145.157 20.958 145.685 21.234C146.225 21.498 146.663 21.828 146.999 22.224C147.347 22.62 147.599 23.052 147.755 23.52C147.923 23.988 148.007 24.42 148.007 24.816V25.968H140.807ZM143.795 22.152C143.399 22.152 143.027 22.218 142.679 22.35C142.343 22.47 142.043 22.644 141.779 22.872C141.527 23.1 141.317 23.37 141.149 23.682C140.993 23.982 140.891 24.312 140.843 24.672H146.603C146.579 24.288 146.483 23.94 146.315 23.628C146.159 23.316 145.949 23.052 145.685 22.836C145.433 22.62 145.139 22.452 144.803 22.332C144.479 22.212 144.143 22.152 143.795 22.152Z" fill="white"/>
</svg>
