<svg width="165" height="50" viewBox="0 0 165 50" fill="none" xmlns="http://www.w3.org/2000/svg">
<rect width="165" height="50" rx="25" fill="#191919"/>
<path d="M32.16 31H30L35.382 18.94H38.118L43.5 31H41.304L39.918 27.868H33.546L32.16 31ZM35.958 22.45L34.32 26.122H39.144L37.506 22.45L36.804 20.74H36.66L35.958 22.45ZM48.342 31.18C45.516 31.18 43.95 29.29 43.95 26.536C43.95 23.746 45.498 21.874 48.216 21.874C50.34 21.874 51.546 22.972 51.906 24.484H52.014V18.94H53.958V31H52.176V28.426H52.05C51.672 30.208 50.358 31.18 48.342 31.18ZM45.912 26.536C45.912 28.678 47.01 29.398 48.936 29.398C50.844 29.398 52.014 28.498 52.014 26.626V26.482C52.014 24.574 50.898 23.638 48.9 23.638C47.028 23.638 45.912 24.376 45.912 26.536ZM60.3275 31.18C57.3575 31.18 55.3595 29.29 55.3595 26.536C55.3595 23.746 57.3575 21.874 60.3275 21.874C63.3155 21.874 65.3135 23.746 65.3135 26.536C65.3135 29.29 63.3155 31.18 60.3275 31.18ZM60.3275 29.452C62.5055 29.452 63.4055 28.426 63.4055 26.536C63.4055 24.628 62.5055 23.584 60.3275 23.584C58.1675 23.584 57.2675 24.628 57.2675 26.536C57.2675 28.426 58.1675 29.452 60.3275 29.452ZM68.5062 31H66.7242V18.94H68.6682V24.484H68.7762C69.1362 22.972 70.3242 21.874 72.4662 21.874C75.2202 21.874 76.7322 23.746 76.7322 26.536C76.7322 29.29 75.2022 31.18 72.3582 31.18C70.3242 31.18 69.0102 30.208 68.6322 28.426H68.5062V31ZM68.6682 26.626C68.6682 28.498 69.8202 29.398 71.7462 29.398C73.7082 29.398 74.7882 28.678 74.7882 26.536C74.7882 24.376 73.6902 23.638 71.7822 23.638C69.7662 23.638 68.6682 24.574 68.6682 26.482V26.626ZM82.5797 31.18C79.6457 31.18 77.7197 29.524 77.7197 26.536C77.7197 23.746 79.6277 21.874 82.5437 21.874C85.3157 21.874 87.2057 23.404 87.2057 26.122C87.2057 26.446 87.1877 26.698 87.1337 26.968H79.5377C79.6097 28.696 80.4557 29.614 82.5257 29.614C84.3977 29.614 85.1717 29.002 85.1717 27.94V27.796H87.1157V27.958C87.1157 29.866 85.2437 31.18 82.5797 31.18ZM82.5077 23.404C80.5277 23.404 79.6637 24.286 79.5557 25.888H85.3697V25.852C85.3697 24.196 84.4157 23.404 82.5077 23.404ZM96.7959 31.18C93.1959 31.18 91.3599 29.596 91.3599 27.058V26.95H93.3039V27.238C93.3039 28.678 94.1499 29.398 96.7959 29.398C99.0999 29.398 99.9099 28.894 99.9099 27.76C99.9099 26.716 99.2979 26.32 97.7679 26.032L94.8159 25.546C92.7819 25.186 91.3419 24.25 91.3419 22.27C91.3419 20.524 92.7819 18.76 96.5259 18.76C100.054 18.76 101.656 20.524 101.656 22.882V22.99H99.7299V22.756C99.7299 21.28 98.8479 20.542 96.3459 20.542C94.1499 20.542 93.2859 21.082 93.2859 22.162C93.2859 23.206 93.8979 23.548 95.3199 23.854L98.2539 24.358C100.666 24.79 101.854 25.888 101.854 27.652C101.854 29.488 100.36 31.18 96.7959 31.18ZM106.96 31.18C104.44 31.18 103.216 29.506 103.216 27.436V22.054H105.142V26.914C105.142 28.588 105.916 29.434 107.806 29.434C109.786 29.434 110.704 28.426 110.704 26.482V22.054H112.63V31H110.848V28.228H110.74C110.452 29.74 109.264 31.18 106.96 31.18ZM116.34 21.01H114.396V18.94H116.34V21.01ZM116.34 31H114.396V22.054H116.34V31ZM124.008 31H121.956C120.03 31 118.842 30.154 118.842 27.976V23.674H117.33V22.054H118.842V20.092H120.768V22.054H124.008V23.674H120.768V27.868C120.768 28.966 121.272 29.254 122.388 29.254H124.008V31ZM129.724 31.18C126.79 31.18 124.864 29.524 124.864 26.536C124.864 23.746 126.772 21.874 129.688 21.874C132.46 21.874 134.35 23.404 134.35 26.122C134.35 26.446 134.332 26.698 134.278 26.968H126.682C126.754 28.696 127.6 29.614 129.67 29.614C131.542 29.614 132.316 29.002 132.316 27.94V27.796H134.26V27.958C134.26 29.866 132.388 31.18 129.724 31.18ZM129.652 23.404C127.672 23.404 126.808 24.286 126.7 25.888H132.514V25.852C132.514 24.196 131.56 23.404 129.652 23.404Z" fill="#F1F1F1"/>
</svg>
