<svg width="159" height="50" viewBox="0 0 159 50" fill="none" xmlns="http://www.w3.org/2000/svg">
<rect width="159" height="50" rx="25" fill="#191919"/>
<path d="M32.16 31H30L35.382 18.94H38.118L43.5 31H41.304L39.918 27.868H33.546L32.16 31ZM35.958 22.45L34.32 26.122H39.144L37.506 22.45L36.804 20.74H36.66L35.958 22.45ZM46.344 31H44.4V22.054H46.182V24.826H46.308C46.578 23.314 47.766 21.874 50.034 21.874C52.518 21.874 53.742 23.548 53.742 25.618V31H51.798V26.14C51.798 24.466 51.042 23.62 49.188 23.62C47.226 23.62 46.344 24.628 46.344 26.572V31ZM57.4182 21.01H55.4742V18.94H57.4182V21.01ZM57.4182 31H55.4742V22.054H57.4182V31ZM61.1624 31H59.2184V22.054H61.0004V24.754H61.1084C61.3424 23.26 62.3144 21.874 64.5464 21.874C66.5804 21.874 67.6784 23.116 67.9304 24.826H68.0384C68.2724 23.296 69.2804 21.874 71.5484 21.874C73.8704 21.874 75.0404 23.458 75.0404 25.618V31H73.1144V26.14C73.1144 24.376 72.4124 23.62 70.6844 23.62C68.7764 23.62 68.0924 24.592 68.0924 26.572V31H66.1664V26.14C66.1664 24.376 65.4824 23.62 63.7544 23.62C61.8284 23.62 61.1624 24.592 61.1624 26.572V31ZM79.4069 31.18C77.5529 31.18 76.3829 30.316 76.3829 28.84C76.3829 27.454 77.4989 26.734 79.2629 26.536L83.3309 26.104V25.582C83.3309 24.106 82.6829 23.584 80.9729 23.584C79.3169 23.584 78.5069 24.124 78.5069 25.438V25.51H76.5809V25.438C76.5809 23.404 78.2729 21.874 81.1169 21.874C83.9609 21.874 85.2389 23.422 85.2389 25.564V31H83.4569V28.768H83.3309C82.8629 30.28 81.4409 31.18 79.4069 31.18ZM78.3269 28.714C78.3269 29.434 78.8129 29.776 79.9289 29.776C81.9629 29.776 83.3309 29.02 83.3309 27.256L79.8209 27.652C78.8129 27.778 78.3269 28.012 78.3269 28.714ZM92.8422 31H90.7902C88.8642 31 87.6762 30.154 87.6762 27.976V23.674H86.1642V22.054H87.6762V20.092H89.6022V22.054H92.8422V23.674H89.6022V27.868C89.6022 28.966 90.1062 29.254 91.2222 29.254H92.8422V31ZM96.0022 21.01H94.0582V18.94H96.0022V21.01ZM96.0022 31H94.0582V22.054H96.0022V31ZM102.374 31.18C99.4043 31.18 97.4063 29.29 97.4063 26.536C97.4063 23.746 99.4043 21.874 102.374 21.874C105.362 21.874 107.36 23.746 107.36 26.536C107.36 29.29 105.362 31.18 102.374 31.18ZM102.374 29.452C104.552 29.452 105.452 28.426 105.452 26.536C105.452 24.628 104.552 23.584 102.374 23.584C100.214 23.584 99.3143 24.628 99.3143 26.536C99.3143 28.426 100.214 29.452 102.374 29.452ZM110.715 31H108.771V22.054H110.553V24.826H110.679C110.949 23.314 112.137 21.874 114.405 21.874C116.889 21.874 118.113 23.548 118.113 25.618V31H116.169V26.14C116.169 24.466 115.413 23.62 113.559 23.62C111.597 23.62 110.715 24.628 110.715 26.572V31ZM124.075 31.18C121.195 31.18 119.557 30.046 119.557 27.976V27.922H121.501V28.066C121.501 29.236 122.203 29.614 124.075 29.614C125.821 29.614 126.343 29.254 126.343 28.462C126.343 27.724 125.911 27.49 124.633 27.31L122.185 26.986C120.493 26.77 119.467 26.05 119.467 24.556C119.467 22.99 120.889 21.874 123.643 21.874C126.379 21.874 128.035 22.972 128.035 25.096V25.15H126.109V25.042C126.109 23.98 125.569 23.422 123.589 23.422C121.951 23.422 121.375 23.782 121.375 24.628C121.375 25.33 121.735 25.582 123.085 25.762L125.155 26.05C127.279 26.32 128.251 27.04 128.251 28.516C128.251 30.19 126.595 31.18 124.075 31.18Z" fill="#F1F1F1"/>
</svg>
