<svg width="167" height="47" viewBox="0 0 167 47" fill="none" xmlns="http://www.w3.org/2000/svg">
<rect width="167" height="47" rx="23.5" fill="#252525"/>
<path d="M36.208 26.868H30.808L29.89 30H28.27L32.086 17.4H34.93L38.746 30H37.126L36.208 26.868ZM33.4 18.048L31.222 25.464H35.794L33.616 18.048H33.4ZM41.9915 30H40.5875V21.072H41.9915V22.584H42.2075C42.7595 21.408 43.7195 20.82 45.0875 20.82C46.1195 20.82 46.9415 21.144 47.5535 21.792C48.1655 22.428 48.4715 23.388 48.4715 24.672V30H47.0675V24.96C47.0675 24.024 46.8575 23.322 46.4375 22.854C46.0175 22.386 45.4475 22.152 44.7275 22.152C43.8755 22.152 43.2035 22.446 42.7115 23.034C42.2315 23.61 41.9915 24.384 41.9915 25.356V30ZM54.381 18.408C54.381 18.06 54.501 17.766 54.741 17.526C54.993 17.274 55.293 17.148 55.641 17.148C55.989 17.148 56.283 17.274 56.523 17.526C56.775 17.766 56.901 18.06 56.901 18.408C56.901 18.756 56.775 19.056 56.523 19.308C56.283 19.548 55.989 19.668 55.641 19.668C55.293 19.668 54.993 19.548 54.741 19.308C54.501 19.056 54.381 18.756 54.381 18.408ZM51.825 28.704H54.957V22.368H52.149V21.072H56.361V28.704H59.277V30H51.825V28.704ZM71.2165 30H69.8125V23.592C69.8125 23.172 69.7165 22.83 69.5245 22.566C69.3325 22.29 69.0265 22.152 68.6065 22.152C68.2105 22.152 67.8865 22.302 67.6345 22.602C67.3945 22.89 67.2745 23.34 67.2745 23.952V30H65.8705V23.52C65.8705 23.124 65.7625 22.8 65.5465 22.548C65.3305 22.284 65.0425 22.152 64.6825 22.152C64.2505 22.152 63.9145 22.308 63.6745 22.62C63.4465 22.932 63.3325 23.34 63.3325 23.844V30H61.9285V21.072H63.3325V22.044H63.5485C63.7045 21.624 63.9325 21.318 64.2325 21.126C64.5325 20.922 64.8865 20.82 65.2945 20.82C65.7265 20.82 66.0805 20.934 66.3565 21.162C66.6445 21.39 66.8425 21.684 66.9505 22.044H67.1665C67.5745 21.228 68.2225 20.82 69.1105 20.82C69.7825 20.82 70.2985 21.036 70.6585 21.468C71.0305 21.888 71.2165 22.44 71.2165 23.124V30ZM80.1319 28.488H79.9159C79.6279 29.088 79.2259 29.532 78.7099 29.82C78.2059 30.108 77.6719 30.252 77.1079 30.252C76.5199 30.252 75.9739 30.156 75.4699 29.964C74.9659 29.76 74.5219 29.466 74.1379 29.082C73.7659 28.686 73.4719 28.206 73.2559 27.642C73.0399 27.078 72.9319 26.424 72.9319 25.68V25.392C72.9319 24.66 73.0399 24.012 73.2559 23.448C73.4719 22.884 73.7659 22.41 74.1379 22.026C74.5219 21.63 74.9659 21.33 75.4699 21.126C75.9739 20.922 76.5079 20.82 77.0719 20.82C77.6839 20.82 78.2359 20.958 78.7279 21.234C79.2319 21.498 79.6279 21.912 79.9159 22.476H80.1319V21.072H81.5359V28.164C81.5359 28.524 81.6979 28.704 82.0219 28.704H82.4719V30H81.5179C81.1099 30 80.7739 29.868 80.5099 29.604C80.2579 29.34 80.1319 29.004 80.1319 28.596V28.488ZM77.2519 28.92C77.6719 28.92 78.0559 28.842 78.4039 28.686C78.7639 28.53 79.0699 28.308 79.3219 28.02C79.5739 27.732 79.7719 27.39 79.9159 26.994C80.0599 26.586 80.1319 26.136 80.1319 25.644V25.428C80.1319 24.948 80.0599 24.51 79.9159 24.114C79.7719 23.706 79.5679 23.358 79.3039 23.07C79.0519 22.782 78.7459 22.56 78.3859 22.404C78.0379 22.236 77.6599 22.152 77.2519 22.152C76.8319 22.152 76.4479 22.23 76.0999 22.386C75.7519 22.542 75.4459 22.764 75.1819 23.052C74.9299 23.328 74.7319 23.67 74.5879 24.078C74.4439 24.474 74.3719 24.912 74.3719 25.392V25.68C74.3719 26.7 74.6359 27.498 75.1639 28.074C75.7039 28.638 76.3999 28.92 77.2519 28.92ZM84.3674 21.072H87.1754V17.4H88.5794V21.072H92.0354V22.368H88.5794V28.164C88.5794 28.524 88.7414 28.704 89.0654 28.704H91.6034V30H88.5614C88.1534 30 87.8174 29.868 87.5534 29.604C87.3014 29.34 87.1754 29.004 87.1754 28.596V22.368H84.3674V21.072ZM98.4669 18.408C98.4669 18.06 98.5869 17.766 98.8269 17.526C99.0789 17.274 99.3789 17.148 99.7269 17.148C100.075 17.148 100.369 17.274 100.609 17.526C100.861 17.766 100.987 18.06 100.987 18.408C100.987 18.756 100.861 19.056 100.609 19.308C100.369 19.548 100.075 19.668 99.7269 19.668C99.3789 19.668 99.0789 19.548 98.8269 19.308C98.5869 19.056 98.4669 18.756 98.4669 18.408ZM95.9109 28.704H99.0429V22.368H96.2349V21.072H100.447V28.704H103.363V30H95.9109V28.704ZM115.14 25.644C115.14 26.388 115.014 27.048 114.762 27.624C114.522 28.188 114.198 28.668 113.79 29.064C113.382 29.448 112.902 29.742 112.35 29.946C111.81 30.15 111.246 30.252 110.658 30.252C110.058 30.252 109.488 30.15 108.948 29.946C108.408 29.742 107.934 29.448 107.526 29.064C107.118 28.668 106.788 28.188 106.536 27.624C106.296 27.048 106.176 26.388 106.176 25.644V25.428C106.176 24.696 106.296 24.048 106.536 23.484C106.788 22.908 107.118 22.422 107.526 22.026C107.946 21.63 108.426 21.33 108.966 21.126C109.506 20.922 110.07 20.82 110.658 20.82C111.246 20.82 111.81 20.922 112.35 21.126C112.89 21.33 113.364 21.63 113.772 22.026C114.192 22.422 114.522 22.908 114.762 23.484C115.014 24.048 115.14 24.696 115.14 25.428V25.644ZM110.658 28.92C111.09 28.92 111.486 28.848 111.846 28.704C112.218 28.548 112.542 28.326 112.818 28.038C113.094 27.75 113.31 27.408 113.466 27.012C113.622 26.604 113.7 26.148 113.7 25.644V25.428C113.7 24.948 113.622 24.51 113.466 24.114C113.31 23.706 113.094 23.358 112.818 23.07C112.542 22.782 112.218 22.56 111.846 22.404C111.474 22.236 111.078 22.152 110.658 22.152C110.238 22.152 109.842 22.236 109.47 22.404C109.098 22.56 108.774 22.782 108.498 23.07C108.222 23.358 108.006 23.706 107.85 24.114C107.694 24.51 107.616 24.948 107.616 25.428V25.644C107.616 26.148 107.694 26.604 107.85 27.012C108.006 27.408 108.222 27.75 108.498 28.038C108.774 28.326 109.092 28.548 109.452 28.704C109.824 28.848 110.226 28.92 110.658 28.92ZM119.142 30H117.738V21.072H119.142V22.584H119.358C119.91 21.408 120.87 20.82 122.238 20.82C123.27 20.82 124.092 21.144 124.704 21.792C125.316 22.428 125.622 23.388 125.622 24.672V30H124.218V24.96C124.218 24.024 124.008 23.322 123.588 22.854C123.168 22.386 122.598 22.152 121.878 22.152C121.026 22.152 120.354 22.446 119.862 23.034C119.382 23.61 119.142 24.384 119.142 25.356V30ZM130.613 23.376C130.613 23.808 130.793 24.138 131.153 24.366C131.525 24.594 132.197 24.744 133.169 24.816C134.213 24.9 135.005 25.152 135.545 25.572C136.097 25.98 136.373 26.58 136.373 27.372V27.48C136.373 27.912 136.283 28.302 136.103 28.65C135.935 28.986 135.695 29.274 135.383 29.514C135.083 29.754 134.711 29.934 134.267 30.054C133.835 30.186 133.361 30.252 132.845 30.252C132.149 30.252 131.549 30.162 131.045 29.982C130.553 29.79 130.139 29.544 129.803 29.244C129.479 28.932 129.233 28.584 129.065 28.2C128.897 27.804 128.801 27.408 128.777 27.012L130.109 26.688C130.169 27.372 130.433 27.924 130.901 28.344C131.369 28.752 131.993 28.956 132.773 28.956C133.433 28.956 133.961 28.83 134.357 28.578C134.765 28.314 134.969 27.948 134.969 27.48C134.969 26.976 134.771 26.616 134.375 26.4C133.979 26.184 133.337 26.046 132.449 25.986C131.417 25.914 130.625 25.674 130.073 25.266C129.521 24.858 129.245 24.264 129.245 23.484V23.376C129.245 22.956 129.335 22.59 129.515 22.278C129.695 21.954 129.935 21.684 130.235 21.468C130.547 21.252 130.895 21.09 131.279 20.982C131.663 20.874 132.065 20.82 132.485 20.82C133.073 20.82 133.589 20.904 134.033 21.072C134.477 21.228 134.849 21.438 135.149 21.702C135.449 21.954 135.677 22.248 135.833 22.584C136.001 22.92 136.109 23.256 136.157 23.592L134.825 23.916C134.765 23.34 134.531 22.89 134.123 22.566C133.727 22.242 133.205 22.08 132.557 22.08C132.305 22.08 132.059 22.11 131.819 22.17C131.591 22.218 131.387 22.296 131.207 22.404C131.027 22.512 130.883 22.65 130.775 22.818C130.667 22.974 130.613 23.16 130.613 23.376Z" fill="white"/>
</svg>
