<svg width="90" height="47" viewBox="0 0 90 47" fill="none" xmlns="http://www.w3.org/2000/svg">
<rect width="90" height="47" rx="23.5" fill="#252525"/>
<path d="M36.208 26.868H30.808L29.89 30H28.27L32.086 17.4H34.93L38.746 30H37.126L36.208 26.868ZM33.4 18.048L31.222 25.464H35.794L33.616 18.048H33.4ZM42.0635 24.816V30H40.5515V17.4H45.0515C45.6995 17.4 46.2635 17.496 46.7435 17.688C47.2235 17.868 47.6195 18.114 47.9315 18.426C48.2555 18.738 48.4955 19.104 48.6515 19.524C48.8195 19.932 48.9035 20.364 48.9035 20.82V21.36C48.9035 21.816 48.8195 22.254 48.6515 22.674C48.4955 23.094 48.2555 23.466 47.9315 23.79C47.6075 24.102 47.2055 24.354 46.7255 24.546C46.2455 24.726 45.6875 24.816 45.0515 24.816H42.0635ZM42.0635 23.412H44.8715C46.5515 23.412 47.3915 22.692 47.3915 21.252V20.928C47.3915 20.292 47.1815 19.782 46.7615 19.398C46.3535 19.002 45.7235 18.804 44.8715 18.804H42.0635V23.412ZM51.555 17.4H59.547V18.804H56.307V28.596H59.547V30H51.555V28.596H54.795V18.804H51.555V17.4Z" fill="white"/>
</svg>
