<svg width="89" height="50" viewBox="0 0 89 50" fill="none" xmlns="http://www.w3.org/2000/svg">
<rect width="89" height="50" rx="25" fill="#191919"/>
<path d="M32.16 31H30L35.382 18.94H38.118L43.5 31H41.304L39.918 27.868H33.546L32.16 31ZM35.958 22.45L34.32 26.122H39.144L37.506 22.45L36.804 20.74H36.66L35.958 22.45ZM46.344 31H44.4V18.94H50.304C52.986 18.94 54.822 20.47 54.822 23.152C54.822 25.816 52.986 27.364 50.304 27.364H46.344V31ZM50.124 20.686H46.344V25.618H50.124C51.942 25.618 52.878 24.934 52.878 23.152C52.878 21.37 51.942 20.686 50.124 20.686ZM57.928 31H55.984V18.94H57.928V31Z" fill="#F1F1F1"/>
</svg>
