<svg width="97" height="50" viewBox="0 0 97 50" fill="none" xmlns="http://www.w3.org/2000/svg">
<rect width="97" height="50" rx="25" fill="#191919"/>
<path d="M36.768 31.18C33.024 31.18 30.54 28.732 30.54 24.97C30.54 21.208 33.024 18.76 36.768 18.76C40.17 18.76 42.546 20.56 42.546 23.44V23.692H40.404V23.44C40.404 21.604 39.234 20.614 36.786 20.614C33.96 20.614 32.592 21.964 32.592 24.97C32.592 27.976 33.96 29.308 36.786 29.308C39.234 29.308 40.404 28.336 40.404 26.482V26.248H42.546V26.482C42.546 29.38 40.188 31.18 36.768 31.18ZM49.0361 31.18C45.4361 31.18 43.6001 29.596 43.6001 27.058V26.95H45.5441V27.238C45.5441 28.678 46.3901 29.398 49.0361 29.398C51.3401 29.398 52.1501 28.894 52.1501 27.76C52.1501 26.716 51.5381 26.32 50.0081 26.032L47.0561 25.546C45.0221 25.186 43.5821 24.25 43.5821 22.27C43.5821 20.524 45.0221 18.76 48.7661 18.76C52.2941 18.76 53.8961 20.524 53.8961 22.882V22.99H51.9701V22.756C51.9701 21.28 51.0881 20.542 48.5861 20.542C46.3901 20.542 45.5261 21.082 45.5261 22.162C45.5261 23.206 46.1381 23.548 47.5601 23.854L50.4941 24.358C52.9061 24.79 54.0941 25.888 54.0941 27.652C54.0941 29.488 52.6001 31.18 49.0361 31.18ZM60.5322 31.18C56.9322 31.18 55.0962 29.596 55.0962 27.058V26.95H57.0402V27.238C57.0402 28.678 57.8862 29.398 60.5322 29.398C62.8362 29.398 63.6462 28.894 63.6462 27.76C63.6462 26.716 63.0342 26.32 61.5042 26.032L58.5522 25.546C56.5182 25.186 55.0782 24.25 55.0782 22.27C55.0782 20.524 56.5182 18.76 60.2622 18.76C63.7902 18.76 65.3922 20.524 65.3922 22.882V22.99H63.4662V22.756C63.4662 21.28 62.5842 20.542 60.0822 20.542C57.8862 20.542 57.0222 21.082 57.0222 22.162C57.0222 23.206 57.6342 23.548 59.0562 23.854L61.9902 24.358C64.4022 24.79 65.5902 25.888 65.5902 27.652C65.5902 29.488 64.0962 31.18 60.5322 31.18Z" fill="#F1F1F1"/>
</svg>
