<svg width="90" height="47" viewBox="0 0 90 47" fill="none" xmlns="http://www.w3.org/2000/svg">
<rect width="90" height="47" rx="23.5" fill="#252525"/>
<path d="M33.58 28.848C34.096 28.848 34.534 28.764 34.894 28.596C35.266 28.416 35.566 28.182 35.794 27.894C36.034 27.594 36.208 27.258 36.316 26.886C36.436 26.502 36.496 26.1 36.496 25.68V25.464H38.008V25.68C38.008 26.316 37.912 26.916 37.72 27.48C37.528 28.032 37.246 28.518 36.874 28.938C36.502 29.346 36.04 29.67 35.488 29.91C34.936 30.138 34.3 30.252 33.58 30.252C32.188 30.252 31.102 29.814 30.322 28.938C29.542 28.062 29.152 26.784 29.152 25.104V22.296C29.152 20.664 29.542 19.398 30.322 18.498C31.102 17.598 32.188 17.148 33.58 17.148C34.3 17.148 34.936 17.268 35.488 17.508C36.04 17.736 36.502 18.06 36.874 18.48C37.246 18.888 37.528 19.374 37.72 19.938C37.912 20.49 38.008 21.084 38.008 21.72V21.936H36.496V21.72C36.484 21.312 36.418 20.916 36.298 20.532C36.19 20.148 36.016 19.812 35.776 19.524C35.548 19.224 35.254 18.99 34.894 18.822C34.534 18.642 34.096 18.552 33.58 18.552C32.608 18.552 31.876 18.906 31.384 19.614C30.904 20.322 30.664 21.252 30.664 22.404V24.996C30.664 26.232 30.904 27.186 31.384 27.858C31.876 28.518 32.608 28.848 33.58 28.848ZM47.4995 21.036C47.4995 20.628 47.4155 20.268 47.2475 19.956C47.0915 19.644 46.8755 19.386 46.5995 19.182C46.3235 18.978 46.0055 18.822 45.6455 18.714C45.2855 18.606 44.9075 18.552 44.5115 18.552C44.1635 18.552 43.8335 18.6 43.5215 18.696C43.2095 18.78 42.9275 18.906 42.6755 19.074C42.4355 19.242 42.2435 19.452 42.0995 19.704C41.9555 19.944 41.8835 20.226 41.8835 20.55V20.658C41.8835 21.006 41.9555 21.306 42.0995 21.558C42.2435 21.798 42.4535 22.008 42.7295 22.188C43.0175 22.356 43.3715 22.5 43.7915 22.62C44.2115 22.728 44.7035 22.824 45.2675 22.908C46.5875 23.112 47.5595 23.502 48.1835 24.078C48.8075 24.642 49.1195 25.404 49.1195 26.364V26.58C49.1195 27.12 49.0235 27.618 48.8315 28.074C48.6515 28.518 48.3755 28.902 48.0035 29.226C47.6435 29.55 47.1935 29.802 46.6535 29.982C46.1135 30.162 45.4895 30.252 44.7815 30.252C43.9775 30.252 43.2635 30.138 42.6395 29.91C42.0275 29.67 41.5115 29.346 41.0915 28.938C40.6835 28.518 40.3715 28.032 40.1555 27.48C39.9395 26.916 39.8315 26.304 39.8315 25.644V25.104H41.3435V25.536C41.3435 26.64 41.6435 27.468 42.2435 28.02C42.8555 28.572 43.7015 28.848 44.7815 28.848C45.7175 28.848 46.4195 28.644 46.8875 28.236C47.3675 27.816 47.6075 27.264 47.6075 26.58V26.472C47.6075 25.812 47.3615 25.308 46.8695 24.96C46.3895 24.612 45.6035 24.36 44.5115 24.204C43.8755 24.12 43.2995 23.994 42.7835 23.826C42.2795 23.646 41.8475 23.418 41.4875 23.142C41.1275 22.854 40.8515 22.512 40.6595 22.116C40.4675 21.72 40.3715 21.252 40.3715 20.712V20.496C40.3715 20.004 40.4735 19.554 40.6775 19.146C40.8815 18.738 41.1635 18.384 41.5235 18.084C41.8955 17.784 42.3335 17.556 42.8375 17.4C43.3535 17.232 43.9175 17.148 44.5295 17.148C45.2375 17.148 45.8675 17.25 46.4195 17.454C46.9835 17.658 47.4575 17.934 47.8415 18.282C48.2255 18.618 48.5135 19.02 48.7055 19.488C48.9095 19.944 49.0115 20.424 49.0115 20.928V21.684H47.4995V21.036ZM58.521 21.036C58.521 20.628 58.437 20.268 58.269 19.956C58.113 19.644 57.897 19.386 57.621 19.182C57.345 18.978 57.027 18.822 56.667 18.714C56.307 18.606 55.929 18.552 55.533 18.552C55.185 18.552 54.855 18.6 54.543 18.696C54.231 18.78 53.949 18.906 53.697 19.074C53.457 19.242 53.265 19.452 53.121 19.704C52.977 19.944 52.905 20.226 52.905 20.55V20.658C52.905 21.006 52.977 21.306 53.121 21.558C53.265 21.798 53.475 22.008 53.751 22.188C54.039 22.356 54.393 22.5 54.813 22.62C55.233 22.728 55.725 22.824 56.289 22.908C57.609 23.112 58.581 23.502 59.205 24.078C59.829 24.642 60.141 25.404 60.141 26.364V26.58C60.141 27.12 60.045 27.618 59.853 28.074C59.673 28.518 59.397 28.902 59.025 29.226C58.665 29.55 58.215 29.802 57.675 29.982C57.135 30.162 56.511 30.252 55.803 30.252C54.999 30.252 54.285 30.138 53.661 29.91C53.049 29.67 52.533 29.346 52.113 28.938C51.705 28.518 51.393 28.032 51.177 27.48C50.961 26.916 50.853 26.304 50.853 25.644V25.104H52.365V25.536C52.365 26.64 52.665 27.468 53.265 28.02C53.877 28.572 54.723 28.848 55.803 28.848C56.739 28.848 57.441 28.644 57.909 28.236C58.389 27.816 58.629 27.264 58.629 26.58V26.472C58.629 25.812 58.383 25.308 57.891 24.96C57.411 24.612 56.625 24.36 55.533 24.204C54.897 24.12 54.321 23.994 53.805 23.826C53.301 23.646 52.869 23.418 52.509 23.142C52.149 22.854 51.873 22.512 51.681 22.116C51.489 21.72 51.393 21.252 51.393 20.712V20.496C51.393 20.004 51.495 19.554 51.699 19.146C51.903 18.738 52.185 18.384 52.545 18.084C52.917 17.784 53.355 17.556 53.859 17.4C54.375 17.232 54.939 17.148 55.551 17.148C56.259 17.148 56.889 17.25 57.441 17.454C58.005 17.658 58.479 17.934 58.863 18.282C59.247 18.618 59.535 19.02 59.727 19.488C59.931 19.944 60.033 20.424 60.033 20.928V21.684H58.521V21.036Z" fill="white"/>
</svg>
