<svg width="114" height="50" viewBox="0 0 114 50" fill="none" xmlns="http://www.w3.org/2000/svg">
<rect width="114" height="50" rx="25" fill="#191919"/>
<path d="M32.844 31H30.9V18.94H40.494V20.686H32.844V24.43H40.224V26.158H32.844V31ZM43.8831 21.01H41.9391V18.94H43.8831V21.01ZM43.8831 31H41.9391V22.054H43.8831V31ZM49.5712 30.19C46.9072 30.19 45.3232 28.516 45.3232 26.032C45.3232 23.548 46.9792 21.874 49.6972 21.874C51.5692 21.874 52.9732 22.72 53.2972 24.286H53.4052V22.054H55.1872V29.956C55.1872 32.962 53.3152 34.24 50.3812 34.24C47.7352 34.24 45.8992 32.998 45.8992 30.838H47.8252C47.8252 32.134 48.5812 32.62 50.4892 32.62C52.5232 32.62 53.2612 32.062 53.2612 30.064V27.868H53.1352C52.8112 29.218 51.6052 30.19 49.5712 30.19ZM47.2852 26.032C47.2852 27.868 48.3652 28.516 50.2012 28.516C52.1812 28.516 53.2612 27.688 53.2612 26.104V25.852C53.2612 24.34 52.1452 23.566 50.2552 23.566C48.3832 23.566 47.2852 24.196 47.2852 26.032ZM58.9299 31H56.9859V22.054H58.7679V24.754H58.8759C59.1099 23.26 60.0819 21.874 62.3139 21.874C64.3479 21.874 65.4459 23.116 65.6979 24.826H65.8059C66.0399 23.296 67.0479 21.874 69.3159 21.874C71.6379 21.874 72.8079 23.458 72.8079 25.618V31H70.8819V26.14C70.8819 24.376 70.1799 23.62 68.4519 23.62C66.5439 23.62 65.8599 24.592 65.8599 26.572V31H63.9339V26.14C63.9339 24.376 63.2499 23.62 61.5219 23.62C59.5959 23.62 58.9299 24.592 58.9299 26.572V31ZM77.1745 31.18C75.3205 31.18 74.1505 30.316 74.1505 28.84C74.1505 27.454 75.2665 26.734 77.0305 26.536L81.0985 26.104V25.582C81.0985 24.106 80.4505 23.584 78.7405 23.584C77.0845 23.584 76.2745 24.124 76.2745 25.438V25.51H74.3485V25.438C74.3485 23.404 76.0405 21.874 78.8845 21.874C81.7285 21.874 83.0065 23.422 83.0065 25.564V31H81.2245V28.768H81.0985C80.6305 30.28 79.2085 31.18 77.1745 31.18ZM76.0945 28.714C76.0945 29.434 76.5805 29.776 77.6965 29.776C79.7305 29.776 81.0985 29.02 81.0985 27.256L77.5885 27.652C76.5805 27.778 76.0945 28.012 76.0945 28.714Z" fill="#F1F1F1"/>
</svg>
