<svg width="112" height="47" viewBox="0 0 112 47" fill="none" xmlns="http://www.w3.org/2000/svg">
<rect width="112" height="47" rx="23.5" fill="#252525"/>
<path d="M29.71 17.4H37.45V18.804H31.222V22.98H37.342V24.384H31.222V30H29.71V17.4ZM43.3595 18.408C43.3595 18.06 43.4795 17.766 43.7195 17.526C43.9715 17.274 44.2715 17.148 44.6195 17.148C44.9675 17.148 45.2615 17.274 45.5015 17.526C45.7535 17.766 45.8795 18.06 45.8795 18.408C45.8795 18.756 45.7535 19.056 45.5015 19.308C45.2615 19.548 44.9675 19.668 44.6195 19.668C44.2715 19.668 43.9715 19.548 43.7195 19.308C43.4795 19.056 43.3595 18.756 43.3595 18.408ZM40.8035 28.704H43.9355V22.368H41.1275V21.072H45.3395V28.704H48.2555V30H40.8035V28.704ZM58.395 28.632H58.179C57.891 29.172 57.495 29.58 56.991 29.856C56.499 30.12 55.959 30.252 55.371 30.252C54.771 30.252 54.207 30.15 53.679 29.946C53.151 29.742 52.683 29.448 52.275 29.064C51.879 28.68 51.561 28.206 51.321 27.642C51.093 27.066 50.979 26.412 50.979 25.68V25.392C50.979 24.672 51.099 24.03 51.339 23.466C51.579 22.89 51.897 22.41 52.293 22.026C52.689 21.63 53.151 21.33 53.679 21.126C54.207 20.922 54.759 20.82 55.335 20.82C55.983 20.82 56.547 20.964 57.027 21.252C57.519 21.528 57.903 21.936 58.179 22.476H58.395V21.072H59.799V32.196C59.799 32.604 59.667 32.94 59.403 33.204C59.151 33.468 58.821 33.6 58.413 33.6H52.599V32.304H57.909C58.233 32.304 58.395 32.124 58.395 31.764V28.632ZM55.407 28.92C55.827 28.92 56.217 28.842 56.577 28.686C56.937 28.53 57.249 28.308 57.513 28.02C57.789 27.732 58.005 27.39 58.161 26.994C58.317 26.586 58.395 26.136 58.395 25.644V25.428C58.395 24.948 58.317 24.51 58.161 24.114C58.005 23.706 57.789 23.358 57.513 23.07C57.249 22.782 56.931 22.56 56.559 22.404C56.199 22.236 55.815 22.152 55.407 22.152C54.987 22.152 54.591 22.23 54.219 22.386C53.859 22.542 53.541 22.764 53.265 23.052C53.001 23.34 52.791 23.682 52.635 24.078C52.491 24.474 52.419 24.912 52.419 25.392V25.68C52.419 26.184 52.491 26.634 52.635 27.03C52.791 27.426 53.001 27.768 53.265 28.056C53.541 28.332 53.859 28.548 54.219 28.704C54.579 28.848 54.975 28.92 55.407 28.92ZM71.2165 30H69.8125V23.592C69.8125 23.172 69.7165 22.83 69.5245 22.566C69.3325 22.29 69.0265 22.152 68.6065 22.152C68.2105 22.152 67.8865 22.302 67.6345 22.602C67.3945 22.89 67.2745 23.34 67.2745 23.952V30H65.8705V23.52C65.8705 23.124 65.7625 22.8 65.5465 22.548C65.3305 22.284 65.0425 22.152 64.6825 22.152C64.2505 22.152 63.9145 22.308 63.6745 22.62C63.4465 22.932 63.3325 23.34 63.3325 23.844V30H61.9285V21.072H63.3325V22.044H63.5485C63.7045 21.624 63.9325 21.318 64.2325 21.126C64.5325 20.922 64.8865 20.82 65.2945 20.82C65.7265 20.82 66.0805 20.934 66.3565 21.162C66.6445 21.39 66.8425 21.684 66.9505 22.044H67.1665C67.5745 21.228 68.2225 20.82 69.1105 20.82C69.7825 20.82 70.2985 21.036 70.6585 21.468C71.0305 21.888 71.2165 22.44 71.2165 23.124V30ZM80.1319 28.488H79.9159C79.6279 29.088 79.2259 29.532 78.7099 29.82C78.2059 30.108 77.6719 30.252 77.1079 30.252C76.5199 30.252 75.9739 30.156 75.4699 29.964C74.9659 29.76 74.5219 29.466 74.1379 29.082C73.7659 28.686 73.4719 28.206 73.2559 27.642C73.0399 27.078 72.9319 26.424 72.9319 25.68V25.392C72.9319 24.66 73.0399 24.012 73.2559 23.448C73.4719 22.884 73.7659 22.41 74.1379 22.026C74.5219 21.63 74.9659 21.33 75.4699 21.126C75.9739 20.922 76.5079 20.82 77.0719 20.82C77.6839 20.82 78.2359 20.958 78.7279 21.234C79.2319 21.498 79.6279 21.912 79.9159 22.476H80.1319V21.072H81.5359V28.164C81.5359 28.524 81.6979 28.704 82.0219 28.704H82.4719V30H81.5179C81.1099 30 80.7739 29.868 80.5099 29.604C80.2579 29.34 80.1319 29.004 80.1319 28.596V28.488ZM77.2519 28.92C77.6719 28.92 78.0559 28.842 78.4039 28.686C78.7639 28.53 79.0699 28.308 79.3219 28.02C79.5739 27.732 79.7719 27.39 79.9159 26.994C80.0599 26.586 80.1319 26.136 80.1319 25.644V25.428C80.1319 24.948 80.0599 24.51 79.9159 24.114C79.7719 23.706 79.5679 23.358 79.3039 23.07C79.0519 22.782 78.7459 22.56 78.3859 22.404C78.0379 22.236 77.6599 22.152 77.2519 22.152C76.8319 22.152 76.4479 22.23 76.0999 22.386C75.7519 22.542 75.4459 22.764 75.1819 23.052C74.9299 23.328 74.7319 23.67 74.5879 24.078C74.4439 24.474 74.3719 24.912 74.3719 25.392V25.68C74.3719 26.7 74.6359 27.498 75.1639 28.074C75.7039 28.638 76.3999 28.92 77.2519 28.92Z" fill="white"/>
</svg>
