<svg width="85" height="50" viewBox="0 0 85 50" fill="none" xmlns="http://www.w3.org/2000/svg">
<rect width="85" height="50" rx="25" fill="#191919"/>
<path d="M36.444 31.18C32.898 31.18 30.54 28.732 30.54 24.97C30.54 21.208 33.078 18.76 36.93 18.76C40.35 18.76 42.726 20.488 42.726 23.278V23.422H40.584V23.278C40.584 21.55 39.378 20.614 36.876 20.614C33.978 20.614 32.592 21.964 32.592 24.97C32.592 27.976 33.96 29.308 36.786 29.308C39.666 29.308 40.8 28.516 40.8 26.482V26.32H36.336V24.844H42.726V31H40.962V28.39H40.836C40.332 30.154 38.802 31.18 36.444 31.18ZM46.3088 21.01H44.3648V18.94H46.3088V21.01ZM46.3088 31H44.3648V22.054H46.3088V31ZM53.977 31H51.925C49.999 31 48.811 30.154 48.811 27.976V23.674H47.299V22.054H48.811V20.092H50.737V22.054H53.977V23.674H50.737V27.868C50.737 28.966 51.241 29.254 52.357 29.254H53.977V31Z" fill="#F1F1F1"/>
</svg>
