<svg width="90" height="47" viewBox="0 0 90 47" fill="none" xmlns="http://www.w3.org/2000/svg">
<rect width="90" height="47" rx="23.5" fill="#252525"/>
<path d="M32.302 23.952H37.918V30H36.514V28.488H36.298C36.094 29.016 35.734 29.442 35.218 29.766C34.702 30.09 34.102 30.252 33.418 30.252C32.062 30.252 30.994 29.814 30.214 28.938C29.446 28.062 29.062 26.784 29.062 25.104V22.296C29.062 20.664 29.452 19.398 30.232 18.498C31.012 17.598 32.098 17.148 33.49 17.148C34.21 17.148 34.846 17.268 35.398 17.508C35.95 17.736 36.412 18.06 36.784 18.48C37.156 18.888 37.438 19.374 37.63 19.938C37.822 20.49 37.918 21.084 37.918 21.72V21.936H36.406V21.72C36.406 21.312 36.346 20.916 36.226 20.532C36.118 20.148 35.944 19.812 35.704 19.524C35.476 19.224 35.176 18.99 34.804 18.822C34.444 18.642 34.006 18.552 33.49 18.552C32.518 18.552 31.786 18.906 31.294 19.614C30.814 20.322 30.574 21.252 30.574 22.404V24.996C30.574 26.232 30.814 27.186 31.294 27.858C31.786 28.518 32.53 28.848 33.526 28.848C34.426 28.848 35.128 28.56 35.632 27.984C36.148 27.408 36.406 26.604 36.406 25.572V25.356H32.302V23.952ZM43.3595 18.408C43.3595 18.06 43.4795 17.766 43.7195 17.526C43.9715 17.274 44.2715 17.148 44.6195 17.148C44.9675 17.148 45.2615 17.274 45.5015 17.526C45.7535 17.766 45.8795 18.06 45.8795 18.408C45.8795 18.756 45.7535 19.056 45.5015 19.308C45.2615 19.548 44.9675 19.668 44.6195 19.668C44.2715 19.668 43.9715 19.548 43.7195 19.308C43.4795 19.056 43.3595 18.756 43.3595 18.408ZM40.8035 28.704H43.9355V22.368H41.1275V21.072H45.3395V28.704H48.2555V30H40.8035V28.704ZM51.303 21.072H54.111V17.4H55.515V21.072H58.971V22.368H55.515V28.164C55.515 28.524 55.677 28.704 56.001 28.704H58.539V30H55.497C55.089 30 54.753 29.868 54.489 29.604C54.237 29.34 54.111 29.004 54.111 28.596V22.368H51.303V21.072Z" fill="white"/>
</svg>
