<svg width="167" height="47" viewBox="0 0 167 47" fill="none" xmlns="http://www.w3.org/2000/svg">
<rect width="167" height="47" rx="23.5" fill="#252525"/>
<path d="M37.09 26.22C37.09 27.528 36.766 28.53 36.118 29.226C35.482 29.91 34.546 30.252 33.31 30.252C32.074 30.252 31.096 29.91 30.376 29.226C29.668 28.53 29.314 27.528 29.314 26.22V25.248H30.826V26.22C30.826 27.012 31.03 27.648 31.438 28.128C31.846 28.608 32.47 28.848 33.31 28.848C34.15 28.848 34.738 28.608 35.074 28.128C35.41 27.648 35.578 27.012 35.578 26.22V18.804H34.282V17.4H38.17V18.804H37.09V26.22ZM47.0675 28.488H46.8515C46.5635 29.088 46.1615 29.532 45.6455 29.82C45.1415 30.108 44.6075 30.252 44.0435 30.252C43.4555 30.252 42.9095 30.156 42.4055 29.964C41.9015 29.76 41.4575 29.466 41.0735 29.082C40.7015 28.686 40.4075 28.206 40.1915 27.642C39.9755 27.078 39.8675 26.424 39.8675 25.68V25.392C39.8675 24.66 39.9755 24.012 40.1915 23.448C40.4075 22.884 40.7015 22.41 41.0735 22.026C41.4575 21.63 41.9015 21.33 42.4055 21.126C42.9095 20.922 43.4435 20.82 44.0075 20.82C44.6195 20.82 45.1715 20.958 45.6635 21.234C46.1675 21.498 46.5635 21.912 46.8515 22.476H47.0675V21.072H48.4715V28.164C48.4715 28.524 48.6335 28.704 48.9575 28.704H49.4075V30H48.4535C48.0455 30 47.7095 29.868 47.4455 29.604C47.1935 29.34 47.0675 29.004 47.0675 28.596V28.488ZM44.1875 28.92C44.6075 28.92 44.9915 28.842 45.3395 28.686C45.6995 28.53 46.0055 28.308 46.2575 28.02C46.5095 27.732 46.7075 27.39 46.8515 26.994C46.9955 26.586 47.0675 26.136 47.0675 25.644V25.428C47.0675 24.948 46.9955 24.51 46.8515 24.114C46.7075 23.706 46.5035 23.358 46.2395 23.07C45.9875 22.782 45.6815 22.56 45.3215 22.404C44.9735 22.236 44.5955 22.152 44.1875 22.152C43.7675 22.152 43.3835 22.23 43.0355 22.386C42.6875 22.542 42.3815 22.764 42.1175 23.052C41.8655 23.328 41.6675 23.67 41.5235 24.078C41.3795 24.474 41.3075 24.912 41.3075 25.392V25.68C41.3075 26.7 41.5715 27.498 42.0995 28.074C42.6395 28.638 43.3355 28.92 44.1875 28.92ZM56.919 30H54.147L51.033 21.072H52.689L55.425 29.352H55.641L58.377 21.072H60.033L56.919 30ZM69.1105 28.488H68.8945C68.6065 29.088 68.2045 29.532 67.6885 29.82C67.1845 30.108 66.6505 30.252 66.0865 30.252C65.4985 30.252 64.9525 30.156 64.4485 29.964C63.9445 29.76 63.5005 29.466 63.1165 29.082C62.7445 28.686 62.4505 28.206 62.2345 27.642C62.0185 27.078 61.9105 26.424 61.9105 25.68V25.392C61.9105 24.66 62.0185 24.012 62.2345 23.448C62.4505 22.884 62.7445 22.41 63.1165 22.026C63.5005 21.63 63.9445 21.33 64.4485 21.126C64.9525 20.922 65.4865 20.82 66.0505 20.82C66.6625 20.82 67.2145 20.958 67.7065 21.234C68.2105 21.498 68.6065 21.912 68.8945 22.476H69.1105V21.072H70.5145V28.164C70.5145 28.524 70.6765 28.704 71.0005 28.704H71.4505V30H70.4965C70.0885 30 69.7525 29.868 69.4885 29.604C69.2365 29.34 69.1105 29.004 69.1105 28.596V28.488ZM66.2305 28.92C66.6505 28.92 67.0345 28.842 67.3825 28.686C67.7425 28.53 68.0485 28.308 68.3005 28.02C68.5525 27.732 68.7505 27.39 68.8945 26.994C69.0385 26.586 69.1105 26.136 69.1105 25.644V25.428C69.1105 24.948 69.0385 24.51 68.8945 24.114C68.7505 23.706 68.5465 23.358 68.2825 23.07C68.0305 22.782 67.7245 22.56 67.3645 22.404C67.0165 22.236 66.6385 22.152 66.2305 22.152C65.8105 22.152 65.4265 22.23 65.0785 22.386C64.7305 22.542 64.4245 22.764 64.1605 23.052C63.9085 23.328 63.7105 23.67 63.5665 24.078C63.4225 24.474 63.3505 24.912 63.3505 25.392V25.68C63.3505 26.7 63.6145 27.498 64.1425 28.074C64.6825 28.638 65.3785 28.92 66.2305 28.92ZM80.5639 21.036C80.5639 20.628 80.4799 20.268 80.3119 19.956C80.1559 19.644 79.9399 19.386 79.6639 19.182C79.3879 18.978 79.0699 18.822 78.7099 18.714C78.3499 18.606 77.9719 18.552 77.5759 18.552C77.2279 18.552 76.8979 18.6 76.5859 18.696C76.2739 18.78 75.9919 18.906 75.7399 19.074C75.4999 19.242 75.3079 19.452 75.1639 19.704C75.0199 19.944 74.9479 20.226 74.9479 20.55V20.658C74.9479 21.006 75.0199 21.306 75.1639 21.558C75.3079 21.798 75.5179 22.008 75.7939 22.188C76.0819 22.356 76.4359 22.5 76.8559 22.62C77.2759 22.728 77.7679 22.824 78.3319 22.908C79.6519 23.112 80.6239 23.502 81.2479 24.078C81.8719 24.642 82.1839 25.404 82.1839 26.364V26.58C82.1839 27.12 82.0879 27.618 81.8959 28.074C81.7159 28.518 81.4399 28.902 81.0679 29.226C80.7079 29.55 80.2579 29.802 79.7179 29.982C79.1779 30.162 78.5539 30.252 77.8459 30.252C77.0419 30.252 76.3279 30.138 75.7039 29.91C75.0919 29.67 74.5759 29.346 74.1559 28.938C73.7479 28.518 73.4359 28.032 73.2199 27.48C73.0039 26.916 72.8959 26.304 72.8959 25.644V25.104H74.4079V25.536C74.4079 26.64 74.7079 27.468 75.3079 28.02C75.9199 28.572 76.7659 28.848 77.8459 28.848C78.7819 28.848 79.4839 28.644 79.9519 28.236C80.4319 27.816 80.6719 27.264 80.6719 26.58V26.472C80.6719 25.812 80.4259 25.308 79.9339 24.96C79.4539 24.612 78.6679 24.36 77.5759 24.204C76.9399 24.12 76.3639 23.994 75.8479 23.826C75.3439 23.646 74.9119 23.418 74.5519 23.142C74.1919 22.854 73.9159 22.512 73.7239 22.116C73.5319 21.72 73.4359 21.252 73.4359 20.712V20.496C73.4359 20.004 73.5379 19.554 73.7419 19.146C73.9459 18.738 74.2279 18.384 74.5879 18.084C74.9599 17.784 75.3979 17.556 75.9019 17.4C76.4179 17.232 76.9819 17.148 77.5939 17.148C78.3019 17.148 78.9319 17.25 79.4839 17.454C80.0479 17.658 80.5219 17.934 80.9059 18.282C81.2899 18.618 81.5779 19.02 81.7699 19.488C81.9739 19.944 82.0759 20.424 82.0759 20.928V21.684H80.5639V21.036ZM93.0254 26.832C92.9294 27.324 92.7614 27.78 92.5214 28.2C92.2934 28.62 91.9994 28.986 91.6394 29.298C91.2794 29.598 90.8594 29.832 90.3794 30C89.8994 30.168 89.3654 30.252 88.7774 30.252C88.1534 30.252 87.5594 30.15 86.9954 29.946C86.4434 29.742 85.9574 29.448 85.5374 29.064C85.1174 28.668 84.7814 28.188 84.5294 27.624C84.2894 27.06 84.1694 26.412 84.1694 25.68V25.464C84.1694 24.744 84.2894 24.096 84.5294 23.52C84.7814 22.944 85.1174 22.458 85.5374 22.062C85.9574 21.666 86.4434 21.36 86.9954 21.144C87.5594 20.928 88.1534 20.82 88.7774 20.82C89.3414 20.82 89.8634 20.904 90.3434 21.072C90.8234 21.24 91.2434 21.48 91.6034 21.792C91.9754 22.092 92.2754 22.452 92.5034 22.872C92.7434 23.292 92.9054 23.748 92.9894 24.24L91.5854 24.564C91.5494 24.252 91.4594 23.952 91.3154 23.664C91.1834 23.364 90.9974 23.106 90.7574 22.89C90.5294 22.662 90.2474 22.482 89.9114 22.35C89.5754 22.218 89.1854 22.152 88.7414 22.152C88.3094 22.152 87.9014 22.236 87.5174 22.404C87.1454 22.56 86.8154 22.788 86.5274 23.088C86.2394 23.376 86.0114 23.724 85.8434 24.132C85.6874 24.54 85.6094 24.984 85.6094 25.464V25.68C85.6094 26.184 85.6874 26.64 85.8434 27.048C86.0114 27.444 86.2394 27.78 86.5274 28.056C86.8154 28.332 87.1514 28.548 87.5354 28.704C87.9194 28.848 88.3334 28.92 88.7774 28.92C89.2214 28.92 89.6054 28.854 89.9294 28.722C90.2654 28.578 90.5474 28.398 90.7754 28.182C91.0154 27.954 91.2014 27.696 91.3334 27.408C91.4774 27.12 91.5734 26.82 91.6214 26.508L93.0254 26.832ZM95.1909 21.072H98.4309V22.26H98.6469C98.8749 21.768 99.1989 21.408 99.6189 21.18C100.039 20.94 100.519 20.82 101.059 20.82C101.959 20.82 102.685 21.114 103.237 21.702C103.789 22.29 104.083 23.148 104.119 24.276L102.643 24.492C102.643 23.664 102.445 23.07 102.049 22.71C101.653 22.338 101.167 22.152 100.591 22.152C100.219 22.152 99.8949 22.224 99.6189 22.368C99.3549 22.512 99.1329 22.71 98.9529 22.962C98.7729 23.214 98.6409 23.508 98.5569 23.844C98.4729 24.18 98.4309 24.54 98.4309 24.924V28.704H100.699V30H94.9749V28.704H97.0269V22.368H95.1909V21.072ZM109.488 18.408C109.488 18.06 109.608 17.766 109.848 17.526C110.1 17.274 110.4 17.148 110.748 17.148C111.096 17.148 111.39 17.274 111.63 17.526C111.882 17.766 112.008 18.06 112.008 18.408C112.008 18.756 111.882 19.056 111.63 19.308C111.39 19.548 111.096 19.668 110.748 19.668C110.4 19.668 110.1 19.548 109.848 19.308C109.608 19.056 109.488 18.756 109.488 18.408ZM106.932 28.704H110.064V22.368H107.256V21.072H111.468V28.704H114.384V30H106.932V28.704ZM118.818 33.6H117.414V21.072H118.818V22.476H119.034C119.346 21.936 119.778 21.528 120.33 21.252C120.882 20.964 121.482 20.82 122.13 20.82C122.682 20.82 123.204 20.922 123.696 21.126C124.188 21.33 124.62 21.624 124.992 22.008C125.376 22.392 125.676 22.866 125.892 23.43C126.12 23.994 126.234 24.636 126.234 25.356V25.716C126.234 26.448 126.126 27.096 125.91 27.66C125.694 28.224 125.394 28.698 125.01 29.082C124.638 29.466 124.2 29.76 123.696 29.964C123.192 30.156 122.658 30.252 122.094 30.252C121.806 30.252 121.512 30.216 121.212 30.144C120.912 30.084 120.624 29.988 120.348 29.856C120.084 29.712 119.838 29.544 119.61 29.352C119.382 29.148 119.19 28.908 119.034 28.632H118.818V33.6ZM121.806 28.92C122.238 28.92 122.634 28.848 122.994 28.704C123.354 28.548 123.666 28.332 123.93 28.056C124.206 27.78 124.416 27.444 124.56 27.048C124.716 26.652 124.794 26.208 124.794 25.716V25.356C124.794 24.876 124.716 24.444 124.56 24.06C124.416 23.664 124.206 23.328 123.93 23.052C123.666 22.764 123.348 22.542 122.976 22.386C122.616 22.23 122.226 22.152 121.806 22.152C121.386 22.152 120.996 22.236 120.636 22.404C120.276 22.56 119.958 22.782 119.682 23.07C119.418 23.358 119.208 23.706 119.052 24.114C118.896 24.51 118.818 24.948 118.818 25.428V25.644C118.818 26.136 118.896 26.586 119.052 26.994C119.208 27.39 119.418 27.732 119.682 28.02C119.958 28.308 120.276 28.53 120.636 28.686C120.996 28.842 121.386 28.92 121.806 28.92ZM128.453 21.072H131.261V17.4H132.665V21.072H136.121V22.368H132.665V28.164C132.665 28.524 132.827 28.704 133.151 28.704H135.689V30H132.647C132.239 30 131.903 29.868 131.639 29.604C131.387 29.34 131.261 29.004 131.261 28.596V22.368H128.453V21.072Z" fill="white"/>
</svg>
