<svg width="157" height="50" viewBox="0 0 157 50" fill="none" xmlns="http://www.w3.org/2000/svg">
<rect width="157" height="50" rx="25" fill="#191919"/>
<path d="M35.436 31.18C31.782 31.18 30.36 29.254 30.36 26.41V25.852H32.412V26.428C32.412 28.408 33.078 29.308 35.436 29.308C37.794 29.308 38.496 28.426 38.496 26.518V18.94H40.53V26.5C40.53 29.272 39.126 31.18 35.436 31.18ZM44.8835 31.18C43.0295 31.18 41.8595 30.316 41.8595 28.84C41.8595 27.454 42.9755 26.734 44.7395 26.536L48.8075 26.104V25.582C48.8075 24.106 48.1595 23.584 46.4495 23.584C44.7935 23.584 43.9835 24.124 43.9835 25.438V25.51H42.0575V25.438C42.0575 23.404 43.7495 21.874 46.5935 21.874C49.4375 21.874 50.7155 23.422 50.7155 25.564V31H48.9335V28.768H48.8075C48.3395 30.28 46.9175 31.18 44.8835 31.18ZM43.8035 28.714C43.8035 29.434 44.2895 29.776 45.4055 29.776C47.4395 29.776 48.8075 29.02 48.8075 27.256L45.2975 27.652C44.2895 27.778 43.8035 28.012 43.8035 28.714ZM58.1928 31H55.8168L51.6408 22.054H53.7828L56.9688 29.11H57.1128L60.2988 22.054H62.4048L58.1928 31ZM66.03 31.18C64.176 31.18 63.006 30.316 63.006 28.84C63.006 27.454 64.122 26.734 65.886 26.536L69.954 26.104V25.582C69.954 24.106 69.306 23.584 67.596 23.584C65.94 23.584 65.13 24.124 65.13 25.438V25.51H63.204V25.438C63.204 23.404 64.896 21.874 67.74 21.874C70.584 21.874 71.862 23.422 71.862 25.564V31H70.08V28.768H69.954C69.486 30.28 68.064 31.18 66.03 31.18ZM64.95 28.714C64.95 29.434 65.436 29.776 66.552 29.776C68.586 29.776 69.954 29.02 69.954 27.256L66.444 27.652C65.436 27.778 64.95 28.012 64.95 28.714ZM78.6553 31.18C75.0553 31.18 73.2193 29.596 73.2193 27.058V26.95H75.1633V27.238C75.1633 28.678 76.0093 29.398 78.6553 29.398C80.9593 29.398 81.7693 28.894 81.7693 27.76C81.7693 26.716 81.1573 26.32 79.6273 26.032L76.6753 25.546C74.6413 25.186 73.2013 24.25 73.2013 22.27C73.2013 20.524 74.6413 18.76 78.3853 18.76C81.9133 18.76 83.5153 20.524 83.5153 22.882V22.99H81.5893V22.756C81.5893 21.28 80.7073 20.542 78.2053 20.542C76.0093 20.542 75.1453 21.082 75.1453 22.162C75.1453 23.206 75.7573 23.548 77.1793 23.854L80.1133 24.358C82.5253 24.79 83.7133 25.888 83.7133 27.652C83.7133 29.488 82.2193 31.18 78.6553 31.18ZM89.6114 31.18C86.6594 31.18 84.7334 29.29 84.7334 26.536C84.7334 23.746 86.6594 21.874 89.6114 21.874C92.2934 21.874 94.2554 23.386 94.2554 25.618V25.798H92.3294V25.69C92.3294 24.304 91.3214 23.62 89.5754 23.62C87.5594 23.62 86.6594 24.574 86.6594 26.536C86.6594 28.462 87.5594 29.434 89.5754 29.434C91.3214 29.434 92.3294 28.75 92.3294 27.364V27.238H94.2554V27.436C94.2554 29.668 92.2934 31.18 89.6114 31.18ZM97.637 31H95.693V22.054H97.475V24.466H97.601C97.871 23.026 98.843 21.874 100.679 21.874C102.713 21.874 103.595 23.332 103.595 25.024V26.194H101.669V25.402C101.669 24.124 101.129 23.53 99.797 23.53C98.267 23.53 97.637 24.376 97.637 25.978V31ZM106.76 21.01H104.816V18.94H106.76V21.01ZM106.76 31H104.816V22.054H106.76V31ZM110.504 34.06H108.56V22.054H110.342V24.538H110.504C110.864 22.882 112.124 21.874 114.23 21.874C117.002 21.874 118.568 23.764 118.568 26.536C118.568 29.308 117.038 31.18 114.248 31.18C112.232 31.18 110.936 30.118 110.576 28.48H110.504V34.06ZM110.504 26.68C110.504 28.516 111.674 29.416 113.582 29.416C115.508 29.416 116.624 28.678 116.624 26.536C116.624 24.376 115.49 23.656 113.618 23.656C111.62 23.656 110.504 24.592 110.504 26.518V26.68ZM125.784 31H123.732C121.806 31 120.618 30.154 120.618 27.976V23.674H119.106V22.054H120.618V20.092H122.544V22.054H125.784V23.674H122.544V27.868C122.544 28.966 123.048 29.254 124.164 29.254H125.784V31Z" fill="#F1F1F1"/>
</svg>
