<svg width="156" height="47" viewBox="0 0 156 47" fill="none" xmlns="http://www.w3.org/2000/svg">
<rect width="156" height="47" rx="23.5" fill="#252525"/>
<path d="M31.042 24.816V30H29.53V17.4H34.03C34.678 17.4 35.242 17.496 35.722 17.688C36.202 17.868 36.598 18.114 36.91 18.426C37.234 18.738 37.474 19.104 37.63 19.524C37.798 19.932 37.882 20.364 37.882 20.82V21.36C37.882 21.816 37.798 22.254 37.63 22.674C37.474 23.094 37.234 23.466 36.91 23.79C36.586 24.102 36.184 24.354 35.704 24.546C35.224 24.726 34.666 24.816 34.03 24.816H31.042ZM31.042 23.412H33.85C35.53 23.412 36.37 22.692 36.37 21.252V20.928C36.37 20.292 36.16 19.782 35.74 19.398C35.332 19.002 34.702 18.804 33.85 18.804H31.042V23.412ZM41.9915 30H40.5875V17.4H41.9915V22.692H42.2075C42.4835 22.116 42.8675 21.66 43.3595 21.324C43.8635 20.988 44.4755 20.82 45.1955 20.82C46.1675 20.82 46.9535 21.144 47.5535 21.792C48.1655 22.428 48.4715 23.388 48.4715 24.672V30H47.0675V24.96C47.0675 24.024 46.8575 23.322 46.4375 22.854C46.0175 22.386 45.4475 22.152 44.7275 22.152C43.8755 22.152 43.2035 22.446 42.7115 23.034C42.2315 23.61 41.9915 24.384 41.9915 25.356V30ZM60.033 25.644C60.033 26.388 59.907 27.048 59.655 27.624C59.415 28.188 59.091 28.668 58.683 29.064C58.275 29.448 57.795 29.742 57.243 29.946C56.703 30.15 56.139 30.252 55.551 30.252C54.951 30.252 54.381 30.15 53.841 29.946C53.301 29.742 52.827 29.448 52.419 29.064C52.011 28.668 51.681 28.188 51.429 27.624C51.189 27.048 51.069 26.388 51.069 25.644V25.428C51.069 24.696 51.189 24.048 51.429 23.484C51.681 22.908 52.011 22.422 52.419 22.026C52.839 21.63 53.319 21.33 53.859 21.126C54.399 20.922 54.963 20.82 55.551 20.82C56.139 20.82 56.703 20.922 57.243 21.126C57.783 21.33 58.257 21.63 58.665 22.026C59.085 22.422 59.415 22.908 59.655 23.484C59.907 24.048 60.033 24.696 60.033 25.428V25.644ZM55.551 28.92C55.983 28.92 56.379 28.848 56.739 28.704C57.111 28.548 57.435 28.326 57.711 28.038C57.987 27.75 58.203 27.408 58.359 27.012C58.515 26.604 58.593 26.148 58.593 25.644V25.428C58.593 24.948 58.515 24.51 58.359 24.114C58.203 23.706 57.987 23.358 57.711 23.07C57.435 22.782 57.111 22.56 56.739 22.404C56.367 22.236 55.971 22.152 55.551 22.152C55.131 22.152 54.735 22.236 54.363 22.404C53.991 22.56 53.667 22.782 53.391 23.07C53.115 23.358 52.899 23.706 52.743 24.114C52.587 24.51 52.509 24.948 52.509 25.428V25.644C52.509 26.148 52.587 26.604 52.743 27.012C52.899 27.408 53.115 27.75 53.391 28.038C53.667 28.326 53.985 28.548 54.345 28.704C54.717 28.848 55.119 28.92 55.551 28.92ZM62.3245 21.072H65.1325V17.4H66.5365V21.072H69.9925V22.368H66.5365V28.164C66.5365 28.524 66.6985 28.704 67.0225 28.704H69.5605V30H66.5185C66.1105 30 65.7745 29.868 65.5105 29.604C65.2585 29.34 65.1325 29.004 65.1325 28.596V22.368H62.3245V21.072ZM82.0759 25.644C82.0759 26.388 81.9499 27.048 81.6979 27.624C81.4579 28.188 81.1339 28.668 80.7259 29.064C80.3179 29.448 79.8379 29.742 79.2859 29.946C78.7459 30.15 78.1819 30.252 77.5939 30.252C76.9939 30.252 76.4239 30.15 75.8839 29.946C75.3439 29.742 74.8699 29.448 74.4619 29.064C74.0539 28.668 73.7239 28.188 73.4719 27.624C73.2319 27.048 73.1119 26.388 73.1119 25.644V25.428C73.1119 24.696 73.2319 24.048 73.4719 23.484C73.7239 22.908 74.0539 22.422 74.4619 22.026C74.8819 21.63 75.3619 21.33 75.9019 21.126C76.4419 20.922 77.0059 20.82 77.5939 20.82C78.1819 20.82 78.7459 20.922 79.2859 21.126C79.8259 21.33 80.2999 21.63 80.7079 22.026C81.1279 22.422 81.4579 22.908 81.6979 23.484C81.9499 24.048 82.0759 24.696 82.0759 25.428V25.644ZM77.5939 28.92C78.0259 28.92 78.4219 28.848 78.7819 28.704C79.1539 28.548 79.4779 28.326 79.7539 28.038C80.0299 27.75 80.2459 27.408 80.4019 27.012C80.5579 26.604 80.6359 26.148 80.6359 25.644V25.428C80.6359 24.948 80.5579 24.51 80.4019 24.114C80.2459 23.706 80.0299 23.358 79.7539 23.07C79.4779 22.782 79.1539 22.56 78.7819 22.404C78.4099 22.236 78.0139 22.152 77.5939 22.152C77.1739 22.152 76.7779 22.236 76.4059 22.404C76.0339 22.56 75.7099 22.782 75.4339 23.07C75.1579 23.358 74.9419 23.706 74.7859 24.114C74.6299 24.51 74.5519 24.948 74.5519 25.428V25.644C74.5519 26.148 74.6299 26.604 74.7859 27.012C74.9419 27.408 75.1579 27.75 75.4339 28.038C75.7099 28.326 76.0279 28.548 76.3879 28.704C76.7599 28.848 77.1619 28.92 77.5939 28.92ZM86.5274 23.376C86.5274 23.808 86.7074 24.138 87.0674 24.366C87.4394 24.594 88.1114 24.744 89.0834 24.816C90.1274 24.9 90.9194 25.152 91.4594 25.572C92.0114 25.98 92.2874 26.58 92.2874 27.372V27.48C92.2874 27.912 92.1974 28.302 92.0174 28.65C91.8494 28.986 91.6094 29.274 91.2974 29.514C90.9974 29.754 90.6254 29.934 90.1814 30.054C89.7494 30.186 89.2754 30.252 88.7594 30.252C88.0634 30.252 87.4634 30.162 86.9594 29.982C86.4674 29.79 86.0534 29.544 85.7174 29.244C85.3934 28.932 85.1474 28.584 84.9794 28.2C84.8114 27.804 84.7154 27.408 84.6914 27.012L86.0234 26.688C86.0834 27.372 86.3474 27.924 86.8154 28.344C87.2834 28.752 87.9074 28.956 88.6874 28.956C89.3474 28.956 89.8754 28.83 90.2714 28.578C90.6794 28.314 90.8834 27.948 90.8834 27.48C90.8834 26.976 90.6854 26.616 90.2894 26.4C89.8934 26.184 89.2514 26.046 88.3634 25.986C87.3314 25.914 86.5394 25.674 85.9874 25.266C85.4354 24.858 85.1594 24.264 85.1594 23.484V23.376C85.1594 22.956 85.2494 22.59 85.4294 22.278C85.6094 21.954 85.8494 21.684 86.1494 21.468C86.4614 21.252 86.8094 21.09 87.1934 20.982C87.5774 20.874 87.9794 20.82 88.3994 20.82C88.9874 20.82 89.5034 20.904 89.9474 21.072C90.3914 21.228 90.7634 21.438 91.0634 21.702C91.3634 21.954 91.5914 22.248 91.7474 22.584C91.9154 22.92 92.0234 23.256 92.0714 23.592L90.7394 23.916C90.6794 23.34 90.4454 22.89 90.0374 22.566C89.6414 22.242 89.1194 22.08 88.4714 22.08C88.2194 22.08 87.9734 22.11 87.7334 22.17C87.5054 22.218 87.3014 22.296 87.1214 22.404C86.9414 22.512 86.7974 22.65 86.6894 22.818C86.5814 22.974 86.5274 23.16 86.5274 23.376ZM97.0989 30H95.6949V17.4H97.0989V22.692H97.3149C97.5909 22.116 97.9749 21.66 98.4669 21.324C98.9709 20.988 99.5829 20.82 100.303 20.82C101.275 20.82 102.061 21.144 102.661 21.792C103.273 22.428 103.579 23.388 103.579 24.672V30H102.175V24.96C102.175 24.024 101.965 23.322 101.545 22.854C101.125 22.386 100.555 22.152 99.8349 22.152C98.9829 22.152 98.3109 22.446 97.8189 23.034C97.3389 23.61 97.0989 24.384 97.0989 25.356V30ZM115.14 25.644C115.14 26.388 115.014 27.048 114.762 27.624C114.522 28.188 114.198 28.668 113.79 29.064C113.382 29.448 112.902 29.742 112.35 29.946C111.81 30.15 111.246 30.252 110.658 30.252C110.058 30.252 109.488 30.15 108.948 29.946C108.408 29.742 107.934 29.448 107.526 29.064C107.118 28.668 106.788 28.188 106.536 27.624C106.296 27.048 106.176 26.388 106.176 25.644V25.428C106.176 24.696 106.296 24.048 106.536 23.484C106.788 22.908 107.118 22.422 107.526 22.026C107.946 21.63 108.426 21.33 108.966 21.126C109.506 20.922 110.07 20.82 110.658 20.82C111.246 20.82 111.81 20.922 112.35 21.126C112.89 21.33 113.364 21.63 113.772 22.026C114.192 22.422 114.522 22.908 114.762 23.484C115.014 24.048 115.14 24.696 115.14 25.428V25.644ZM110.658 28.92C111.09 28.92 111.486 28.848 111.846 28.704C112.218 28.548 112.542 28.326 112.818 28.038C113.094 27.75 113.31 27.408 113.466 27.012C113.622 26.604 113.7 26.148 113.7 25.644V25.428C113.7 24.948 113.622 24.51 113.466 24.114C113.31 23.706 113.094 23.358 112.818 23.07C112.542 22.782 112.218 22.56 111.846 22.404C111.474 22.236 111.078 22.152 110.658 22.152C110.238 22.152 109.842 22.236 109.47 22.404C109.098 22.56 108.774 22.782 108.498 23.07C108.222 23.358 108.006 23.706 107.85 24.114C107.694 24.51 107.616 24.948 107.616 25.428V25.644C107.616 26.148 107.694 26.604 107.85 27.012C108.006 27.408 108.222 27.75 108.498 28.038C108.774 28.326 109.092 28.548 109.452 28.704C109.824 28.848 110.226 28.92 110.658 28.92ZM118.818 33.6H117.414V21.072H118.818V22.476H119.034C119.346 21.936 119.778 21.528 120.33 21.252C120.882 20.964 121.482 20.82 122.13 20.82C122.682 20.82 123.204 20.922 123.696 21.126C124.188 21.33 124.62 21.624 124.992 22.008C125.376 22.392 125.676 22.866 125.892 23.43C126.12 23.994 126.234 24.636 126.234 25.356V25.716C126.234 26.448 126.126 27.096 125.91 27.66C125.694 28.224 125.394 28.698 125.01 29.082C124.638 29.466 124.2 29.76 123.696 29.964C123.192 30.156 122.658 30.252 122.094 30.252C121.806 30.252 121.512 30.216 121.212 30.144C120.912 30.084 120.624 29.988 120.348 29.856C120.084 29.712 119.838 29.544 119.61 29.352C119.382 29.148 119.19 28.908 119.034 28.632H118.818V33.6ZM121.806 28.92C122.238 28.92 122.634 28.848 122.994 28.704C123.354 28.548 123.666 28.332 123.93 28.056C124.206 27.78 124.416 27.444 124.56 27.048C124.716 26.652 124.794 26.208 124.794 25.716V25.356C124.794 24.876 124.716 24.444 124.56 24.06C124.416 23.664 124.206 23.328 123.93 23.052C123.666 22.764 123.348 22.542 122.976 22.386C122.616 22.23 122.226 22.152 121.806 22.152C121.386 22.152 120.996 22.236 120.636 22.404C120.276 22.56 119.958 22.782 119.682 23.07C119.418 23.358 119.208 23.706 119.052 24.114C118.896 24.51 118.818 24.948 118.818 25.428V25.644C118.818 26.136 118.896 26.586 119.052 26.994C119.208 27.39 119.418 27.732 119.682 28.02C119.958 28.308 120.276 28.53 120.636 28.686C120.996 28.842 121.386 28.92 121.806 28.92Z" fill="white"/>
</svg>
