<svg width="156" height="50" viewBox="0 0 156 50" fill="none" xmlns="http://www.w3.org/2000/svg">
<rect width="156" height="50" rx="25" fill="#191919"/>
<path d="M32.844 31H30.9V18.94H36.804C39.486 18.94 41.322 20.47 41.322 23.152C41.322 25.816 39.486 27.364 36.804 27.364H32.844V31ZM36.624 20.686H32.844V25.618H36.624C38.442 25.618 39.378 24.934 39.378 23.152C39.378 21.37 38.442 20.686 36.624 20.686ZM44.428 31H42.484V18.94H44.428V24.79H44.536C44.842 23.278 45.94 21.874 48.226 21.874C50.692 21.874 51.898 23.494 51.898 25.672V31H49.972V26.14C49.972 24.34 49.162 23.62 47.308 23.62C45.184 23.62 44.428 24.772 44.428 26.662V31ZM58.2181 31.18C55.2481 31.18 53.2501 29.29 53.2501 26.536C53.2501 23.746 55.2481 21.874 58.2181 21.874C61.2061 21.874 63.2041 23.746 63.2041 26.536C63.2041 29.29 61.2061 31.18 58.2181 31.18ZM58.2181 29.452C60.3961 29.452 61.2961 28.426 61.2961 26.536C61.2961 24.628 60.3961 23.584 58.2181 23.584C56.0581 23.584 55.1581 24.628 55.1581 26.536C55.1581 28.426 56.0581 29.452 58.2181 29.452ZM70.4828 31H68.4308C66.5048 31 65.3168 30.154 65.3168 27.976V23.674H63.8048V22.054H65.3168V20.092H67.2428V22.054H70.4828V23.674H67.2428V27.868C67.2428 28.966 67.7468 29.254 68.8628 29.254H70.4828V31ZM76.2708 31.18C73.3008 31.18 71.3028 29.29 71.3028 26.536C71.3028 23.746 73.3008 21.874 76.2708 21.874C79.2588 21.874 81.2568 23.746 81.2568 26.536C81.2568 29.29 79.2588 31.18 76.2708 31.18ZM76.2708 29.452C78.4488 29.452 79.3488 28.426 79.3488 26.536C79.3488 24.628 78.4488 23.584 76.2708 23.584C74.1108 23.584 73.2108 24.628 73.2108 26.536C73.2108 28.426 74.1108 29.452 76.2708 29.452ZM86.8976 31.18C84.0176 31.18 82.3796 30.046 82.3796 27.976V27.922H84.3236V28.066C84.3236 29.236 85.0256 29.614 86.8976 29.614C88.6436 29.614 89.1656 29.254 89.1656 28.462C89.1656 27.724 88.7336 27.49 87.4556 27.31L85.0076 26.986C83.3156 26.77 82.2896 26.05 82.2896 24.556C82.2896 22.99 83.7116 21.874 86.4656 21.874C89.2016 21.874 90.8576 22.972 90.8576 25.096V25.15H88.9316V25.042C88.9316 23.98 88.3916 23.422 86.4116 23.422C84.7736 23.422 84.1976 23.782 84.1976 24.628C84.1976 25.33 84.5576 25.582 85.9076 25.762L87.9776 26.05C90.1016 26.32 91.0736 27.04 91.0736 28.516C91.0736 30.19 89.4176 31.18 86.8976 31.18ZM94.4202 31H92.4762V18.94H94.4202V24.79H94.5282C94.8342 23.278 95.9322 21.874 98.2182 21.874C100.684 21.874 101.89 23.494 101.89 25.672V31H99.9642V26.14C99.9642 24.34 99.1542 23.62 97.3002 23.62C95.1762 23.62 94.4202 24.772 94.4202 26.662V31ZM108.21 31.18C105.24 31.18 103.242 29.29 103.242 26.536C103.242 23.746 105.24 21.874 108.21 21.874C111.198 21.874 113.196 23.746 113.196 26.536C113.196 29.29 111.198 31.18 108.21 31.18ZM108.21 29.452C110.388 29.452 111.288 28.426 111.288 26.536C111.288 24.628 110.388 23.584 108.21 23.584C106.05 23.584 105.15 24.628 105.15 26.536C105.15 28.426 106.05 29.452 108.21 29.452ZM116.551 34.06H114.607V22.054H116.389V24.538H116.551C116.911 22.882 118.171 21.874 120.277 21.874C123.049 21.874 124.615 23.764 124.615 26.536C124.615 29.308 123.085 31.18 120.295 31.18C118.279 31.18 116.983 30.118 116.623 28.48H116.551V34.06ZM116.551 26.68C116.551 28.516 117.721 29.416 119.629 29.416C121.555 29.416 122.671 28.678 122.671 26.536C122.671 24.376 121.537 23.656 119.665 23.656C117.667 23.656 116.551 24.592 116.551 26.518V26.68Z" fill="#F1F1F1"/>
</svg>
