<svg width="111" height="50" viewBox="0 0 111 50" fill="none" xmlns="http://www.w3.org/2000/svg">
<rect width="111" height="50" rx="25" fill="#191919"/>
<path d="M32.844 31H30.9V18.94H37.164C39.9 18.94 41.592 20.236 41.592 22.486C41.592 24.484 40.278 25.708 38.01 25.834V25.96C38.946 26.212 39.378 26.752 39.81 27.508L41.826 31H39.594L37.668 27.67C37.128 26.716 36.57 26.32 35.058 26.32H32.844V31ZM32.844 20.686V24.826H37.146C38.766 24.826 39.576 24.268 39.576 22.756C39.576 21.28 38.766 20.686 37.146 20.686H32.844ZM47.4938 31.18C44.5598 31.18 42.6338 29.524 42.6338 26.536C42.6338 23.746 44.5418 21.874 47.4578 21.874C50.2298 21.874 52.1198 23.404 52.1198 26.122C52.1198 26.446 52.1018 26.698 52.0478 26.968H44.4518C44.5238 28.696 45.3698 29.614 47.4398 29.614C49.3118 29.614 50.0858 29.002 50.0858 27.94V27.796H52.0298V27.958C52.0298 29.866 50.1578 31.18 47.4938 31.18ZM47.4218 23.404C45.4418 23.404 44.5778 24.286 44.4697 25.888H50.2838V25.852C50.2838 24.196 49.3298 23.404 47.4218 23.404ZM56.2038 31.18C54.3498 31.18 53.1798 30.316 53.1798 28.84C53.1798 27.454 54.2958 26.734 56.0598 26.536L60.1278 26.104V25.582C60.1278 24.106 59.4798 23.584 57.7698 23.584C56.1138 23.584 55.3038 24.124 55.3038 25.438V25.51H53.3778V25.438C53.3778 23.404 55.0698 21.874 57.9138 21.874C60.7578 21.874 62.0358 23.422 62.0358 25.564V31H60.2538V28.768H60.1278C59.6598 30.28 58.2378 31.18 56.2038 31.18ZM55.1238 28.714C55.1238 29.434 55.6098 29.776 56.7258 29.776C58.7598 29.776 60.1278 29.02 60.1278 27.256L56.6178 27.652C55.6098 27.778 55.1238 28.012 55.1238 28.714ZM68.2891 31.18C65.3371 31.18 63.4111 29.29 63.4111 26.536C63.4111 23.746 65.3371 21.874 68.2891 21.874C70.9711 21.874 72.9331 23.386 72.9331 25.618V25.798H71.0071V25.69C71.0071 24.304 69.9991 23.62 68.2531 23.62C66.2371 23.62 65.3371 24.574 65.3371 26.536C65.3371 28.462 66.2371 29.434 68.2531 29.434C69.9991 29.434 71.0071 28.75 71.0071 27.364V27.238H72.9331V27.436C72.9331 29.668 70.9711 31.18 68.2891 31.18ZM80.2387 31H78.1867C76.2607 31 75.0727 30.154 75.0727 27.976V23.674H73.5607V22.054H75.0727V20.092H76.9987V22.054H80.2387V23.674H76.9987V27.868C76.9987 28.966 77.5027 29.254 78.6187 29.254H80.2387V31Z" fill="#F1F1F1"/>
</svg>
