<svg width="112" height="47" viewBox="0 0 112 47" fill="none" xmlns="http://www.w3.org/2000/svg">
<rect width="112" height="47" rx="23.5" fill="#252525"/>
<path d="M37.45 30H35.938V25.788C35.938 25.476 35.866 25.236 35.722 25.068C35.578 24.9 35.326 24.816 34.966 24.816H31.042V30H29.53V17.4H34.03C34.678 17.4 35.242 17.496 35.722 17.688C36.202 17.868 36.598 18.114 36.91 18.426C37.234 18.738 37.474 19.104 37.63 19.524C37.798 19.932 37.882 20.364 37.882 20.82V21.36C37.882 21.828 37.75 22.296 37.486 22.764C37.234 23.232 36.838 23.592 36.298 23.844V24.06C36.658 24.12 36.94 24.264 37.144 24.492C37.348 24.72 37.45 25.044 37.45 25.464V30ZM31.042 23.412H33.85C34.702 23.412 35.332 23.232 35.74 22.872C36.16 22.5 36.37 21.96 36.37 21.252V20.928C36.37 20.292 36.16 19.782 35.74 19.398C35.332 19.002 34.702 18.804 33.85 18.804H31.042V23.412ZM41.6135 25.968C41.6495 26.856 41.9255 27.57 42.4415 28.11C42.9575 28.65 43.6775 28.92 44.6015 28.92C45.0215 28.92 45.3875 28.872 45.6995 28.776C46.0115 28.68 46.2755 28.548 46.4915 28.38C46.7195 28.212 46.8995 28.02 47.0315 27.804C47.1755 27.576 47.2895 27.336 47.3735 27.084L48.7055 27.444C48.4535 28.272 47.9855 28.95 47.3015 29.478C46.6295 29.994 45.7175 30.252 44.5655 30.252C43.9295 30.252 43.3415 30.144 42.8015 29.928C42.2735 29.7 41.8175 29.382 41.4335 28.974C41.0495 28.566 40.7495 28.08 40.5335 27.516C40.3175 26.952 40.2095 26.328 40.2095 25.644V25.212C40.2095 24.588 40.3175 24.006 40.5335 23.466C40.7615 22.926 41.0735 22.464 41.4695 22.08C41.8655 21.684 42.3275 21.378 42.8555 21.162C43.3955 20.934 43.9775 20.82 44.6015 20.82C45.3335 20.82 45.9635 20.958 46.4915 21.234C47.0315 21.498 47.4695 21.828 47.8055 22.224C48.1535 22.62 48.4055 23.052 48.5615 23.52C48.7295 23.988 48.8135 24.42 48.8135 24.816V25.968H41.6135ZM44.6015 22.152C44.2055 22.152 43.8335 22.218 43.4855 22.35C43.1495 22.47 42.8495 22.644 42.5855 22.872C42.3335 23.1 42.1235 23.37 41.9555 23.682C41.7995 23.982 41.6975 24.312 41.6495 24.672H47.4095C47.3855 24.288 47.2895 23.94 47.1215 23.628C46.9655 23.316 46.7555 23.052 46.4915 22.836C46.2395 22.62 45.9455 22.452 45.6095 22.332C45.2855 22.212 44.9495 22.152 44.6015 22.152ZM58.089 28.488H57.873C57.585 29.088 57.183 29.532 56.667 29.82C56.163 30.108 55.629 30.252 55.065 30.252C54.477 30.252 53.931 30.156 53.427 29.964C52.923 29.76 52.479 29.466 52.095 29.082C51.723 28.686 51.429 28.206 51.213 27.642C50.997 27.078 50.889 26.424 50.889 25.68V25.392C50.889 24.66 50.997 24.012 51.213 23.448C51.429 22.884 51.723 22.41 52.095 22.026C52.479 21.63 52.923 21.33 53.427 21.126C53.931 20.922 54.465 20.82 55.029 20.82C55.641 20.82 56.193 20.958 56.685 21.234C57.189 21.498 57.585 21.912 57.873 22.476H58.089V21.072H59.493V28.164C59.493 28.524 59.655 28.704 59.979 28.704H60.429V30H59.475C59.067 30 58.731 29.868 58.467 29.604C58.215 29.34 58.089 29.004 58.089 28.596V28.488ZM55.209 28.92C55.629 28.92 56.013 28.842 56.361 28.686C56.721 28.53 57.027 28.308 57.279 28.02C57.531 27.732 57.729 27.39 57.873 26.994C58.017 26.586 58.089 26.136 58.089 25.644V25.428C58.089 24.948 58.017 24.51 57.873 24.114C57.729 23.706 57.525 23.358 57.261 23.07C57.009 22.782 56.703 22.56 56.343 22.404C55.995 22.236 55.617 22.152 55.209 22.152C54.789 22.152 54.405 22.23 54.057 22.386C53.709 22.542 53.403 22.764 53.139 23.052C52.887 23.328 52.689 23.67 52.545 24.078C52.401 24.474 52.329 24.912 52.329 25.392V25.68C52.329 26.7 52.593 27.498 53.121 28.074C53.661 28.638 54.357 28.92 55.209 28.92ZM70.9825 26.832C70.8865 27.324 70.7185 27.78 70.4785 28.2C70.2505 28.62 69.9565 28.986 69.5965 29.298C69.2365 29.598 68.8165 29.832 68.3365 30C67.8565 30.168 67.3225 30.252 66.7345 30.252C66.1105 30.252 65.5165 30.15 64.9525 29.946C64.4005 29.742 63.9145 29.448 63.4945 29.064C63.0745 28.668 62.7385 28.188 62.4865 27.624C62.2465 27.06 62.1265 26.412 62.1265 25.68V25.464C62.1265 24.744 62.2465 24.096 62.4865 23.52C62.7385 22.944 63.0745 22.458 63.4945 22.062C63.9145 21.666 64.4005 21.36 64.9525 21.144C65.5165 20.928 66.1105 20.82 66.7345 20.82C67.2985 20.82 67.8205 20.904 68.3005 21.072C68.7805 21.24 69.2005 21.48 69.5605 21.792C69.9325 22.092 70.2325 22.452 70.4605 22.872C70.7005 23.292 70.8625 23.748 70.9465 24.24L69.5425 24.564C69.5065 24.252 69.4165 23.952 69.2725 23.664C69.1405 23.364 68.9545 23.106 68.7145 22.89C68.4865 22.662 68.2045 22.482 67.8685 22.35C67.5325 22.218 67.1425 22.152 66.6985 22.152C66.2665 22.152 65.8585 22.236 65.4745 22.404C65.1025 22.56 64.7725 22.788 64.4845 23.088C64.1965 23.376 63.9685 23.724 63.8005 24.132C63.6445 24.54 63.5665 24.984 63.5665 25.464V25.68C63.5665 26.184 63.6445 26.64 63.8005 27.048C63.9685 27.444 64.1965 27.78 64.4845 28.056C64.7725 28.332 65.1085 28.548 65.4925 28.704C65.8765 28.848 66.2905 28.92 66.7345 28.92C67.1785 28.92 67.5625 28.854 67.8865 28.722C68.2225 28.578 68.5045 28.398 68.7325 28.182C68.9725 27.954 69.1585 27.696 69.2905 27.408C69.4345 27.12 69.5305 26.82 69.5785 26.508L70.9825 26.832ZM73.3459 21.072H76.1539V17.4H77.5579V21.072H81.0139V22.368H77.5579V28.164C77.5579 28.524 77.7199 28.704 78.0439 28.704H80.5819V30H77.5399C77.1319 30 76.7959 29.868 76.5319 29.604C76.2799 29.34 76.1539 29.004 76.1539 28.596V22.368H73.3459V21.072Z" fill="white"/>
</svg>
