<svg width="167" height="47" viewBox="0 0 167 47" fill="none" xmlns="http://www.w3.org/2000/svg">
<rect width="167" height="47" rx="23.5" fill="#252525"/>
<path d="M37.45 30H35.938V25.788C35.938 25.476 35.866 25.236 35.722 25.068C35.578 24.9 35.326 24.816 34.966 24.816H31.042V30H29.53V17.4H34.03C34.678 17.4 35.242 17.496 35.722 17.688C36.202 17.868 36.598 18.114 36.91 18.426C37.234 18.738 37.474 19.104 37.63 19.524C37.798 19.932 37.882 20.364 37.882 20.82V21.36C37.882 21.828 37.75 22.296 37.486 22.764C37.234 23.232 36.838 23.592 36.298 23.844V24.06C36.658 24.12 36.94 24.264 37.144 24.492C37.348 24.72 37.45 25.044 37.45 25.464V30ZM31.042 23.412H33.85C34.702 23.412 35.332 23.232 35.74 22.872C36.16 22.5 36.37 21.96 36.37 21.252V20.928C36.37 20.292 36.16 19.782 35.74 19.398C35.332 19.002 34.702 18.804 33.85 18.804H31.042V23.412ZM41.6135 25.968C41.6495 26.856 41.9255 27.57 42.4415 28.11C42.9575 28.65 43.6775 28.92 44.6015 28.92C45.0215 28.92 45.3875 28.872 45.6995 28.776C46.0115 28.68 46.2755 28.548 46.4915 28.38C46.7195 28.212 46.8995 28.02 47.0315 27.804C47.1755 27.576 47.2895 27.336 47.3735 27.084L48.7055 27.444C48.4535 28.272 47.9855 28.95 47.3015 29.478C46.6295 29.994 45.7175 30.252 44.5655 30.252C43.9295 30.252 43.3415 30.144 42.8015 29.928C42.2735 29.7 41.8175 29.382 41.4335 28.974C41.0495 28.566 40.7495 28.08 40.5335 27.516C40.3175 26.952 40.2095 26.328 40.2095 25.644V25.212C40.2095 24.588 40.3175 24.006 40.5335 23.466C40.7615 22.926 41.0735 22.464 41.4695 22.08C41.8655 21.684 42.3275 21.378 42.8555 21.162C43.3955 20.934 43.9775 20.82 44.6015 20.82C45.3335 20.82 45.9635 20.958 46.4915 21.234C47.0315 21.498 47.4695 21.828 47.8055 22.224C48.1535 22.62 48.4055 23.052 48.5615 23.52C48.7295 23.988 48.8135 24.42 48.8135 24.816V25.968H41.6135ZM44.6015 22.152C44.2055 22.152 43.8335 22.218 43.4855 22.35C43.1495 22.47 42.8495 22.644 42.5855 22.872C42.3335 23.1 42.1235 23.37 41.9555 23.682C41.7995 23.982 41.6975 24.312 41.6495 24.672H47.4095C47.3855 24.288 47.2895 23.94 47.1215 23.628C46.9655 23.316 46.7555 23.052 46.4915 22.836C46.2395 22.62 45.9455 22.452 45.6095 22.332C45.2855 22.212 44.9495 22.152 44.6015 22.152ZM53.463 23.376C53.463 23.808 53.643 24.138 54.003 24.366C54.375 24.594 55.047 24.744 56.019 24.816C57.063 24.9 57.855 25.152 58.395 25.572C58.947 25.98 59.223 26.58 59.223 27.372V27.48C59.223 27.912 59.133 28.302 58.953 28.65C58.785 28.986 58.545 29.274 58.233 29.514C57.933 29.754 57.561 29.934 57.117 30.054C56.685 30.186 56.211 30.252 55.695 30.252C54.999 30.252 54.399 30.162 53.895 29.982C53.403 29.79 52.989 29.544 52.653 29.244C52.329 28.932 52.083 28.584 51.915 28.2C51.747 27.804 51.651 27.408 51.627 27.012L52.959 26.688C53.019 27.372 53.283 27.924 53.751 28.344C54.219 28.752 54.843 28.956 55.623 28.956C56.283 28.956 56.811 28.83 57.207 28.578C57.615 28.314 57.819 27.948 57.819 27.48C57.819 26.976 57.621 26.616 57.225 26.4C56.829 26.184 56.187 26.046 55.299 25.986C54.267 25.914 53.475 25.674 52.923 25.266C52.371 24.858 52.095 24.264 52.095 23.484V23.376C52.095 22.956 52.185 22.59 52.365 22.278C52.545 21.954 52.785 21.684 53.085 21.468C53.397 21.252 53.745 21.09 54.129 20.982C54.513 20.874 54.915 20.82 55.335 20.82C55.923 20.82 56.439 20.904 56.883 21.072C57.327 21.228 57.699 21.438 57.999 21.702C58.299 21.954 58.527 22.248 58.683 22.584C58.851 22.92 58.959 23.256 59.007 23.592L57.675 23.916C57.615 23.34 57.381 22.89 56.973 22.566C56.577 22.242 56.055 22.08 55.407 22.08C55.155 22.08 54.909 22.11 54.669 22.17C54.441 22.218 54.237 22.296 54.057 22.404C53.877 22.512 53.733 22.65 53.625 22.818C53.517 22.974 53.463 23.16 53.463 23.376ZM63.7105 33.6H62.3065V21.072H63.7105V22.476H63.9265C64.2385 21.936 64.6705 21.528 65.2225 21.252C65.7745 20.964 66.3745 20.82 67.0225 20.82C67.5745 20.82 68.0965 20.922 68.5885 21.126C69.0805 21.33 69.5125 21.624 69.8845 22.008C70.2685 22.392 70.5685 22.866 70.7845 23.43C71.0125 23.994 71.1265 24.636 71.1265 25.356V25.716C71.1265 26.448 71.0185 27.096 70.8025 27.66C70.5865 28.224 70.2865 28.698 69.9025 29.082C69.5305 29.466 69.0925 29.76 68.5885 29.964C68.0845 30.156 67.5505 30.252 66.9865 30.252C66.6985 30.252 66.4045 30.216 66.1045 30.144C65.8045 30.084 65.5165 29.988 65.2405 29.856C64.9765 29.712 64.7305 29.544 64.5025 29.352C64.2745 29.148 64.0825 28.908 63.9265 28.632H63.7105V33.6ZM66.6985 28.92C67.1305 28.92 67.5265 28.848 67.8865 28.704C68.2465 28.548 68.5585 28.332 68.8225 28.056C69.0985 27.78 69.3085 27.444 69.4525 27.048C69.6085 26.652 69.6865 26.208 69.6865 25.716V25.356C69.6865 24.876 69.6085 24.444 69.4525 24.06C69.3085 23.664 69.0985 23.328 68.8225 23.052C68.5585 22.764 68.2405 22.542 67.8685 22.386C67.5085 22.23 67.1185 22.152 66.6985 22.152C66.2785 22.152 65.8885 22.236 65.5285 22.404C65.1685 22.56 64.8505 22.782 64.5745 23.07C64.3105 23.358 64.1005 23.706 63.9445 24.114C63.7885 24.51 63.7105 24.948 63.7105 25.428V25.644C63.7105 26.136 63.7885 26.586 63.9445 26.994C64.1005 27.39 64.3105 27.732 64.5745 28.02C64.8505 28.308 65.1685 28.53 65.5285 28.686C65.8885 28.842 66.2785 28.92 66.6985 28.92ZM82.0759 25.644C82.0759 26.388 81.9499 27.048 81.6979 27.624C81.4579 28.188 81.1339 28.668 80.7259 29.064C80.3179 29.448 79.8379 29.742 79.2859 29.946C78.7459 30.15 78.1819 30.252 77.5939 30.252C76.9939 30.252 76.4239 30.15 75.8839 29.946C75.3439 29.742 74.8699 29.448 74.4619 29.064C74.0539 28.668 73.7239 28.188 73.4719 27.624C73.2319 27.048 73.1119 26.388 73.1119 25.644V25.428C73.1119 24.696 73.2319 24.048 73.4719 23.484C73.7239 22.908 74.0539 22.422 74.4619 22.026C74.8819 21.63 75.3619 21.33 75.9019 21.126C76.4419 20.922 77.0059 20.82 77.5939 20.82C78.1819 20.82 78.7459 20.922 79.2859 21.126C79.8259 21.33 80.2999 21.63 80.7079 22.026C81.1279 22.422 81.4579 22.908 81.6979 23.484C81.9499 24.048 82.0759 24.696 82.0759 25.428V25.644ZM77.5939 28.92C78.0259 28.92 78.4219 28.848 78.7819 28.704C79.1539 28.548 79.4779 28.326 79.7539 28.038C80.0299 27.75 80.2459 27.408 80.4019 27.012C80.5579 26.604 80.6359 26.148 80.6359 25.644V25.428C80.6359 24.948 80.5579 24.51 80.4019 24.114C80.2459 23.706 80.0299 23.358 79.7539 23.07C79.4779 22.782 79.1539 22.56 78.7819 22.404C78.4099 22.236 78.0139 22.152 77.5939 22.152C77.1739 22.152 76.7779 22.236 76.4059 22.404C76.0339 22.56 75.7099 22.782 75.4339 23.07C75.1579 23.358 74.9419 23.706 74.7859 24.114C74.6299 24.51 74.5519 24.948 74.5519 25.428V25.644C74.5519 26.148 74.6299 26.604 74.7859 27.012C74.9419 27.408 75.1579 27.75 75.4339 28.038C75.7099 28.326 76.0279 28.548 76.3879 28.704C76.7599 28.848 77.1619 28.92 77.5939 28.92ZM86.0774 30H84.6734V21.072H86.0774V22.584H86.2934C86.8454 21.408 87.8054 20.82 89.1734 20.82C90.2054 20.82 91.0274 21.144 91.6394 21.792C92.2514 22.428 92.5574 23.388 92.5574 24.672V30H91.1534V24.96C91.1534 24.024 90.9434 23.322 90.5234 22.854C90.1034 22.386 89.5334 22.152 88.8134 22.152C87.9614 22.152 87.2894 22.446 86.7974 23.034C86.3174 23.61 86.0774 24.384 86.0774 25.356V30ZM97.5489 23.376C97.5489 23.808 97.7289 24.138 98.0889 24.366C98.4609 24.594 99.1329 24.744 100.105 24.816C101.149 24.9 101.941 25.152 102.481 25.572C103.033 25.98 103.309 26.58 103.309 27.372V27.48C103.309 27.912 103.219 28.302 103.039 28.65C102.871 28.986 102.631 29.274 102.319 29.514C102.019 29.754 101.647 29.934 101.203 30.054C100.771 30.186 100.297 30.252 99.7809 30.252C99.0849 30.252 98.4849 30.162 97.9809 29.982C97.4889 29.79 97.0749 29.544 96.7389 29.244C96.4149 28.932 96.1689 28.584 96.0009 28.2C95.8329 27.804 95.7369 27.408 95.7129 27.012L97.0449 26.688C97.1049 27.372 97.3689 27.924 97.8369 28.344C98.3049 28.752 98.9289 28.956 99.7089 28.956C100.369 28.956 100.897 28.83 101.293 28.578C101.701 28.314 101.905 27.948 101.905 27.48C101.905 26.976 101.707 26.616 101.311 26.4C100.915 26.184 100.273 26.046 99.3849 25.986C98.3529 25.914 97.5609 25.674 97.0089 25.266C96.4569 24.858 96.1809 24.264 96.1809 23.484V23.376C96.1809 22.956 96.2709 22.59 96.4509 22.278C96.6309 21.954 96.8709 21.684 97.1709 21.468C97.4829 21.252 97.8309 21.09 98.2149 20.982C98.5989 20.874 99.0009 20.82 99.4209 20.82C100.009 20.82 100.525 20.904 100.969 21.072C101.413 21.228 101.785 21.438 102.085 21.702C102.385 21.954 102.613 22.248 102.769 22.584C102.937 22.92 103.045 23.256 103.093 23.592L101.761 23.916C101.701 23.34 101.467 22.89 101.059 22.566C100.663 22.242 100.141 22.08 99.4929 22.08C99.2409 22.08 98.9949 22.11 98.7549 22.17C98.5269 22.218 98.3229 22.296 98.1429 22.404C97.9629 22.512 97.8189 22.65 97.7109 22.818C97.6029 22.974 97.5489 23.16 97.5489 23.376ZM109.488 18.408C109.488 18.06 109.608 17.766 109.848 17.526C110.1 17.274 110.4 17.148 110.748 17.148C111.096 17.148 111.39 17.274 111.63 17.526C111.882 17.766 112.008 18.06 112.008 18.408C112.008 18.756 111.882 19.056 111.63 19.308C111.39 19.548 111.096 19.668 110.748 19.668C110.4 19.668 110.1 19.548 109.848 19.308C109.608 19.056 109.488 18.756 109.488 18.408ZM106.932 28.704H110.064V22.368H107.256V21.072H111.468V28.704H114.384V30H106.932V28.704ZM123.048 30H120.276L117.162 21.072H118.818L121.554 29.352H121.77L124.506 21.072H126.162L123.048 30ZM129.785 25.968C129.821 26.856 130.097 27.57 130.613 28.11C131.129 28.65 131.849 28.92 132.773 28.92C133.193 28.92 133.559 28.872 133.871 28.776C134.183 28.68 134.447 28.548 134.663 28.38C134.891 28.212 135.071 28.02 135.203 27.804C135.347 27.576 135.461 27.336 135.545 27.084L136.877 27.444C136.625 28.272 136.157 28.95 135.473 29.478C134.801 29.994 133.889 30.252 132.737 30.252C132.101 30.252 131.513 30.144 130.973 29.928C130.445 29.7 129.989 29.382 129.605 28.974C129.221 28.566 128.921 28.08 128.705 27.516C128.489 26.952 128.381 26.328 128.381 25.644V25.212C128.381 24.588 128.489 24.006 128.705 23.466C128.933 22.926 129.245 22.464 129.641 22.08C130.037 21.684 130.499 21.378 131.027 21.162C131.567 20.934 132.149 20.82 132.773 20.82C133.505 20.82 134.135 20.958 134.663 21.234C135.203 21.498 135.641 21.828 135.977 22.224C136.325 22.62 136.577 23.052 136.733 23.52C136.901 23.988 136.985 24.42 136.985 24.816V25.968H129.785ZM132.773 22.152C132.377 22.152 132.005 22.218 131.657 22.35C131.321 22.47 131.021 22.644 130.757 22.872C130.505 23.1 130.295 23.37 130.127 23.682C129.971 23.982 129.869 24.312 129.821 24.672H135.581C135.557 24.288 135.461 23.94 135.293 23.628C135.137 23.316 134.927 23.052 134.663 22.836C134.411 22.62 134.117 22.452 133.781 22.332C133.457 22.212 133.121 22.152 132.773 22.152Z" fill="white"/>
</svg>
