<svg width="161" height="50" viewBox="0 0 161 50" fill="none" xmlns="http://www.w3.org/2000/svg">
<rect width="161" height="50" rx="25" fill="#191919"/>
<path d="M32.844 31H30.9V18.94H37.164C39.9 18.94 41.592 20.236 41.592 22.486C41.592 24.484 40.278 25.708 38.01 25.834V25.96C38.946 26.212 39.378 26.752 39.81 27.508L41.826 31H39.594L37.668 27.67C37.128 26.716 36.57 26.32 35.058 26.32H32.844V31ZM32.844 20.686V24.826H37.146C38.766 24.826 39.576 24.268 39.576 22.756C39.576 21.28 38.766 20.686 37.146 20.686H32.844ZM47.4938 31.18C44.5598 31.18 42.6338 29.524 42.6338 26.536C42.6338 23.746 44.5418 21.874 47.4578 21.874C50.2298 21.874 52.1198 23.404 52.1198 26.122C52.1198 26.446 52.1018 26.698 52.0478 26.968H44.4518C44.5238 28.696 45.3698 29.614 47.4398 29.614C49.3118 29.614 50.0858 29.002 50.0858 27.94V27.796H52.0298V27.958C52.0298 29.866 50.1578 31.18 47.4938 31.18ZM47.4218 23.404C45.4418 23.404 44.5778 24.286 44.4697 25.888H50.2838V25.852C50.2838 24.196 49.3298 23.404 47.4218 23.404ZM57.8058 31.18C54.9258 31.18 53.2878 30.046 53.2878 27.976V27.922H55.2318V28.066C55.2318 29.236 55.9338 29.614 57.8058 29.614C59.5518 29.614 60.0738 29.254 60.0738 28.462C60.0738 27.724 59.6418 27.49 58.3638 27.31L55.9158 26.986C54.2238 26.77 53.1978 26.05 53.1978 24.556C53.1978 22.99 54.6198 21.874 57.3738 21.874C60.1098 21.874 61.7658 22.972 61.7658 25.096V25.15H59.8398V25.042C59.8398 23.98 59.2998 23.422 57.3198 23.422C55.6818 23.422 55.1058 23.782 55.1058 24.628C55.1058 25.33 55.4658 25.582 56.8158 25.762L58.8858 26.05C61.0098 26.32 61.9818 27.04 61.9818 28.516C61.9818 30.19 60.3258 31.18 57.8058 31.18ZM65.3284 34.06H63.3844V22.054H65.1664V24.538H65.3284C65.6884 22.882 66.9484 21.874 69.0544 21.874C71.8264 21.874 73.3924 23.764 73.3924 26.536C73.3924 29.308 71.8624 31.18 69.0724 31.18C67.0564 31.18 65.7604 30.118 65.4004 28.48H65.3284V34.06ZM65.3284 26.68C65.3284 28.516 66.4984 29.416 68.4064 29.416C70.3324 29.416 71.4484 28.678 71.4484 26.536C71.4484 24.376 70.3144 23.656 68.4424 23.656C66.4444 23.656 65.3284 24.592 65.3284 26.518V26.68ZM79.3118 31.18C76.3418 31.18 74.3438 29.29 74.3438 26.536C74.3438 23.746 76.3418 21.874 79.3118 21.874C82.2998 21.874 84.2978 23.746 84.2978 26.536C84.2978 29.29 82.2998 31.18 79.3118 31.18ZM79.3118 29.452C81.4898 29.452 82.3898 28.426 82.3898 26.536C82.3898 24.628 81.4898 23.584 79.3118 23.584C77.1518 23.584 76.2518 24.628 76.2518 26.536C76.2518 28.426 77.1518 29.452 79.3118 29.452ZM87.6526 31H85.7086V22.054H87.4906V24.826H87.6166C87.8866 23.314 89.0746 21.874 91.3426 21.874C93.8266 21.874 95.0506 23.548 95.0506 25.618V31H93.1066V26.14C93.1066 24.466 92.3506 23.62 90.4966 23.62C88.5346 23.62 87.6526 24.628 87.6526 26.572V31ZM101.013 31.18C98.1328 31.18 96.4948 30.046 96.4948 27.976V27.922H98.4388V28.066C98.4388 29.236 99.1408 29.614 101.013 29.614C102.759 29.614 103.281 29.254 103.281 28.462C103.281 27.724 102.849 27.49 101.571 27.31L99.1228 26.986C97.4308 26.77 96.4048 26.05 96.4048 24.556C96.4048 22.99 97.8268 21.874 100.581 21.874C103.317 21.874 104.973 22.972 104.973 25.096V25.15H103.047V25.042C103.047 23.98 102.507 23.422 100.527 23.422C98.8888 23.422 98.3128 23.782 98.3128 24.628C98.3128 25.33 98.6728 25.582 100.023 25.762L102.093 26.05C104.217 26.32 105.189 27.04 105.189 28.516C105.189 30.19 103.533 31.18 101.013 31.18ZM108.535 21.01H106.591V18.94H108.535V21.01ZM108.535 31H106.591V22.054H108.535V31ZM116.078 31H113.702L109.526 22.054H111.668L114.854 29.11H114.998L118.184 22.054H120.29L116.078 31ZM125.787 31.18C122.853 31.18 120.927 29.524 120.927 26.536C120.927 23.746 122.835 21.874 125.751 21.874C128.523 21.874 130.413 23.404 130.413 26.122C130.413 26.446 130.395 26.698 130.341 26.968H122.745C122.817 28.696 123.663 29.614 125.733 29.614C127.605 29.614 128.379 29.002 128.379 27.94V27.796H130.323V27.958C130.323 29.866 128.451 31.18 125.787 31.18ZM125.715 23.404C123.735 23.404 122.871 24.286 122.763 25.888H128.577V25.852C128.577 24.196 127.623 23.404 125.715 23.404Z" fill="#F1F1F1"/>
</svg>
