<svg width="158" height="50" viewBox="0 0 158 50" fill="none" xmlns="http://www.w3.org/2000/svg">
<rect width="158" height="50" rx="25" fill="#191919"/>
<path d="M36.894 31H34.968V20.686H30.216V18.94H41.628V20.686H36.894V31ZM44.2052 34.06H42.9272V32.296H44.6732C45.4652 32.296 45.7892 32.08 46.0592 31.468L46.2752 31L41.8652 22.054H44.0432L46.3292 26.806L47.2112 28.948H47.3552L48.2012 26.788L50.3072 22.054H52.4492L47.7872 31.972C47.0492 33.574 46.0412 34.06 44.2052 34.06ZM55.344 34.06H53.4V22.054H55.182V24.538H55.344C55.704 22.882 56.964 21.874 59.07 21.874C61.842 21.874 63.408 23.764 63.408 26.536C63.408 29.308 61.878 31.18 59.088 31.18C57.072 31.18 55.776 30.118 55.416 28.48H55.344V34.06ZM55.344 26.68C55.344 28.516 56.514 29.416 58.422 29.416C60.348 29.416 61.464 28.678 61.464 26.536C61.464 24.376 60.33 23.656 58.458 23.656C56.46 23.656 55.344 24.592 55.344 26.518V26.68ZM69.2555 31.18C66.3215 31.18 64.3955 29.524 64.3955 26.536C64.3955 23.746 66.3035 21.874 69.2195 21.874C71.9915 21.874 73.8815 23.404 73.8815 26.122C73.8815 26.446 73.8635 26.698 73.8095 26.968H66.2135C66.2855 28.696 67.1315 29.614 69.2015 29.614C71.0735 29.614 71.8475 29.002 71.8475 27.94V27.796H73.7915V27.958C73.7915 29.866 71.9195 31.18 69.2555 31.18ZM69.1835 23.404C67.2035 23.404 66.3395 24.286 66.2315 25.888H72.0455V25.852C72.0455 24.196 71.0915 23.404 69.1835 23.404ZM80.3955 31.18C76.7955 31.18 74.9595 29.596 74.9595 27.058V26.95H76.9035V27.238C76.9035 28.678 77.7495 29.398 80.3955 29.398C82.6995 29.398 83.5095 28.894 83.5095 27.76C83.5095 26.716 82.8975 26.32 81.3675 26.032L78.4155 25.546C76.3815 25.186 74.9415 24.25 74.9415 22.27C74.9415 20.524 76.3815 18.76 80.1255 18.76C83.6535 18.76 85.2555 20.524 85.2555 22.882V22.99H83.3295V22.756C83.3295 21.28 82.4475 20.542 79.9455 20.542C77.7495 20.542 76.8855 21.082 76.8855 22.162C76.8855 23.206 77.4975 23.548 78.9195 23.854L81.8535 24.358C84.2655 24.79 85.4535 25.888 85.4535 27.652C85.4535 29.488 83.9595 31.18 80.3955 31.18ZM91.3516 31.18C88.3996 31.18 86.4736 29.29 86.4736 26.536C86.4736 23.746 88.3996 21.874 91.3516 21.874C94.0336 21.874 95.9956 23.386 95.9956 25.618V25.798H94.0696V25.69C94.0696 24.304 93.0616 23.62 91.3156 23.62C89.2996 23.62 88.3996 24.574 88.3996 26.536C88.3996 28.462 89.2996 29.434 91.3156 29.434C93.0616 29.434 94.0696 28.75 94.0696 27.364V27.238H95.9956V27.436C95.9956 29.668 94.0336 31.18 91.3516 31.18ZM99.3772 31H97.4332V22.054H99.2152V24.466H99.3412C99.6112 23.026 100.583 21.874 102.419 21.874C104.453 21.874 105.335 23.332 105.335 25.024V26.194H103.409V25.402C103.409 24.124 102.869 23.53 101.537 23.53C100.007 23.53 99.3772 24.376 99.3772 25.978V31ZM108.5 21.01H106.556V18.94H108.5V21.01ZM108.5 31H106.556V22.054H108.5V31ZM112.244 34.06H110.3V22.054H112.082V24.538H112.244C112.604 22.882 113.864 21.874 115.97 21.874C118.742 21.874 120.308 23.764 120.308 26.536C120.308 29.308 118.778 31.18 115.988 31.18C113.972 31.18 112.676 30.118 112.316 28.48H112.244V34.06ZM112.244 26.68C112.244 28.516 113.414 29.416 115.322 29.416C117.248 29.416 118.364 28.678 118.364 26.536C118.364 24.376 117.23 23.656 115.358 23.656C113.36 23.656 112.244 24.592 112.244 26.518V26.68ZM127.524 31H125.472C123.546 31 122.358 30.154 122.358 27.976V23.674H120.846V22.054H122.358V20.092H124.284V22.054H127.524V23.674H124.284V27.868C124.284 28.966 124.788 29.254 125.904 29.254H127.524V31Z" fill="#F1F1F1"/>
</svg>
