<svg width="111" height="50" viewBox="0 0 111 50" fill="none" xmlns="http://www.w3.org/2000/svg">
<rect width="111" height="50" rx="25" fill="#191919"/>
<path d="M36.48 31.18C32.88 31.18 30.828 29.272 30.828 25.996V18.94H32.754V25.87C32.754 28.3 33.834 29.308 36.48 29.308C39.126 29.308 40.206 28.3 40.206 25.87V18.94H42.15V25.996C42.15 29.272 40.098 31.18 36.48 31.18ZM45.8167 31H43.8727V18.94H45.8167V31ZM48.4268 31.36H46.3568L52.8368 18.58H54.9068L48.4268 31.36ZM60.9488 31.18C57.3488 31.18 55.2968 29.272 55.2968 25.996V18.94H57.2228V25.87C57.2228 28.3 58.3028 29.308 60.9488 29.308C63.5948 29.308 64.6748 28.3 64.6748 25.87V18.94H66.6188V25.996C66.6188 29.272 64.5668 31.18 60.9488 31.18ZM69.9614 31H67.4414L72.3014 25.006V24.862L67.4414 18.94H69.9614L73.8854 23.692H74.0294L77.8634 18.94H80.3834L75.5234 24.88V25.024L80.3834 31H77.8634L73.9574 26.158H73.8134L69.9614 31Z" fill="#F1F1F1"/>
</svg>
