<svg width="112" height="47" viewBox="0 0 112 47" fill="none" xmlns="http://www.w3.org/2000/svg">
<rect width="112" height="47" rx="23.5" fill="#252525"/>
<path d="M30.7 17.4V25.752C30.7 26.772 30.934 27.546 31.402 28.074C31.882 28.59 32.584 28.848 33.508 28.848C34.432 28.848 35.128 28.59 35.596 28.074C36.076 27.546 36.316 26.772 36.316 25.752V17.4H37.828V25.752C37.828 27.216 37.444 28.332 36.676 29.1C35.908 29.868 34.852 30.252 33.508 30.252C32.164 30.252 31.108 29.868 30.34 29.1C29.572 28.332 29.188 27.216 29.188 25.752V17.4H30.7ZM40.5335 17.4H48.5255V18.804H45.2855V28.596H48.5255V30H40.5335V28.596H43.7735V18.804H40.5335V17.4ZM57.549 15.492L58.809 15.888L53.571 31.908L52.293 31.512L57.549 15.492ZM63.7645 17.4V25.752C63.7645 26.772 63.9985 27.546 64.4665 28.074C64.9465 28.59 65.6485 28.848 66.5725 28.848C67.4965 28.848 68.1925 28.59 68.6605 28.074C69.1405 27.546 69.3805 26.772 69.3805 25.752V17.4H70.8925V25.752C70.8925 27.216 70.5085 28.332 69.7405 29.1C68.9725 29.868 67.9165 30.252 66.5725 30.252C65.2285 30.252 64.1725 29.868 63.4045 29.1C62.6365 28.332 62.2525 27.216 62.2525 25.752V17.4H63.7645ZM74.6059 17.4L77.4319 22.98H77.7559L80.5819 17.4H82.2379L79.0879 23.574V23.79L82.2379 30H80.5819L77.7559 24.384H77.4319L74.6059 30H72.9499L76.0999 23.79V23.574L72.9499 17.4H74.6059Z" fill="white"/>
</svg>
