<svg width="112" height="47" viewBox="0 0 112 47" fill="none" xmlns="http://www.w3.org/2000/svg">
<rect width="112" height="47" rx="23.5" fill="#252525"/>
<path d="M28.486 17.4H30.106L33.4 29.352H33.616L36.91 17.4H38.53L34.966 30H32.05L28.486 17.4ZM46.9595 21.072H48.3635V30H46.9595V28.38H46.7435C46.4555 28.956 46.0775 29.412 45.6095 29.748C45.1415 30.084 44.5475 30.252 43.8275 30.252C43.3355 30.252 42.8795 30.168 42.4595 30C42.0515 29.844 41.6975 29.604 41.3975 29.28C41.1095 28.956 40.8815 28.554 40.7135 28.074C40.5575 27.594 40.4795 27.036 40.4795 26.4V21.072H41.8835V26.22C41.8835 27.156 42.0755 27.84 42.4595 28.272C42.8435 28.704 43.4315 28.92 44.2235 28.92C45.0755 28.92 45.7415 28.632 46.2215 28.056C46.7135 27.468 46.9595 26.688 46.9595 25.716V21.072ZM52.635 25.968C52.671 26.856 52.947 27.57 53.463 28.11C53.979 28.65 54.699 28.92 55.623 28.92C56.043 28.92 56.409 28.872 56.721 28.776C57.033 28.68 57.297 28.548 57.513 28.38C57.741 28.212 57.921 28.02 58.053 27.804C58.197 27.576 58.311 27.336 58.395 27.084L59.727 27.444C59.475 28.272 59.007 28.95 58.323 29.478C57.651 29.994 56.739 30.252 55.587 30.252C54.951 30.252 54.363 30.144 53.823 29.928C53.295 29.7 52.839 29.382 52.455 28.974C52.071 28.566 51.771 28.08 51.555 27.516C51.339 26.952 51.231 26.328 51.231 25.644V25.212C51.231 24.588 51.339 24.006 51.555 23.466C51.783 22.926 52.095 22.464 52.491 22.08C52.887 21.684 53.349 21.378 53.877 21.162C54.417 20.934 54.999 20.82 55.623 20.82C56.355 20.82 56.985 20.958 57.513 21.234C58.053 21.498 58.491 21.828 58.827 22.224C59.175 22.62 59.427 23.052 59.583 23.52C59.751 23.988 59.835 24.42 59.835 24.816V25.968H52.635ZM55.623 22.152C55.227 22.152 54.855 22.218 54.507 22.35C54.171 22.47 53.871 22.644 53.607 22.872C53.355 23.1 53.145 23.37 52.977 23.682C52.821 23.982 52.719 24.312 52.671 24.672H58.431C58.407 24.288 58.311 23.94 58.143 23.628C57.987 23.316 57.777 23.052 57.513 22.836C57.261 22.62 56.967 22.452 56.631 22.332C56.307 22.212 55.971 22.152 55.623 22.152ZM66.5905 18.408C66.5905 18.06 66.7105 17.766 66.9505 17.526C67.2025 17.274 67.5025 17.148 67.8505 17.148C68.1985 17.148 68.4925 17.274 68.7325 17.526C68.9845 17.766 69.1105 18.06 69.1105 18.408C69.1105 18.756 68.9845 19.056 68.7325 19.308C68.4925 19.548 68.1985 19.668 67.8505 19.668C67.5025 19.668 67.2025 19.548 66.9505 19.308C66.7105 19.056 66.5905 18.756 66.5905 18.408ZM63.6025 21.072H68.5705V32.196C68.5705 32.604 68.4385 32.94 68.1745 33.204C67.9225 33.468 67.5925 33.6 67.1845 33.6H63.1705V32.304H66.6805C67.0045 32.304 67.1665 32.124 67.1665 31.764V22.368H63.6025V21.072ZM75.5059 23.376C75.5059 23.808 75.6859 24.138 76.0459 24.366C76.4179 24.594 77.0899 24.744 78.0619 24.816C79.1059 24.9 79.8979 25.152 80.4379 25.572C80.9899 25.98 81.2659 26.58 81.2659 27.372V27.48C81.2659 27.912 81.1759 28.302 80.9959 28.65C80.8279 28.986 80.5879 29.274 80.2759 29.514C79.9759 29.754 79.6039 29.934 79.1599 30.054C78.7279 30.186 78.2539 30.252 77.7379 30.252C77.0419 30.252 76.4419 30.162 75.9379 29.982C75.4459 29.79 75.0319 29.544 74.6959 29.244C74.3719 28.932 74.1259 28.584 73.9579 28.2C73.7899 27.804 73.6939 27.408 73.6699 27.012L75.0019 26.688C75.0619 27.372 75.3259 27.924 75.7939 28.344C76.2619 28.752 76.8859 28.956 77.6659 28.956C78.3259 28.956 78.8539 28.83 79.2499 28.578C79.6579 28.314 79.8619 27.948 79.8619 27.48C79.8619 26.976 79.6639 26.616 79.2679 26.4C78.8719 26.184 78.2299 26.046 77.3419 25.986C76.3099 25.914 75.5179 25.674 74.9659 25.266C74.4139 24.858 74.1379 24.264 74.1379 23.484V23.376C74.1379 22.956 74.2279 22.59 74.4079 22.278C74.5879 21.954 74.8279 21.684 75.1279 21.468C75.4399 21.252 75.7879 21.09 76.1719 20.982C76.5559 20.874 76.9579 20.82 77.3779 20.82C77.9659 20.82 78.4819 20.904 78.9259 21.072C79.3699 21.228 79.7419 21.438 80.0419 21.702C80.3419 21.954 80.5699 22.248 80.7259 22.584C80.8939 22.92 81.0019 23.256 81.0499 23.592L79.7179 23.916C79.6579 23.34 79.4239 22.89 79.0159 22.566C78.6199 22.242 78.0979 22.08 77.4499 22.08C77.1979 22.08 76.9519 22.11 76.7119 22.17C76.4839 22.218 76.2799 22.296 76.0999 22.404C75.9199 22.512 75.7759 22.65 75.6679 22.818C75.5599 22.974 75.5059 23.16 75.5059 23.376Z" fill="white"/>
</svg>
