<svg width="109" height="50" viewBox="0 0 109 50" fill="none" xmlns="http://www.w3.org/2000/svg">
<rect width="109" height="50" rx="25" fill="#191919"/>
<path d="M37.812 31H35.058L29.91 18.94H32.214L36.39 29.038H36.534L40.674 18.94H42.96L37.812 31ZM47.5108 31.18C44.9908 31.18 43.7668 29.506 43.7668 27.436V22.054H45.6928V26.914C45.6928 28.588 46.4668 29.434 48.3568 29.434C50.3368 29.434 51.2548 28.426 51.2548 26.482V22.054H53.1808V31H51.3988V28.228H51.2908C51.0028 29.74 49.8148 31.18 47.5108 31.18ZM59.4469 31.18C56.5129 31.18 54.5869 29.524 54.5869 26.536C54.5869 23.746 56.4949 21.874 59.4109 21.874C62.1829 21.874 64.0729 23.404 64.0729 26.122C64.0729 26.446 64.0549 26.698 64.0009 26.968H56.4049C56.4769 28.696 57.3229 29.614 59.3929 29.614C61.2649 29.614 62.0389 29.002 62.0389 27.94V27.796H63.9829V27.958C63.9829 29.866 62.1109 31.18 59.4469 31.18ZM59.3749 23.404C57.3949 23.404 56.5309 24.286 56.4229 25.888H62.2369V25.852C62.2369 24.196 61.2829 23.404 59.3749 23.404ZM67.4909 21.01H65.5469V18.94H67.4909V21.01ZM64.3229 34.06H63.7649V32.566H64.3769C65.1329 32.566 65.5469 32.26 65.5469 31.45V22.054H67.4909V31.108C67.4909 33.34 66.2129 34.06 64.3229 34.06ZM73.5206 31.18C70.6406 31.18 69.0026 30.046 69.0026 27.976V27.922H70.9466V28.066C70.9466 29.236 71.6486 29.614 73.5206 29.614C75.2666 29.614 75.7886 29.254 75.7886 28.462C75.7886 27.724 75.3566 27.49 74.0786 27.31L71.6306 26.986C69.9386 26.77 68.9126 26.05 68.9126 24.556C68.9126 22.99 70.3346 21.874 73.0886 21.874C75.8246 21.874 77.4806 22.972 77.4806 25.096V25.15H75.5546V25.042C75.5546 23.98 75.0146 23.422 73.0346 23.422C71.3966 23.422 70.8206 23.782 70.8206 24.628C70.8206 25.33 71.1806 25.582 72.5306 25.762L74.6006 26.05C76.7246 26.32 77.6966 27.04 77.6966 28.516C77.6966 30.19 76.0406 31.18 73.5206 31.18Z" fill="#F1F1F1"/>
</svg>
