<svg width="123" height="47" viewBox="0 0 123 47" fill="none" xmlns="http://www.w3.org/2000/svg">
<rect width="123" height="47" rx="23.5" fill="#252525"/>
<path d="M37.54 30H34.786L33.616 18.048H33.4L32.23 30H29.476L28.198 17.4H29.566L30.772 29.352H30.988L32.122 17.4H34.894L36.028 29.352H36.244L37.45 17.4H38.818L37.54 30ZM41.6135 25.968C41.6495 26.856 41.9255 27.57 42.4415 28.11C42.9575 28.65 43.6775 28.92 44.6015 28.92C45.0215 28.92 45.3875 28.872 45.6995 28.776C46.0115 28.68 46.2755 28.548 46.4915 28.38C46.7195 28.212 46.8995 28.02 47.0315 27.804C47.1755 27.576 47.2895 27.336 47.3735 27.084L48.7055 27.444C48.4535 28.272 47.9855 28.95 47.3015 29.478C46.6295 29.994 45.7175 30.252 44.5655 30.252C43.9295 30.252 43.3415 30.144 42.8015 29.928C42.2735 29.7 41.8175 29.382 41.4335 28.974C41.0495 28.566 40.7495 28.08 40.5335 27.516C40.3175 26.952 40.2095 26.328 40.2095 25.644V25.212C40.2095 24.588 40.3175 24.006 40.5335 23.466C40.7615 22.926 41.0735 22.464 41.4695 22.08C41.8655 21.684 42.3275 21.378 42.8555 21.162C43.3955 20.934 43.9775 20.82 44.6015 20.82C45.3335 20.82 45.9635 20.958 46.4915 21.234C47.0315 21.498 47.4695 21.828 47.8055 22.224C48.1535 22.62 48.4055 23.052 48.5615 23.52C48.7295 23.988 48.8135 24.42 48.8135 24.816V25.968H41.6135ZM44.6015 22.152C44.2055 22.152 43.8335 22.218 43.4855 22.35C43.1495 22.47 42.8495 22.644 42.5855 22.872C42.3335 23.1 42.1235 23.37 41.9555 23.682C41.7995 23.982 41.6975 24.312 41.6495 24.672H47.4095C47.3855 24.288 47.2895 23.94 47.1215 23.628C46.9655 23.316 46.7555 23.052 46.4915 22.836C46.2395 22.62 45.9455 22.452 45.6095 22.332C45.2855 22.212 44.9495 22.152 44.6015 22.152ZM52.689 30H51.285V17.4H52.689V22.476H52.905C53.217 21.936 53.649 21.528 54.201 21.252C54.753 20.964 55.353 20.82 56.001 20.82C56.553 20.82 57.075 20.922 57.567 21.126C58.059 21.33 58.491 21.624 58.863 22.008C59.247 22.392 59.547 22.866 59.763 23.43C59.991 23.994 60.105 24.636 60.105 25.356V25.716C60.105 26.448 59.997 27.096 59.781 27.66C59.565 28.224 59.265 28.698 58.881 29.082C58.509 29.466 58.071 29.76 57.567 29.964C57.063 30.156 56.529 30.252 55.965 30.252C55.677 30.252 55.383 30.216 55.083 30.144C54.783 30.084 54.495 29.988 54.219 29.856C53.955 29.712 53.709 29.544 53.481 29.352C53.253 29.148 53.061 28.908 52.905 28.632H52.689V30ZM55.677 28.92C56.109 28.92 56.505 28.848 56.865 28.704C57.225 28.548 57.537 28.332 57.801 28.056C58.077 27.78 58.287 27.444 58.431 27.048C58.587 26.652 58.665 26.208 58.665 25.716V25.356C58.665 24.876 58.587 24.444 58.431 24.06C58.287 23.664 58.077 23.328 57.801 23.052C57.537 22.764 57.219 22.542 56.847 22.386C56.487 22.23 56.097 22.152 55.677 22.152C55.257 22.152 54.867 22.236 54.507 22.404C54.147 22.56 53.829 22.782 53.553 23.07C53.289 23.358 53.079 23.706 52.923 24.114C52.767 24.51 52.689 24.948 52.689 25.428V25.644C52.689 26.136 52.767 26.586 52.923 26.994C53.079 27.39 53.289 27.732 53.553 28.02C53.829 28.308 54.147 28.53 54.507 28.686C54.867 28.842 55.257 28.92 55.677 28.92ZM68.5525 18.696H65.9245C65.6005 18.696 65.4385 18.876 65.4385 19.236V21.072H67.6885V22.368H65.4385V30H64.0345V22.368H61.9285V21.072H64.0345V18.804C64.0345 18.396 64.1605 18.06 64.4125 17.796C64.6765 17.532 65.0125 17.4 65.4205 17.4H69.9565V30H68.5525V18.696ZM82.0759 25.644C82.0759 26.388 81.9499 27.048 81.6979 27.624C81.4579 28.188 81.1339 28.668 80.7259 29.064C80.3179 29.448 79.8379 29.742 79.2859 29.946C78.7459 30.15 78.1819 30.252 77.5939 30.252C76.9939 30.252 76.4239 30.15 75.8839 29.946C75.3439 29.742 74.8699 29.448 74.4619 29.064C74.0539 28.668 73.7239 28.188 73.4719 27.624C73.2319 27.048 73.1119 26.388 73.1119 25.644V25.428C73.1119 24.696 73.2319 24.048 73.4719 23.484C73.7239 22.908 74.0539 22.422 74.4619 22.026C74.8819 21.63 75.3619 21.33 75.9019 21.126C76.4419 20.922 77.0059 20.82 77.5939 20.82C78.1819 20.82 78.7459 20.922 79.2859 21.126C79.8259 21.33 80.2999 21.63 80.7079 22.026C81.1279 22.422 81.4579 22.908 81.6979 23.484C81.9499 24.048 82.0759 24.696 82.0759 25.428V25.644ZM77.5939 28.92C78.0259 28.92 78.4219 28.848 78.7819 28.704C79.1539 28.548 79.4779 28.326 79.7539 28.038C80.0299 27.75 80.2459 27.408 80.4019 27.012C80.5579 26.604 80.6359 26.148 80.6359 25.644V25.428C80.6359 24.948 80.5579 24.51 80.4019 24.114C80.2459 23.706 80.0299 23.358 79.7539 23.07C79.4779 22.782 79.1539 22.56 78.7819 22.404C78.4099 22.236 78.0139 22.152 77.5939 22.152C77.1739 22.152 76.7779 22.236 76.4059 22.404C76.0339 22.56 75.7099 22.782 75.4339 23.07C75.1579 23.358 74.9419 23.706 74.7859 24.114C74.6299 24.51 74.5519 24.948 74.5519 25.428V25.644C74.5519 26.148 74.6299 26.604 74.7859 27.012C74.9419 27.408 75.1579 27.75 75.4339 28.038C75.7099 28.326 76.0279 28.548 76.3879 28.704C76.7599 28.848 77.1619 28.92 77.5939 28.92ZM92.3954 30H89.8034L88.7234 21.72H88.5074L87.4274 30H84.8354L83.4314 21.072H84.8714L86.0594 29.352H86.2754L87.3194 21.072H89.9114L90.9554 29.352H91.1714L92.3594 21.072H93.7994L92.3954 30Z" fill="white"/>
</svg>
