<svg width="139" height="50" viewBox="0 0 139 50" fill="none" xmlns="http://www.w3.org/2000/svg">
<rect width="139" height="50" rx="25" fill="#191919"/>
<path d="M36.3 31H33.438L30.252 18.94H32.412L34.374 26.572L34.914 29.128H35.058L35.706 26.572L38.136 18.94H40.962L43.554 26.572L44.238 29.128H44.382L44.886 26.572L46.686 18.94H48.81L45.786 31H42.924L40.494 23.98L39.612 20.884H39.45L38.586 23.98L36.3 31ZM54.4547 31.18C51.5207 31.18 49.5947 29.524 49.5947 26.536C49.5947 23.746 51.5027 21.874 54.4187 21.874C57.1907 21.874 59.0807 23.404 59.0807 26.122C59.0807 26.446 59.0627 26.698 59.0087 26.968H51.4127C51.4847 28.696 52.3307 29.614 54.4007 29.614C56.2727 29.614 57.0467 29.002 57.0467 27.94V27.796H58.9907V27.958C58.9907 29.866 57.1187 31.18 54.4547 31.18ZM54.3827 23.404C52.4027 23.404 51.5387 24.286 51.4307 25.888H57.2447V25.852C57.2447 24.196 56.2907 23.404 54.3827 23.404ZM62.3187 31H60.5367V18.94H62.4807V24.484H62.5887C62.9487 22.972 64.1367 21.874 66.2787 21.874C69.0327 21.874 70.5447 23.746 70.5447 26.536C70.5447 29.29 69.0147 31.18 66.1707 31.18C64.1367 31.18 62.8227 30.208 62.4447 28.426H62.3187V31ZM62.4807 26.626C62.4807 28.498 63.6327 29.398 65.5587 29.398C67.5207 29.398 68.6007 28.678 68.6007 26.536C68.6007 24.376 67.5027 23.638 65.5947 23.638C63.5787 23.638 62.4807 24.574 62.4807 26.482V26.626ZM74.5202 31H72.5762V23.674H71.2262V22.054H72.5942C72.8102 20.092 74.3042 18.94 76.8422 18.94H77.7242V20.38H76.5362C75.1142 20.38 74.3762 20.758 74.4842 22.054H77.7242V23.674H74.5202V31ZM80.7482 31H78.8042V18.94H80.7482V31ZM87.1165 31.18C84.1465 31.18 82.1485 29.29 82.1485 26.536C82.1485 23.746 84.1465 21.874 87.1165 21.874C90.1045 21.874 92.1025 23.746 92.1025 26.536C92.1025 29.29 90.1045 31.18 87.1165 31.18ZM87.1165 29.452C89.2945 29.452 90.1945 28.426 90.1945 26.536C90.1945 24.628 89.2945 23.584 87.1165 23.584C84.9565 23.584 84.0565 24.628 84.0565 26.536C84.0565 28.426 84.9565 29.452 87.1165 29.452ZM97.7973 31H95.3853L92.7033 22.054H94.7193L96.2133 27.13L96.6273 29.434H96.7713L97.4373 26.95L99.3093 22.054H101.793L103.683 26.95L104.349 29.434H104.493L104.907 27.13L106.401 22.054H108.381L105.663 31H103.251L101.289 25.852L100.605 23.656H100.461L99.7773 25.852L97.7973 31Z" fill="#F1F1F1"/>
</svg>
