<svg width="156" height="47" viewBox="0 0 156 47" fill="none" xmlns="http://www.w3.org/2000/svg">
<rect width="156" height="47" rx="23.5" fill="#252525"/>
<path d="M37.54 30H34.786L33.616 18.048H33.4L32.23 30H29.476L28.198 17.4H29.566L30.772 29.352H30.988L32.122 17.4H34.894L36.028 29.352H36.244L37.45 17.4H38.818L37.54 30ZM49.0115 25.644C49.0115 26.388 48.8855 27.048 48.6335 27.624C48.3935 28.188 48.0695 28.668 47.6615 29.064C47.2535 29.448 46.7735 29.742 46.2215 29.946C45.6815 30.15 45.1175 30.252 44.5295 30.252C43.9295 30.252 43.3595 30.15 42.8195 29.946C42.2795 29.742 41.8055 29.448 41.3975 29.064C40.9895 28.668 40.6595 28.188 40.4075 27.624C40.1675 27.048 40.0475 26.388 40.0475 25.644V25.428C40.0475 24.696 40.1675 24.048 40.4075 23.484C40.6595 22.908 40.9895 22.422 41.3975 22.026C41.8175 21.63 42.2975 21.33 42.8375 21.126C43.3775 20.922 43.9415 20.82 44.5295 20.82C45.1175 20.82 45.6815 20.922 46.2215 21.126C46.7615 21.33 47.2355 21.63 47.6435 22.026C48.0635 22.422 48.3935 22.908 48.6335 23.484C48.8855 24.048 49.0115 24.696 49.0115 25.428V25.644ZM44.5295 28.92C44.9615 28.92 45.3575 28.848 45.7175 28.704C46.0895 28.548 46.4135 28.326 46.6895 28.038C46.9655 27.75 47.1815 27.408 47.3375 27.012C47.4935 26.604 47.5715 26.148 47.5715 25.644V25.428C47.5715 24.948 47.4935 24.51 47.3375 24.114C47.1815 23.706 46.9655 23.358 46.6895 23.07C46.4135 22.782 46.0895 22.56 45.7175 22.404C45.3455 22.236 44.9495 22.152 44.5295 22.152C44.1095 22.152 43.7135 22.236 43.3415 22.404C42.9695 22.56 42.6455 22.782 42.3695 23.07C42.0935 23.358 41.8775 23.706 41.7215 24.114C41.5655 24.51 41.4875 24.948 41.4875 25.428V25.644C41.4875 26.148 41.5655 26.604 41.7215 27.012C41.8775 27.408 42.0935 27.75 42.3695 28.038C42.6455 28.326 42.9635 28.548 43.3235 28.704C43.6955 28.848 44.0975 28.92 44.5295 28.92ZM51.105 21.072H54.345V22.26H54.561C54.789 21.768 55.113 21.408 55.533 21.18C55.953 20.94 56.433 20.82 56.973 20.82C57.873 20.82 58.599 21.114 59.151 21.702C59.703 22.29 59.997 23.148 60.033 24.276L58.557 24.492C58.557 23.664 58.359 23.07 57.963 22.71C57.567 22.338 57.081 22.152 56.505 22.152C56.133 22.152 55.809 22.224 55.533 22.368C55.269 22.512 55.047 22.71 54.867 22.962C54.687 23.214 54.555 23.508 54.471 23.844C54.387 24.18 54.345 24.54 54.345 24.924V28.704H56.613V30H50.889V28.704H52.941V22.368H51.105V21.072ZM69.5425 28.632H69.3265C69.1825 28.908 68.9965 29.148 68.7685 29.352C68.5525 29.556 68.3125 29.724 68.0485 29.856C67.7965 29.988 67.5265 30.084 67.2385 30.144C66.9505 30.216 66.6745 30.252 66.4105 30.252C65.8105 30.252 65.2525 30.15 64.7365 29.946C64.2205 29.742 63.7645 29.448 63.3685 29.064C62.9845 28.68 62.6785 28.206 62.4505 27.642C62.2345 27.066 62.1265 26.412 62.1265 25.68V25.392C62.1265 24.672 62.2405 24.03 62.4685 23.466C62.6965 22.89 63.0025 22.41 63.3865 22.026C63.7705 21.63 64.2205 21.33 64.7365 21.126C65.2525 20.922 65.7985 20.82 66.3745 20.82C66.9865 20.82 67.5565 20.958 68.0845 21.234C68.6245 21.498 69.0385 21.912 69.3265 22.476H69.5425V17.4H70.9465V30H69.5425V28.632ZM66.5545 28.92C66.9745 28.92 67.3645 28.842 67.7245 28.686C68.0845 28.53 68.3965 28.308 68.6605 28.02C68.9365 27.732 69.1525 27.39 69.3085 26.994C69.4645 26.586 69.5425 26.136 69.5425 25.644V25.428C69.5425 24.948 69.4645 24.51 69.3085 24.114C69.1525 23.706 68.9365 23.358 68.6605 23.07C68.3965 22.782 68.0785 22.56 67.7065 22.404C67.3465 22.236 66.9625 22.152 66.5545 22.152C66.1345 22.152 65.7385 22.23 65.3665 22.386C65.0065 22.542 64.6885 22.764 64.4125 23.052C64.1485 23.34 63.9385 23.682 63.7825 24.078C63.6385 24.474 63.5665 24.912 63.5665 25.392V25.68C63.5665 26.184 63.6385 26.634 63.7825 27.03C63.9385 27.426 64.1485 27.768 64.4125 28.056C64.6885 28.332 65.0065 28.548 65.3665 28.704C65.7265 28.848 66.1225 28.92 66.5545 28.92ZM75.1279 24.816V30H73.6159V17.4H78.1159C78.7639 17.4 79.3279 17.496 79.8079 17.688C80.2879 17.868 80.6839 18.114 80.9959 18.426C81.3199 18.738 81.5599 19.104 81.7159 19.524C81.8839 19.932 81.9679 20.364 81.9679 20.82V21.36C81.9679 21.816 81.8839 22.254 81.7159 22.674C81.5599 23.094 81.3199 23.466 80.9959 23.79C80.6719 24.102 80.2699 24.354 79.7899 24.546C79.3099 24.726 78.7519 24.816 78.1159 24.816H75.1279ZM75.1279 23.412H77.9359C79.6159 23.412 80.4559 22.692 80.4559 21.252V20.928C80.4559 20.292 80.2459 19.782 79.8259 19.398C79.4179 19.002 78.7879 18.804 77.9359 18.804H75.1279V23.412ZM84.1694 21.072H87.4094V22.26H87.6254C87.8534 21.768 88.1774 21.408 88.5974 21.18C89.0174 20.94 89.4974 20.82 90.0374 20.82C90.9374 20.82 91.6634 21.114 92.2154 21.702C92.7674 22.29 93.0614 23.148 93.0974 24.276L91.6214 24.492C91.6214 23.664 91.4234 23.07 91.0274 22.71C90.6314 22.338 90.1454 22.152 89.5694 22.152C89.1974 22.152 88.8734 22.224 88.5974 22.368C88.3334 22.512 88.1114 22.71 87.9314 22.962C87.7514 23.214 87.6194 23.508 87.5354 23.844C87.4514 24.18 87.4094 24.54 87.4094 24.924V28.704H89.6774V30H83.9534V28.704H86.0054V22.368H84.1694V21.072ZM96.7209 25.968C96.7569 26.856 97.0329 27.57 97.5489 28.11C98.0649 28.65 98.7849 28.92 99.7089 28.92C100.129 28.92 100.495 28.872 100.807 28.776C101.119 28.68 101.383 28.548 101.599 28.38C101.827 28.212 102.007 28.02 102.139 27.804C102.283 27.576 102.397 27.336 102.481 27.084L103.813 27.444C103.561 28.272 103.093 28.95 102.409 29.478C101.737 29.994 100.825 30.252 99.6729 30.252C99.0369 30.252 98.4489 30.144 97.9089 29.928C97.3809 29.7 96.9249 29.382 96.5409 28.974C96.1569 28.566 95.8569 28.08 95.6409 27.516C95.4249 26.952 95.3169 26.328 95.3169 25.644V25.212C95.3169 24.588 95.4249 24.006 95.6409 23.466C95.8689 22.926 96.1809 22.464 96.5769 22.08C96.9729 21.684 97.4349 21.378 97.9629 21.162C98.5029 20.934 99.0849 20.82 99.7089 20.82C100.441 20.82 101.071 20.958 101.599 21.234C102.139 21.498 102.577 21.828 102.913 22.224C103.261 22.62 103.513 23.052 103.669 23.52C103.837 23.988 103.921 24.42 103.921 24.816V25.968H96.7209ZM99.7089 22.152C99.3129 22.152 98.9409 22.218 98.5929 22.35C98.2569 22.47 97.9569 22.644 97.6929 22.872C97.4409 23.1 97.2309 23.37 97.0629 23.682C96.9069 23.982 96.8049 24.312 96.7569 24.672H102.517C102.493 24.288 102.397 23.94 102.229 23.628C102.073 23.316 101.863 23.052 101.599 22.836C101.347 22.62 101.053 22.452 100.717 22.332C100.393 22.212 100.057 22.152 99.7089 22.152ZM108.57 23.376C108.57 23.808 108.75 24.138 109.11 24.366C109.482 24.594 110.154 24.744 111.126 24.816C112.17 24.9 112.962 25.152 113.502 25.572C114.054 25.98 114.33 26.58 114.33 27.372V27.48C114.33 27.912 114.24 28.302 114.06 28.65C113.892 28.986 113.652 29.274 113.34 29.514C113.04 29.754 112.668 29.934 112.224 30.054C111.792 30.186 111.318 30.252 110.802 30.252C110.106 30.252 109.506 30.162 109.002 29.982C108.51 29.79 108.096 29.544 107.76 29.244C107.436 28.932 107.19 28.584 107.022 28.2C106.854 27.804 106.758 27.408 106.734 27.012L108.066 26.688C108.126 27.372 108.39 27.924 108.858 28.344C109.326 28.752 109.95 28.956 110.73 28.956C111.39 28.956 111.918 28.83 112.314 28.578C112.722 28.314 112.926 27.948 112.926 27.48C112.926 26.976 112.728 26.616 112.332 26.4C111.936 26.184 111.294 26.046 110.406 25.986C109.374 25.914 108.582 25.674 108.03 25.266C107.478 24.858 107.202 24.264 107.202 23.484V23.376C107.202 22.956 107.292 22.59 107.472 22.278C107.652 21.954 107.892 21.684 108.192 21.468C108.504 21.252 108.852 21.09 109.236 20.982C109.62 20.874 110.022 20.82 110.442 20.82C111.03 20.82 111.546 20.904 111.99 21.072C112.434 21.228 112.806 21.438 113.106 21.702C113.406 21.954 113.634 22.248 113.79 22.584C113.958 22.92 114.066 23.256 114.114 23.592L112.782 23.916C112.722 23.34 112.488 22.89 112.08 22.566C111.684 22.242 111.162 22.08 110.514 22.08C110.262 22.08 110.016 22.11 109.776 22.17C109.548 22.218 109.344 22.296 109.164 22.404C108.984 22.512 108.84 22.65 108.732 22.818C108.624 22.974 108.57 23.16 108.57 23.376ZM119.592 23.376C119.592 23.808 119.772 24.138 120.132 24.366C120.504 24.594 121.176 24.744 122.148 24.816C123.192 24.9 123.984 25.152 124.524 25.572C125.076 25.98 125.352 26.58 125.352 27.372V27.48C125.352 27.912 125.262 28.302 125.082 28.65C124.914 28.986 124.674 29.274 124.362 29.514C124.062 29.754 123.69 29.934 123.246 30.054C122.814 30.186 122.34 30.252 121.824 30.252C121.128 30.252 120.528 30.162 120.024 29.982C119.532 29.79 119.118 29.544 118.782 29.244C118.458 28.932 118.212 28.584 118.044 28.2C117.876 27.804 117.78 27.408 117.756 27.012L119.088 26.688C119.148 27.372 119.412 27.924 119.88 28.344C120.348 28.752 120.972 28.956 121.752 28.956C122.412 28.956 122.94 28.83 123.336 28.578C123.744 28.314 123.948 27.948 123.948 27.48C123.948 26.976 123.75 26.616 123.354 26.4C122.958 26.184 122.316 26.046 121.428 25.986C120.396 25.914 119.604 25.674 119.052 25.266C118.5 24.858 118.224 24.264 118.224 23.484V23.376C118.224 22.956 118.314 22.59 118.494 22.278C118.674 21.954 118.914 21.684 119.214 21.468C119.526 21.252 119.874 21.09 120.258 20.982C120.642 20.874 121.044 20.82 121.464 20.82C122.052 20.82 122.568 20.904 123.012 21.072C123.456 21.228 123.828 21.438 124.128 21.702C124.428 21.954 124.656 22.248 124.812 22.584C124.98 22.92 125.088 23.256 125.136 23.592L123.804 23.916C123.744 23.34 123.51 22.89 123.102 22.566C122.706 22.242 122.184 22.08 121.536 22.08C121.284 22.08 121.038 22.11 120.798 22.17C120.57 22.218 120.366 22.296 120.186 22.404C120.006 22.512 119.862 22.65 119.754 22.818C119.646 22.974 119.592 23.16 119.592 23.376Z" fill="white"/>
</svg>
