<svg width="162" height="50" viewBox="0 0 162 50" fill="none" xmlns="http://www.w3.org/2000/svg">
<rect width="162" height="50" rx="25" fill="#191919"/>
<path d="M36.3 31H33.438L30.252 18.94H32.412L34.374 26.572L34.914 29.128H35.058L35.706 26.572L38.136 18.94H40.962L43.554 26.572L44.238 29.128H44.382L44.886 26.572L46.686 18.94H48.81L45.786 31H42.924L40.494 23.98L39.612 20.884H39.45L38.586 23.98L36.3 31ZM54.5267 31.18C51.5567 31.18 49.5587 29.29 49.5587 26.536C49.5587 23.746 51.5567 21.874 54.5267 21.874C57.5147 21.874 59.5127 23.746 59.5127 26.536C59.5127 29.29 57.5147 31.18 54.5267 31.18ZM54.5267 29.452C56.7047 29.452 57.6047 28.426 57.6047 26.536C57.6047 24.628 56.7047 23.584 54.5267 23.584C52.3667 23.584 51.4667 24.628 51.4667 26.536C51.4667 28.426 52.3667 29.452 54.5267 29.452ZM62.8674 31H60.9234V22.054H62.7054V24.466H62.8314C63.1014 23.026 64.0734 21.874 65.9094 21.874C67.9434 21.874 68.8254 23.332 68.8254 25.024V26.194H66.8994V25.402C66.8994 24.124 66.3594 23.53 65.0274 23.53C63.4974 23.53 62.8674 24.376 62.8674 25.978V31ZM73.9885 31.18C71.1625 31.18 69.5965 29.29 69.5965 26.536C69.5965 23.746 71.1445 21.874 73.8625 21.874C75.9865 21.874 77.1925 22.972 77.5525 24.484H77.6605V18.94H79.6045V31H77.8225V28.426H77.6965C77.3185 30.208 76.0045 31.18 73.9885 31.18ZM71.5585 26.536C71.5585 28.678 72.6565 29.398 74.5825 29.398C76.4905 29.398 77.6605 28.498 77.6605 26.626V26.482C77.6605 24.574 76.5445 23.638 74.5465 23.638C72.6745 23.638 71.5585 24.376 71.5585 26.536ZM83.346 31H81.402V18.94H87.306C89.988 18.94 91.824 20.47 91.824 23.152C91.824 25.816 89.988 27.364 87.306 27.364H83.346V31ZM87.126 20.686H83.346V25.618H87.126C88.944 25.618 89.88 24.934 89.88 23.152C89.88 21.37 88.944 20.686 87.126 20.686ZM94.9299 31H92.9859V22.054H94.7679V24.466H94.8939C95.1639 23.026 96.1359 21.874 97.9719 21.874C100.006 21.874 100.888 23.332 100.888 25.024V26.194H98.9619V25.402C98.9619 24.124 98.4219 23.53 97.0899 23.53C95.5599 23.53 94.9299 24.376 94.9299 25.978V31ZM106.609 31.18C103.675 31.18 101.749 29.524 101.749 26.536C101.749 23.746 103.657 21.874 106.573 21.874C109.345 21.874 111.235 23.404 111.235 26.122C111.235 26.446 111.217 26.698 111.163 26.968H103.567C103.639 28.696 104.485 29.614 106.555 29.614C108.427 29.614 109.201 29.002 109.201 27.94V27.796H111.145V27.958C111.145 29.866 109.273 31.18 106.609 31.18ZM106.537 23.404C104.557 23.404 103.693 24.286 103.585 25.888H109.399V25.852C109.399 24.196 108.445 23.404 106.537 23.404ZM116.921 31.18C114.041 31.18 112.403 30.046 112.403 27.976V27.922H114.347V28.066C114.347 29.236 115.049 29.614 116.921 29.614C118.667 29.614 119.189 29.254 119.189 28.462C119.189 27.724 118.757 27.49 117.479 27.31L115.031 26.986C113.339 26.77 112.313 26.05 112.313 24.556C112.313 22.99 113.735 21.874 116.489 21.874C119.225 21.874 120.881 22.972 120.881 25.096V25.15H118.955V25.042C118.955 23.98 118.415 23.422 116.435 23.422C114.797 23.422 114.221 23.782 114.221 24.628C114.221 25.33 114.581 25.582 115.931 25.762L118.001 26.05C120.125 26.32 121.097 27.04 121.097 28.516C121.097 30.19 119.441 31.18 116.921 31.18ZM126.73 31.18C123.85 31.18 122.212 30.046 122.212 27.976V27.922H124.156V28.066C124.156 29.236 124.858 29.614 126.73 29.614C128.476 29.614 128.998 29.254 128.998 28.462C128.998 27.724 128.566 27.49 127.288 27.31L124.84 26.986C123.148 26.77 122.122 26.05 122.122 24.556C122.122 22.99 123.544 21.874 126.298 21.874C129.034 21.874 130.69 22.972 130.69 25.096V25.15H128.764V25.042C128.764 23.98 128.224 23.422 126.244 23.422C124.606 23.422 124.03 23.782 124.03 24.628C124.03 25.33 124.39 25.582 125.74 25.762L127.81 26.05C129.934 26.32 130.906 27.04 130.906 28.516C130.906 30.19 129.25 31.18 126.73 31.18Z" fill="#F1F1F1"/>
</svg>
